<?xml version="1.0" standalone="no"?>
<!DOCTYPE svg PUBLIC "-//W3C//DTD SVG 1.1//EN" "http://www.w3.org/Graphics/SVG/1.1/DTD/svg11.dtd" >
<svg>
<metadata>
Created by FontForge 20090914 at Tue Jun  9 09:22:17 2015
 By www-data
Copyright (c) Font Diner, 2004. All rights reserved.
</metadata>
<defs>
<font id="CocktailScript" horiz-adv-x="205" >
  <font-face 
    font-family="Cocktail Script"
    font-weight="500"
    font-stretch="normal"
    units-per-em="2048"
    panose-1="2 0 6 5 5 0 0 2 0 2"
    ascent="1638"
    descent="-410"
    x-height="489"
    cap-height="1491"
    bbox="-246 -1059.01 2578 1856.99"
    underline-thickness="41"
    underline-position="-232"
    unicode-range="U+0020-U+FB02"
  />
<missing-glyph horiz-adv-x="430" 
 />
    <glyph glyph-name=".notdef" horiz-adv-x="430" 
 />
    <glyph glyph-name="space" unicode=" " horiz-adv-x="430" 
 />
    <glyph glyph-name="exclam" unicode="!" horiz-adv-x="387" 
d="M272 1278c0 30 -1.00293 57.998 -3.00293 83.998s-7 47.667 -15 65c-2.66699 6 -7.66699 11.5 -15 16.5s-15.5 9.16699 -24.5 12.5s-18.167 5.83301 -27.5 7.5s-17.666 2.5 -24.999 2.5c-9.33301 0 -16.666 -1.66699 -21.999 -5s-9.66602 -11 -12.999 -23
s-6 -29.833 -8 -53.5l-8 -96.5c-2.66699 -23.333 -4.16699 -49 -4.5 -77s-0.5 -57.667 -0.5 -89c0 -49.333 0.833008 -101 2.5 -155s3.83398 -107.167 6.50098 -159.5s5.83398 -103 9.50098 -152s7.16699 -93 10.5 -132s6.66602 -72.167 9.99902 -99.5
s6.33301 -45.666 9 -54.999c3.33301 -11.333 7.83301 -18.666 13.5 -21.999s11.167 -5 16.5 -5c11.333 0 22.5 1.83301 33.5 5.5s17.833 12.167 20.5 25.5c1.33301 4.66699 2.66602 18.167 3.99902 40.5s2.83301 50.833 4.5 85.5l5.5 118l6 138.5
c2 48.333 3.83301 97.5 5.5 147.5s3.16699 98 4.5 144s2.33301 89 3 129s1 74 1 102zM325.997 99.998c0 10.667 -1.99902 22.501 -5.99902 35.501s-10.333 25 -19 36s-20 20.333 -34 28s-31.333 11.5 -52 11.5c-30 0 -55 -4.66699 -75 -14s-35.833 -21 -47.5 -35
s-19.834 -29 -24.501 -45s-7 -30.333 -7 -43c0 -11.333 3 -24.5 9 -39.5s14.5 -29.333 25.5 -43s24.333 -25.167 40 -34.5s33.167 -14 52.5 -14c20 0 38.5 5.66699 55.5 17s31.5 25.166 43.5 41.499s21.5 33.5 28.5 51.5s10.5 33.667 10.5 47z" />
    <glyph glyph-name="quotedbl" unicode="&#x22;" horiz-adv-x="569" 
d="M508 1339c0 40.667 -4.00293 72.332 -12.0029 94.999c-6.66699 13.333 -18.334 23.5 -35.001 30.5s-31.667 10.5 -45 10.5c-15.333 0 -27.666 -4.66699 -36.999 -14s-16.5 -21.5 -21.5 -36.5s-8.16699 -31.667 -9.5 -50s-2 -36.166 -2 -53.499
c0 -13.333 0.333008 -25.5 1 -36.5s1 -20.833 1 -29.5c0 -40.667 1 -83.834 3 -129.501s4.5 -88.5 7.5 -128.5s6.16699 -74.5 9.5 -103.5s6.33301 -47.5 9 -55.5c2 -9.33301 7 -17.833 15 -25.5s19.333 -11.5 34 -11.5s27.334 3.16699 38.001 9.5s17.667 16.833 21 31.5
c1.33301 4.66699 2.83301 17.667 4.5 39s3.33398 47.333 5.00098 78s3.33398 64.334 5.00098 101.001s3.16699 72.5 4.5 107.5s2.33301 67.667 3 98s1 54.833 1 73.5zM220.997 1339c0 20.667 -0.664062 38.833 -1.99707 54.5s-4.66602 29.167 -9.99902 40.5
c-5.33301 12 -15.833 21.833 -31.5 29.5s-29.834 11.5 -42.501 11.5c-16 0 -28.833 -4.5 -38.5 -13.5s-17.167 -20.5 -22.5 -34.5s-8.83301 -29.833 -10.5 -47.5s-2.5 -35.167 -2.5 -52.5c0 -13.333 0.333008 -26.333 1 -39s1 -23.667 1 -33c0 -40.667 1 -83.834 3 -129.501
s4.5 -88.5 7.5 -128.5s6 -74.5 9 -103.5s5.5 -47.5 7.5 -55.5c2 -9.33301 7.5 -17.833 16.5 -25.5s21.167 -11.5 36.5 -11.5c13.333 0 25.833 3.16699 37.5 9.5s18.5 16.833 20.5 31.5c1.33301 4.66699 2.66602 17.667 3.99902 39s2.66602 47.333 3.99902 78
s2.66602 64.334 3.99902 101.001l4 107.5c1.33301 35 2.33301 67.667 3 98s1 54.833 1 73.5z" />
    <glyph glyph-name="numbersign" unicode="#" horiz-adv-x="877" 
d="M815 877c0 6.66699 -4.50195 14.998 -13.502 24.998s-19.667 19.833 -32 29.5s-25.333 18 -39 25s-25.167 10.5 -34.5 10.5c-8 0 -16 -0.333008 -24 -1s-16.333 -1.66699 -25 -3c6 36 11.667 67.5 17 94.5s8 47.167 8 60.5c0 6.66699 -1.83301 12.834 -5.5 18.501
s-8.33398 10.5 -14.001 14.5s-12 7 -19 9s-13.5 3 -19.5 3c-23.333 0 -41.5 -17.333 -54.5 -52s-26.167 -91 -39.5 -169c-21.333 -4 -43.166 -8.33301 -65.499 -13l-67.5 -14l24.5 126.5c7 35.667 10.5 61.167 10.5 76.5c0 6.66699 -1.66699 12.834 -5 18.501
s-7.66602 10.5 -12.999 14.5s-11.166 7 -17.499 9s-12.166 3 -17.499 3c-13.333 0 -25.166 -5.5 -35.499 -16.5s-19.166 -25.167 -26.499 -42.5s-13.666 -36.5 -18.999 -57.5s-9.66602 -41.5 -12.999 -61.5s-5.83301 -38.5 -7.5 -55.5s-2.83398 -29.833 -3.50098 -38.5
c-10 -2 -23.167 -3.83301 -39.5 -5.5s-29.166 -2.5 -38.499 -2.5c-13.333 0 -26 1.66699 -38 5s-23 5 -33 5c-4 0 -8.33301 -2 -13 -6s-9.33398 -8.66699 -14.001 -14s-8.5 -11.166 -11.5 -17.499s-4.5 -12.166 -4.5 -17.499c0 -9.33301 3 -19.166 9 -29.499
s13.333 -20 22 -29s18.167 -16.5 28.5 -22.5s19.833 -9 28.5 -9c14 0 29 0.5 45 1.5s31.667 2.5 47 4.5c-2 -32 -3.83301 -64.167 -5.5 -96.5s-2.5 -64.5 -2.5 -96.5c-15.333 -3.33301 -29 -5.16602 -41 -5.49902s-21.667 -0.5 -29 -0.5c-12 0 -23.833 1.66699 -35.5 5
s-23.834 5 -36.501 5c-4 0 -8.33301 -2 -13 -6s-9.16699 -8.83301 -13.5 -14.5s-7.83301 -11.5 -10.5 -17.5s-4 -11 -4 -15v-2c0 -10.667 3.33301 -21.334 10 -32.001s14.667 -20.334 24 -29.001s19 -15.667 29 -21s18.667 -8 26 -8c30.667 0 61.334 2 92.001 6
c1.33301 -43.333 2.83301 -80.666 4.5 -111.999s3.5 -52.666 5.5 -63.999c2 -12.667 7.33301 -20.334 16 -23.001s15 -4 19 -4h2c8 0 15.667 2.16699 23 6.5s12 11.166 14 20.499c1.33301 5.33301 2.5 13.833 3.5 25.5s2 26 3 43s2 36.333 3 58s1.83301 44.834 2.5 69.501
c28 6.66699 53.667 12.334 77 17.001s49 8 77 10c0 -28 0.166992 -54.167 0.5 -78.5s1 -46.166 2 -65.499s2.16699 -35.833 3.5 -49.5s2.66602 -23.5 3.99902 -29.5c2 -12.667 7.33301 -20.334 16 -23.001s15.667 -4 21 -4c8 0 15.167 2.16699 21.5 6.5
s10.5 11.166 12.5 20.499c2 5.33301 3.83301 15.166 5.5 29.499s3 31.833 4 52.5l3.5 70.5l4 82.5c38 3.33301 70.5 6.33301 97.5 9s47.167 6 60.5 10c17.333 5.33301 31.166 11.166 41.499 17.499s15.5 16.166 15.5 29.499c0 8 -5.16699 17.167 -15.5 27.5
s-22.5 20 -36.5 29s-28.333 16.5 -43 22.5s-26 9 -34 9c-10.667 0 -22.334 -0.833008 -35.001 -2.5l-41 -5.5l2 53c2 21.333 4.33301 42.833 7 64.5s5.66699 43.167 9 64.5l87 8.5c24 2.33301 41.667 5.5 53 9.5c17.333 5.33301 31.166 11.5 41.499 18.5
s15.5 16.167 15.5 27.5zM503.998 802.998c-2 -32 -3.83496 -64 -5.50195 -96s-3.16699 -63.667 -4.5 -95l-75.5 -16c-25 -5.33301 -49.167 -10 -72.5 -14c1.33301 17.333 2.33301 34.333 3 51s1.66699 33.667 3 51l6 47c2 16 4.33301 31.667 7 47
c22.667 5.33301 45.834 9.5 69.501 12.5s46.834 7.16699 69.501 12.5z" />
    <glyph glyph-name="dollar" unicode="$" horiz-adv-x="954" 
d="M893 1026c0 25.333 -6.17383 47.835 -18.5068 67.502s-28.666 36.834 -48.999 51.501s-43.166 27 -68.499 37s-51.166 18.333 -77.499 25s-52 11.5 -77 14.5s-46.833 4.83301 -65.5 5.5c4 65.333 6 115.666 6 150.999v24c0 6.66699 -0.666992 11.667 -2 15
c-0.666992 4.66699 -3.16699 10 -7.5 16s-9.16602 11.833 -14.499 17.5s-11.166 10.334 -17.499 14.001s-12.5 5.5 -18.5 5.5h-2c-19.333 1.33301 -34 -18.334 -44 -59.001s-17.667 -104.667 -23 -192c-23.333 -4 -48.333 -10.167 -75 -18.5s-53 -18.833 -79 -31.5
s-51 -27.167 -75 -43.5s-45.167 -34.5 -63.5 -54.5s-33 -42 -44 -66s-16.5 -49.667 -16.5 -77c0 -44 12 -80.333 36 -109s53.833 -52.167 89.5 -70.5s73.834 -33 114.501 -44s77.667 -20.5 111 -28.5c1.33301 -45.333 2.83301 -90.5 4.5 -135.5s3.5 -89.167 5.5 -132.5
c-30 5.33301 -57.5 12.333 -82.5 21s-47.167 17.834 -66.5 27.501s-36.5 19.167 -51.5 28.5s-27.5 17.666 -37.5 24.999s-18.667 13.333 -26 18s-14.333 7 -21 7c-10 0 -17.167 -3.5 -21.5 -10.5s-6.5 -15.167 -6.5 -24.5c0 -5.33301 2.5 -12.333 7.5 -21
s12.167 -18.167 21.5 -28.5s20.333 -21.166 33 -32.499s26.667 -22.333 42 -33c22.667 -16.667 52.167 -33 88.5 -49s79.166 -27.667 128.499 -35c4 -74.667 8.33301 -138.834 13 -192.501s8.66699 -89.834 12 -108.501c2 -11.333 5.16699 -19.833 9.5 -25.5
s8.83301 -9.66699 13.5 -12s9 -3.5 13 -3.5h7c1.33301 0 3.33301 0.333008 6 1s5.66699 2.33398 9 5.00098s6.66602 6.66699 9.99902 12s5.66602 13 6.99902 23c0 4 0.333008 9.66699 1 17s1 16.666 1 27.999c0 26.667 -0.833008 61.5 -2.5 104.5l-5.5 143.5
c30.667 0 63.834 3.5 99.501 10.5s68.667 18.667 99 35s55.666 37.666 75.999 63.999s30.5 58.833 30.5 97.5c0 41.333 -10.333 75.5 -31 102.5s-46.667 49.333 -78 67s-65.166 31.667 -101.499 42s-70.5 18.833 -102.5 25.5c0 73.333 1.66699 144 5 212s7 131.333 11 190
c67.333 -3.33301 120.5 -14.5 159.5 -33.5s58.5 -43.5 58.5 -73.5c0 -17.333 -3.5 -32.166 -10.5 -44.499s-15.333 -22.833 -25 -31.5s-19.167 -15.334 -28.5 -20.001s-16.666 -8 -21.999 -10c-6.66699 -2 -14.667 -6.83301 -24 -14.5s-18.166 -16.334 -26.499 -26.001
s-15.333 -19.667 -21 -30s-8.5 -19.166 -8.5 -26.499c0 -13.333 5.33301 -23 16 -29s22.334 -9 35.001 -9c8.66699 0 21.167 2.33301 37.5 7s34 11.667 53 21s38.5 20.833 58.5 34.5s38 29.167 54 46.5s29.167 36.5 39.5 57.5s15.5 43.833 15.5 68.5zM409.993 1133
c0 -50.667 -0.334961 -100.667 -1.00195 -150s-1 -99 -1 -149v-72c-21.333 5.33301 -44.666 11.833 -69.999 19.5s-49 17.667 -71 30s-40.333 27.833 -55 46.5s-22 42 -22 70c0 27.333 6.83301 52.333 20.5 75s31.334 42.667 53.001 60s45.5 31.833 71.5 43.5
s51 20.5 75 26.5zM701.991 496.002c0 -23.333 -8.49902 -41.667 -25.499 -55s-36.167 -23 -57.5 -29c-24.667 -7.33301 -52.667 -11.666 -84 -12.999h-15c-1.33301 40 -2.33301 81.167 -3 123.5s-1 84.5 -1 126.5c19.333 -5.33301 39.833 -11.833 61.5 -19.5
s41.667 -17.334 60 -29.001s33.666 -26 45.999 -43s18.5 -37.5 18.5 -61.5z" />
    <glyph glyph-name="percent" unicode="%" horiz-adv-x="1186" 
d="M764 1350c0 5.33301 -0.833984 11.6631 -2.50098 18.9961s-6.16699 11 -13.5 11c-4.66699 0 -9.66699 -2.66699 -15 -8c-23.333 -28.667 -44.166 -49.834 -62.499 -63.501s-33.5 -23.167 -45.5 -28.5c-11.333 24 -26 45.5 -44 64.5s-38.333 35.167 -61 48.5
s-46.834 23.5 -72.501 30.5s-51.834 10.5 -78.501 10.5c-44 0 -84.833 -7.33301 -122.5 -22s-70.167 -35.167 -97.5 -61.5s-48.833 -58 -64.5 -95s-23.5 -77.833 -23.5 -122.5c0 -39.333 7.16699 -74.5 21.5 -105.5s33.833 -57.167 58.5 -78.5s53.5 -37.666 86.5 -48.999
s67.833 -17 104.5 -17c41.333 -0.666992 80.833 6 118.5 20s70.834 33.833 99.501 59.5s51.667 56.167 69 91.5s26 74.333 26 117v27c10 4.66699 21.667 12.834 35 24.501s26.333 24.834 39 39.501s23.334 29.834 32.001 45.501s13 29.834 13 42.501zM1102 1317
c0 6.66699 -0.665039 14.1689 -1.99805 22.502s-3.5 16.333 -6.5 24s-7.33301 14.167 -13 19.5s-12.834 8 -21.501 8c-22.667 0 -54.834 -22.833 -96.501 -68.5s-96.834 -115.834 -165.501 -210.501c-31.333 -42 -64 -88.167 -98 -138.5l-103.5 -156.5l-104 -164
l-99.5 -162.5l-90 -151.5l-75 -130l-55.5 -100c-15 -28 -25.167 -48 -30.5 -60c-5.33301 -10.667 -8 -21 -8 -31s3.66699 -18.833 11 -26.5s16 -11.5 26 -11.5c5.33301 0 11 1.33301 17 4s12.667 8 20 16c6.66699 7.33301 17.5 22.166 32.5 44.499l54 83l70.5 111.5
l82.5 130.5l90 140.5l92.5 141l106 153.5l104.5 142l96 126l80 104c23 30.333 41.833 56 56.5 77s23.334 35.833 26.001 44.5c2.66699 6.66699 4 13 4 19zM1124 280.999c0 50 -11.167 94.835 -33.5 134.502s-58.166 69.834 -107.499 90.501
c-8 11.333 -24.167 20.333 -48.5 27s-52.5 10 -84.5 10c-44 0 -84.833 -7.5 -122.5 -22.5s-70.334 -35.833 -98.001 -62.5s-49.334 -58.5 -65.001 -95.5s-23.5 -77.833 -23.5 -122.5c0 -38.667 7.33301 -73.334 22 -104.001s34.5 -56.834 59.5 -78.501
s53.667 -38.334 86 -50.001s66.5 -17.5 102.5 -17.5c41.333 -0.666992 80.833 6.16602 118.5 20.499s70.834 34.5 99.501 60.5s51.667 56.833 69 92.5s26 74.834 26 117.501zM551.001 1171c0 -26.667 -5.83496 -50.6689 -17.502 -72.002s-27 -39.5 -46 -54.5
s-40.667 -26.333 -65 -34s-49.166 -11.5 -74.499 -11.5c-27.333 0 -52 4.5 -74 13.5s-40.667 20.5 -56 34.5s-27.166 30 -35.499 48s-12.5 36 -12.5 54c0 26 4.66699 50.833 14 74.5s22.5 44.667 39.5 63s37 32.833 60 43.5s47.833 16 74.5 16c20.667 0 39.667 -2 57 -6
s32.666 -9 45.999 -15c-4 -6 -6.66699 -12.333 -8 -19s-2 -14 -2 -22c0 -11.333 2 -22.666 6 -33.999s10.167 -21.666 18.5 -30.999s18.833 -17.333 31.5 -24s27.334 -11 44.001 -13v-11zM1030 280.999c0 -27.333 -6 -51.666 -18 -72.999s-27.5 -39.333 -46.5 -54
s-40.667 -25.834 -65 -33.501s-48.833 -11.5 -73.5 -11.5c-27.333 0 -52 4.33301 -74 13s-40.667 19.834 -56 33.501s-27.166 29.334 -35.499 47.001s-12.5 35.5 -12.5 53.5c0 25.333 5 50 15 74s23.5 45.333 40.5 64s37 33.5 60 44.5s47.5 16.5 73.5 16.5
c27.333 0 52.666 -3.83301 75.999 -11.5s43.5 -18.834 60.5 -33.501s30.5 -32.834 40.5 -54.501s15 -46.5 15 -74.5z" />
    <glyph glyph-name="ampersand" unicode="&#x26;" horiz-adv-x="965" 
d="M995 690c0 10 -6.83301 20.9932 -20.5 32.9932s-29.5 23.167 -47.5 33.5s-35.833 19 -53.5 26s-30.834 10.5 -39.501 10.5c-14.667 0 -32.167 -1 -52.5 -3s-42.5 -4.66699 -66.5 -8s-49.333 -7.16602 -76 -11.499s-54 -9.16602 -82 -14.499
c3.33301 60.667 7.16602 109.834 11.499 147.501s6.5 66.834 6.5 87.501c0 4.66699 -1 10.834 -3 18.501s-4.66699 15 -8 22s-7.33301 13 -12 18s-9.66699 7.5 -15 7.5c-4 0 -9 -1.5 -15 -4.5s-11.667 -6.83301 -17 -11.5s-10.333 -10 -15 -16s-7.66699 -11.667 -9 -17
c-12 -39.333 -21.833 -83 -29.5 -131s-13.5 -96 -17.5 -144l-20 -4c-11.333 16.667 -24.166 33.5 -38.499 50.5s-30 32.333 -47 46s-35.167 24.834 -54.5 33.501s-39.666 13 -60.999 13c-35.333 0 -64.666 -5.5 -87.999 -16.5s-42 -24.167 -56 -39.5
s-23.833 -31.333 -29.5 -48s-8.5 -31 -8.5 -43c0 -20 3.66699 -40.833 11 -62.5s17.833 -41.5 31.5 -59.5s29.667 -32.833 48 -44.5s38.5 -17.5 60.5 -17.5c40 0 79.667 4 119 12l125 25c0 -52 1.66699 -97 5 -135s7.66602 -62.667 12.999 -74
c2.66699 -5.33301 6.66699 -15 12 -29s11.333 -28.5 18 -43.5s14 -28.167 22 -39.5s16 -17 24 -17c19.333 0 32.333 9.83301 39 29.5s10 46.5 10 80.5c0 32 -1.83301 69.667 -5.5 113s-6.5 89 -8.5 137l20 2c42.667 3.33301 82.5 6.66602 119.5 9.99902l100.5 9
c30 2.66699 55.667 5.33398 77 8.00098s37.333 5.33398 48 8.00098c22.667 6 40.5 13 53.5 21s20.167 18.667 21.5 32zM375 720.993l-102 -16.001c-30 -4.66699 -52.667 -7 -68 -7c-6 0 -13.833 0.333008 -23.5 1s-19.334 2.33398 -29.001 5.00098s-18 6.5 -25 11.5
s-10.5 11.5 -10.5 19.5c0 22.667 8.66699 40 26 52s42 18 74 18c12 0 24.667 -2.33301 38 -7s26.833 -11 40.5 -19s27.334 -17 41.001 -27s26.5 -20.333 38.5 -31z" />
    <glyph glyph-name="quotesingle" unicode="'" horiz-adv-x="283" 
d="M221 1339c0 20.667 -0.664062 38.833 -1.99707 54.5s-4.66602 29.167 -9.99902 40.5c-5.33301 12 -15.833 21.833 -31.5 29.5s-29.834 11.5 -42.501 11.5c-16 0 -28.833 -4.5 -38.5 -13.5s-17.167 -20.5 -22.5 -34.5s-8.83301 -29.833 -10.5 -47.5
s-2.5 -35.167 -2.5 -52.5c0 -13.333 0.333008 -26.333 1 -39s1 -23.667 1 -33c0 -40.667 1 -83.834 3 -129.501s4.5 -88.5 7.5 -128.5s6 -74.5 9 -103.5s5.5 -47.5 7.5 -55.5c2 -9.33301 7.5 -17.833 16.5 -25.5s21.167 -11.5 36.5 -11.5c13.333 0 25.833 3.16699 37.5 9.5
s18.5 16.833 20.5 31.5c1.33301 4.66699 2.66602 17.667 3.99902 39s2.66602 47.333 3.99902 78s2.66602 64.334 3.99902 101.001l4 107.5c1.33301 35 2.33301 67.667 3 98s1 54.833 1 73.5z" />
    <glyph glyph-name="parenleft" unicode="(" horiz-adv-x="766" 
d="M705 1448c-1.33301 3.33301 -4.16602 7.49512 -8.49902 12.4951s-8.5 7.5 -12.5 7.5c-7.33301 0 -21.833 -3.83301 -43.5 -11.5s-47.834 -19.5 -78.501 -35.5s-64.334 -36.167 -101.001 -60.5s-73.5 -53.166 -110.5 -86.499s-73 -71.333 -108 -114
s-65.833 -90.167 -92.5 -142.5s-48.167 -109.666 -64.5 -171.999s-24.5 -129.833 -24.5 -202.5c0 -88.667 12.667 -167.5 38 -236.5s57.5 -129.167 96.5 -180.5s82.5 -94.666 130.5 -129.999s94.5 -63.833 139.5 -85.5s86 -37.334 123 -47.001s64.167 -14.5 81.5 -14.5
c21.333 0 32 11 32 33c0 5.33301 -3.33301 10.5 -10 15.5s-19.667 12.5 -39 22.5c-60 32.667 -116.167 68.5 -168.5 107.5s-97.833 83 -136.5 132s-69.167 103.333 -91.5 163s-33.5 126.5 -33.5 200.5c0 82.667 9 159.334 27 230.001s44.333 136.5 79 197.5
s77 117.833 127 170.5s107 102.334 171 149.001l20 14c8.66699 6 17.334 12.667 26.001 20s16.167 14.833 22.5 22.5s9.5 14.834 9.5 21.501z" />
    <glyph glyph-name="parenright" unicode=")" horiz-adv-x="766" 
d="M705 643c0 72.667 -8.16699 140.171 -24.5 202.504s-37.833 119.666 -64.5 171.999s-57.5 99.833 -92.5 142.5s-71 80.667 -108 114s-73.833 62.166 -110.5 86.499s-70.334 44.5 -101.001 60.5s-56.834 27.833 -78.501 35.5s-36.167 11.5 -43.5 11.5
c-4 0 -8.16699 -2.5 -12.5 -7.5s-7.16602 -9.16699 -8.49902 -12.5c0 -6.66699 3.16699 -13.834 9.5 -21.501s13.833 -15.167 22.5 -22.5s17.334 -14 26.001 -20l20 -14c64 -46.667 121 -96.334 171 -149.001s92.333 -109.5 127 -170.5s61 -126.833 79 -197.5
s27 -147.334 27 -230.001c0 -74 -11.167 -140.833 -33.5 -200.5s-52.833 -114 -91.5 -163s-84.167 -93 -136.5 -132s-108.5 -74.833 -168.5 -107.5c-19.333 -10 -32.5 -17.5 -39.5 -22.5s-10.5 -10.167 -10.5 -15.5c0 -11.333 3 -19.666 9 -24.999s14 -8 24 -8
c17.333 0 44.5 4.83301 81.5 14.5s78 25.334 123 47.001s91.5 50.167 139.5 85.5s91.5 78.666 130.5 129.999s71.167 111.5 96.5 180.5s38 147.833 38 236.5z" />
    <glyph glyph-name="asterisk" unicode="*" horiz-adv-x="805" 
d="M743 1059c0 7.33301 -0.505859 15.5 -1.50586 24.5s-2.66699 18 -5 27s-5.5 17 -9.5 24s-8.66699 11.833 -14 14.5h-11c-8.66699 0 -21.167 -0.833008 -37.5 -2.5s-34.666 -3.83398 -54.999 -6.50098s-41.666 -5.66699 -63.999 -9s-43.833 -7 -64.5 -11l46.5 60
l43.5 56.5l33 42c8.66699 11 13.334 16.833 14.001 17.5c3.33301 8 5 14.333 5 19c0 10 -4.33301 19.333 -13 28s-19 16.167 -31 22.5s-24.167 11.333 -36.5 15s-22.5 5.5 -30.5 5.5c-6.66699 0 -12.667 -1.33301 -18 -4c-3.33301 -2.66699 -8.33301 -11 -15 -25l-23 -50.5
c-8.66699 -19.667 -17.667 -41.167 -27 -64.5s-18 -46 -26 -68l-27 68c-9.33301 23.333 -18.333 44.833 -27 64.5l-23 50.5c-6.66699 14 -11.667 22.333 -15 25c-5.33301 2.66699 -11.333 4 -18 4c-7.33301 0 -17.166 -1.83301 -29.499 -5.5s-24.5 -8.66699 -36.5 -15
s-22.5 -13.833 -31.5 -22.5s-13.5 -18 -13.5 -28c0 -5.33301 2 -11.666 6 -18.999c0.666992 -0.666992 5.5 -6.83398 14.5 -18.501l34 -44l45 -57.5l46.5 -60l-75.5 11l-72.5 11l-54.5 8c-14.333 2 -22.166 3 -23.499 3c-16 -2 -26.833 -8.83301 -32.5 -20.5
s-8.5 -24.5 -8.5 -38.5c0 -6.66699 0.666992 -14.834 2 -24.501s3.16602 -19.167 5.49902 -28.5s5.5 -17.833 9.5 -25.5s8.66699 -12.5 14 -14.5c1.33301 -1.33301 5.33301 -2 12 -2c10 0 23.333 0.833008 40 2.5s35.167 3.83398 55.5 6.50098s41.333 5.66699 63 9
s42.167 6.33301 61.5 9l-46.5 -58.5l-44 -55.5l-32.5 -41.5c-8.66699 -11 -13 -17.167 -13 -18.5c-4 -8 -6 -15 -6 -21c0 -10 4.33301 -19.333 13 -28s19 -16 31 -22s24.167 -10.667 36.5 -14s22.5 -5 30.5 -5s14 2 18 6c3.33301 2.66699 8.33301 10.834 15 24.501
s14.334 30.334 23.001 50.001s17.667 41.167 27 64.5l27 66l26 -66c9.33301 -23.333 18.333 -44.833 27 -64.5s16.334 -36.334 23.001 -50.001s11.667 -21.834 15 -24.501c2 -2 4.66699 -3.5 8 -4.5s6.66602 -1.5 9.99902 -1.5c8 0 18.167 1.66699 30.5 5s24.5 8 36.5 14
s22.333 13.333 31 22s13 18 13 28c0 5.33301 -1.66699 12.333 -5 21c-0.666992 1.33301 -5.5 7.83301 -14.5 19.5l-34 44l-45.5 58l-49 60.5l75.5 -11l73 -11c22.333 -3.33301 40.833 -6 55.5 -8s22.334 -3 23.001 -3c17.333 1.33301 28.5 8.33301 33.5 21
s7.5 26.334 7.5 41.001z" />
    <glyph glyph-name="plus" unicode="+" horiz-adv-x="1059" 
d="M997 721c0 10 -6.6709 20.833 -20.0039 32.5s-28.666 22.5 -45.999 32.5s-34.833 18.333 -52.5 25s-31.167 10 -40.5 10c-14.667 0 -32 -1 -52 -3s-42 -4.5 -66 -7.5s-49.333 -6.66699 -76 -11l-81 -13.5c2 58.667 5 106.834 9 144.501s6 66.834 6 87.501
c0 5.33301 -0.833008 11.833 -2.5 19.5s-4.16699 15 -7.5 22s-7.33301 13 -12 18s-9.66699 7.5 -15 7.5c-4 0 -8.66699 -1.5 -14 -4.5s-10.666 -6.83301 -15.999 -11.5s-10.5 -9.83398 -15.5 -15.501s-8.5 -11.5 -10.5 -17.5c-12 -39.333 -21.833 -82.833 -29.5 -130.5
s-13.5 -95.5 -17.5 -143.5l-73.5 -13.5c-23.667 -4.33301 -45.5 -8 -65.5 -11s-37.833 -5.5 -53.5 -7.5s-28.5 -3 -38.5 -3c-16.667 0 -32.5 2 -47.5 6s-30.5 6 -46.5 6c-5.33301 0 -11 -2.33301 -17 -7s-11.667 -10.334 -17 -17.001s-9.66602 -13.5 -12.999 -20.5
s-5 -13.167 -5 -18.5c0 -14 4.16699 -27.333 12.5 -40s18.833 -23.834 31.5 -33.501s26.334 -17.334 41.001 -23.001s28 -8.5 40 -8.5s27.167 1 45.5 3s38.5 4.83301 60.5 8.5l69.5 11.5l70.5 12v-33c0 -43.333 1.5 -80.833 4.5 -112.5s7.16699 -52.834 12.5 -63.501
c2.66699 -4.66699 6.5 -14 11.5 -28s11 -28.333 18 -43s14.5 -27.667 22.5 -39s16.333 -17 25 -17c18.667 0 31.167 9.66699 37.5 29s9.5 46 9.5 80c0 32.667 -1.66699 70.334 -5 113.001s-5.66602 88.334 -6.99902 137.001l19 2c42.667 4 82.5 7.5 119.5 10.5
s70.5 6 100.5 9s55.667 5.83301 77 8.5s37.666 5.66699 48.999 9c21.333 5.33301 38.5 11.833 51.5 19.5s19.5 18.834 19.5 33.501z" />
    <glyph glyph-name="comma" unicode="," horiz-adv-x="395" 
d="M334 47c0 26 -3.66406 49.168 -10.9971 69.501s-16.833 37.5 -28.5 51.5s-25 24.667 -40 32s-30.167 11 -45.5 11c-42 0 -77.167 -11.833 -105.5 -35.5s-42.5 -57.5 -42.5 -101.5c0 -11.333 2.83301 -24.333 8.5 -39s14 -28.5 25 -41.5s24.167 -24.167 39.5 -33.5
s32.666 -14.333 51.999 -15c2 -8.66699 3.66699 -17.5 5 -26.5s2 -18.167 2 -27.5c0 -25.333 -3.83301 -50.666 -11.5 -75.999s-16 -48.333 -25 -69s-17.333 -37.667 -25 -51s-11.834 -20.333 -12.501 -21v-4c1.33301 0 2.33301 -0.333008 3 -1l1 -1
c1.33301 0 2 0.666992 2 2c0.666992 0 4 2.16699 10 6.5s14 10.666 24 18.999s21.167 18.666 33.5 30.999s25.166 26.5 38.499 42.5c12 14.667 24.167 31.667 36.5 51s23.333 40.833 33 64.5s17.667 49.167 24 76.5s9.5 56 9.5 86z" />
    <glyph glyph-name="hyphen" unicode="-" horiz-adv-x="981" 
d="M920 721c0.666992 10 -5.00293 20.832 -17.0029 32.499s-26.167 22.5 -42.5 32.5s-32.833 18.333 -49.5 25s-29.667 10 -39 10c-21.333 0 -48.333 -2.33301 -81 -7s-68 -10.5 -106 -17.5l-117 -22.5l-113 -22.5c-35.333 -7 -67 -12.833 -95 -17.5s-49 -7 -63 -7
c-15.333 0 -30 2 -44 6s-28.667 6 -44 6h-3c-4 0.666992 -8.66699 -1.16602 -14 -5.49902s-10.166 -9.83301 -14.499 -16.5s-8.16602 -13.5 -11.499 -20.5s-5 -13.167 -5 -18.5c0 -13.333 3.66699 -26.333 11 -39s16.833 -24 28.5 -34s24.334 -18.167 38.001 -24.5
s26.834 -9.5 39.501 -9.5c27.333 0 54.333 2.16699 81 6.5s54.167 9.66602 82.5 15.999l90.5 20c32 7 67 12.833 105 17.5c38.667 4.66699 75 8.5 109 11.5s64.667 5.83301 92 8.5s50.666 5.33398 69.999 8.00098s34 5.66699 44 9c21.333 6 38 12.667 50 20s18 18.333 18 33
z" />
    <glyph glyph-name="period" unicode="." horiz-adv-x="387" 
d="M326 100c0 10.667 -1.99805 22.501 -5.99805 35.501s-10.5 25 -19.5 36s-20.5 20.333 -34.5 28s-31 11.5 -51 11.5c-30 0 -55 -4.66699 -75 -14s-35.833 -21 -47.5 -35s-19.834 -29 -24.501 -45s-7 -30.333 -7 -43c0 -11.333 2.83301 -24.5 8.5 -39.5s14 -29.333 25 -43
s24.167 -25.167 39.5 -34.5s32.666 -14 51.999 -14c20.667 0 39.5 5.66699 56.5 17s31.667 25.166 44 41.499s22 33.5 29 51.5s10.5 33.667 10.5 47z" />
    <glyph glyph-name="slash" unicode="/" horiz-adv-x="662" 
d="M631 1386l-0.00292969 -1.99707c-0.666992 -8.66699 -5.16699 -24.334 -13.5 -47.001s-19.666 -50.834 -33.999 -84.501l-50 -115.5l-60 -139.5l-64.5 -157c-22 -55 -43 -111.167 -63 -168.5l-52.5 -153l-51 -152l-46.5 -141l-39.5 -120.5
c-11.667 -35.667 -21.834 -65.5 -30.501 -89.5s-15.334 -40.333 -20.001 -49c-6 -12 -12.167 -19.667 -18.5 -23s-12.166 -5 -17.499 -5c-11.333 0 -20.666 5 -27.999 15s-11 20.667 -11 32v6c0 2 0.666992 4.66699 2 8c2.66699 17.333 9.83398 49 21.501 95
s26.667 101.167 45 165.5l62 212l73 234.5l78.5 233c26.667 76 52.667 145 78 207l61 142.5c18 40.333 34.333 73.666 49 99.999s28.334 46 41.001 59s24.667 19.5 36 19.5c8 0 15.333 -3 22 -9s12.167 -13.167 16.5 -21.5s7.83301 -17 10.5 -26s4 -16.5 4 -22.5v-3z" />
    <glyph glyph-name="zero" unicode="0" horiz-adv-x="1159" 
d="M1098 674c0 34 -2.33496 74.333 -7.00195 121s-12.167 93.5 -22.5 140.5s-23.333 91.667 -39 134s-34.5 76.166 -56.5 101.499c-8.66699 10.667 -16.667 17.5 -24 20.5s-13.666 4.5 -18.999 4.5s-11.166 -1.16699 -17.499 -3.5s-9.5 -7.16602 -9.5 -14.499
c0 -1.33301 0.166992 -3 0.5 -5s1.5 -4 3.5 -6c3.33301 -4.66699 9.83301 -20.167 19.5 -46.5s19.5 -60.333 29.5 -102s19 -89.167 27 -142.5s12 -109 12 -167c0 -40.667 -3.33301 -83.167 -10 -127.5s-17 -88 -31 -131s-31.833 -83.833 -53.5 -122.5
s-47.667 -72.667 -78 -102s-65.166 -52.5 -104.499 -69.5s-83.333 -25.5 -132 -25.5c-48 0.666992 -91.333 7.66699 -130 21s-73.167 31.833 -103.5 55.5s-56.5 51.5 -78.5 83.5s-40 66.833 -54 104.5s-24.5 77.167 -31.5 118.5s-10.5 83 -10.5 125
c0 62.667 6.16699 125.334 18.5 188.001s30.833 123 55.5 181c15.333 36 35.166 72.833 59.499 110.5s52.333 72.167 84 103.5s66.667 57 105 77s79.166 30 122.499 30c16.667 0 33 -2.5 49 -7.5s30.167 -12.333 42.5 -22s22.333 -21.667 30 -36s11.5 -30.833 11.5 -49.5
c0 -16 -3.16699 -31.833 -9.5 -47.5s-13.5 -31.167 -21.5 -46.5c-4 -6 -7 -15.833 -9 -29.5s-3 -28.167 -3 -43.5c0 -6 0.166992 -13.667 0.5 -23s1.66602 -18.333 3.99902 -27s5.83301 -16.167 10.5 -22.5s11.334 -9.5 20.001 -9.5c7.33301 0 14.833 1.83301 22.5 5.5
s15.167 8.5 22.5 14.5c8 7.33301 17.333 20 28 38s20.667 39 30 63s17.333 50.167 24 78.5s10 56.5 10 84.5v17c0 30.667 -6.16699 57.5 -18.5 80.5s-28.833 42.167 -49.5 57.5s-44.167 26.833 -70.5 34.5s-53.166 11.5 -80.499 11.5c-58.667 0 -114.667 -13.333 -168 -40
s-102.333 -61 -147 -103s-84.5 -88.5 -119.5 -139.5s-63.167 -100.833 -84.5 -149.5c-28 -64 -49.333 -130 -64 -198s-22 -137.333 -22 -208c0 -49.333 4.66699 -98.833 14 -148.5s23.166 -97.5 41.499 -143.5s41.333 -89 69 -129s60 -74.833 97 -104.5
s78.833 -53 125.5 -70s97.667 -25.833 153 -26.5c60 -0.666992 114.833 8.66602 164.5 27.999s94.334 45.833 134.001 79.5s74.5 73 104.5 118s54.833 93 74.5 144s34.5 103.333 44.5 157s15 106.167 15 157.5z" />
    <glyph glyph-name="one" unicode="1" horiz-adv-x="281" 
d="M219 1370c0 10 -1.16699 20.6729 -3.5 32.0059s-6.16602 21.5 -11.499 30.5s-12.333 16.5 -21 22.5s-19 9 -31 9c-14 0 -26.167 -8.33301 -36.5 -25s-18.833 -38.5 -25.5 -65.5s-12 -57.5 -16 -91.5s-6.83301 -68.667 -8.5 -104s-2.83398 -69.5 -3.50098 -102.5
s-1 -61.833 -1 -86.5v-47c0 -62.667 1 -127.834 3 -195.501s4.66699 -134.334 8 -200.001s7.16602 -128.834 11.499 -189.501s8.66602 -115.5 12.999 -164.5s8.5 -91 12.5 -126s7.33301 -59.167 10 -72.5c1.33301 -10 4 -17.667 8 -23s8.16699 -9.33301 12.5 -12
s8.83301 -4.33398 13.5 -5.00098s8.33398 -1 11.001 -1c10 0 18 2.33301 24 7s10.333 10.667 13 18s4.33398 15.333 5.00098 24s1 17 1 25v2c0 116 -3.16699 231.667 -9.5 347s-9.5 231 -9.5 347c0 69.333 1.66699 137.166 5 203.499s6.83301 128.166 10.5 185.499
s7.16699 108.333 10.5 153s5 79.667 5 105z" />
    <glyph glyph-name="two" unicode="2" horiz-adv-x="889" 
d="M827 12c0 6.66699 -2.33203 15.333 -6.99902 26s-10.5 21 -17.5 31s-14.5 18.833 -22.5 26.5s-15.333 12.167 -22 13.5c-7.33301 2 -18.833 3.16699 -34.5 3.5s-34.167 0.5 -55.5 0.5c-60.667 0 -121.5 -1.83301 -182.5 -5.5s-121.833 -5.5 -182.5 -5.5
c-16.667 0 -33.334 0.333008 -50.001 1s-33.334 1.66699 -50.001 3l29 26.5l32 29.5c35.333 34 73.666 72.833 114.999 116.5s82.833 90.167 124.5 139.5s81.667 100.666 120 153.999s72.333 107.333 102 162s53.334 108.834 71.001 162.501s26.5 105.167 26.5 154.5
c0 60 -9.33301 115.833 -28 167.5s-45.5 96.334 -80.5 134.001s-77.333 67.167 -127 88.5s-105.5 32 -167.5 32c-46.667 0 -91.667 -6.5 -135 -19.5s-81.5 -32.333 -114.5 -58s-59.5 -57.667 -79.5 -96s-30 -82.5 -30 -132.5c0 -43.333 9.5 -82.666 28.5 -117.999
s45.167 -67.666 78.5 -96.999c23.333 -19.333 47 -34.333 71 -45s42.667 -16 56 -16c9.33301 0 19.166 3.33301 29.499 10s15.5 15.667 15.5 27c0 7.33301 -2.5 16.5 -7.5 27.5s-11.167 22 -18.5 33s-15 20.833 -23 29.5s-15 14 -21 16
c-32.667 11.333 -56.834 30.666 -72.501 57.999s-23.5 58 -23.5 92s6.5 63.667 19.5 89s30.5 46.666 52.5 63.999s47.333 30.333 76 39s58.667 13 90 13c49.333 0 90.833 -10 124.5 -30s60.667 -46 81 -78s34.833 -68.333 43.5 -109s13 -81.667 13 -123
c0 -44 -7.66699 -90.167 -23 -138.5s-35.666 -97 -60.999 -146s-54.5 -97.833 -87.5 -146.5s-66.833 -95.667 -101.5 -141s-69 -88 -103 -128l-93 -109l-54 -62.5c-15.333 -17.667 -27.666 -32.834 -36.999 -45.501s-16.333 -23.167 -21 -31.5s-7 -15.166 -7 -20.499
c0 -7.33301 1.83301 -16.333 5.5 -27s8.5 -21.167 14.5 -31.5s13 -19.5 21 -27.5s16.333 -12.667 25 -14c11.333 -2.66699 24.833 -4.5 40.5 -5.5s32.834 -1.5 51.501 -1.5c46 0 91.5 1.83301 136.5 5.5s90.167 5.5 135.5 5.5c20.667 0 42.5 -0.5 65.5 -1.5
s45.5 -2.33301 67.5 -4s42.667 -3 62 -4s35 -1.5 47 -1.5c6 0 13 0.666992 21 2s15.5 3.66602 22.5 6.99902s13 7.5 18 12.5s7.5 10.833 7.5 17.5z" />
    <glyph glyph-name="three" unicode="3" horiz-adv-x="748" 
d="M719 408c0 47.333 -7.49609 89 -22.4961 125s-34.833 67.667 -59.5 95s-52.5 50.5 -83.5 69.5s-62.5 34.833 -94.5 47.5s-63 22.667 -93 30s-56.333 12.666 -79 15.999c20 4.66699 42.167 11.167 66.5 19.5s48.666 18.833 72.999 31.5s48 28 71 46s43.5 39 61.5 63
s32.333 51.667 43 83s16 66.333 16 105c0 38 -6.5 76.667 -19.5 116s-34 74.666 -63 105.999s-66.667 57 -113 77s-103.166 30 -170.499 30c-28 0 -58.667 -2 -92 -6c-8 -0.666992 -15.833 -2.66699 -23.5 -6s-14.667 -7.66602 -21 -12.999s-11.5 -12.166 -15.5 -20.499
s-6 -18.166 -6 -29.499c0 -20.667 5.83301 -34.834 17.5 -42.501s27.167 -11.5 46.5 -11.5c12 0 23.833 0.666992 35.5 2s23.5 2 35.5 2c29.333 0 59.833 -4 91.5 -12s60.667 -20.333 87 -37s48 -38.167 65 -64.5s25.5 -57.833 25.5 -94.5
c0 -47.333 -8.16699 -87.166 -24.5 -119.499s-36.5 -59.666 -60.5 -81.999s-50.333 -40.5 -79 -54.5s-55 -26.333 -79 -37s-44.167 -20.667 -60.5 -30s-24.5 -20 -24.5 -32c0 -10 10.167 -17.833 30.5 -23.5s45.833 -12.334 76.5 -20.001s63.667 -18 99 -31
s68.333 -31.667 99 -56s56.167 -56 76.5 -95s30.5 -88.5 30.5 -148.5c0 -46 -9 -88.167 -27 -126.5s-42.667 -71 -74 -98s-68.333 -48 -111 -63s-89 -22.5 -139 -22.5c-10.667 0 -21.834 0.833008 -33.501 2.5s-23.334 3.66699 -35.001 6s-23 4.33301 -34 6
s-21.167 2.5 -30.5 2.5c-18.667 0 -34.5 -5 -47.5 -15s-19.5 -24.333 -19.5 -43c0 -23.333 13.167 -42.5 39.5 -57.5s65.5 -22.5 117.5 -22.5c66.667 0 126 6.16699 178 18.5s97.667 29 137 50s72.666 45.5 99.999 73.5s49.666 58 66.999 90s29.833 65.167 37.5 99.5
s11.5 68.166 11.5 101.499z" />
    <glyph glyph-name="four" unicode="4" horiz-adv-x="913" 
d="M852 569c0 6 -3.50098 14 -10.501 24s-15.5 19.667 -25.5 29s-20 17.666 -30 24.999s-18 11.333 -24 12c-3.33301 1.33301 -7 2.16602 -11 2.49902s-8.66699 0.5 -14 0.5c-4 0 -8.5 -0.166992 -13.5 -0.5s-10.5 -1.16602 -16.5 -2.49902v33c0 70.667 1.66699 140 5 208
s7 131.333 11 190l11 157c3.33301 46 5 82.333 5 109c0 10 -1.33301 20.333 -4 31s-6.66699 20.5 -12 29.5s-12.5 16.333 -21.5 22s-19.5 8.83398 -31.5 9.50098h-2h-2c-26.667 0 -45.5 -27.667 -56.5 -83s-19.5 -141.666 -25.5 -258.999
c-2 -25.333 -3.16699 -52.333 -3.5 -81s-0.5 -58.334 -0.5 -89.001c0 -45.333 0.5 -91.833 1.5 -139.5s2.5 -95.5 4.5 -143.5c-40.667 -2.66699 -83.5 -6.16699 -128.5 -10.5s-88 -8.16602 -129 -11.499l-110 -9c-32.333 -2.66699 -56.166 -4 -71.499 -4
c-5.33301 0 -8.66602 1 -9.99902 3l30 74l35.5 92.5l37 101l34.5 98.5l28.5 86.5c8.33301 26.333 14.833 47.5 19.5 63.5c10 34.667 17.833 70.5 23.5 107.5s8.5 73.5 8.5 109.5c0 40.667 -7.33301 63.667 -22 69l-20 6c-6.66699 2 -13 3 -19 3
c-12 0 -21.333 -1.83301 -28 -5.5s-11.667 -8.5 -15 -14.5s-5.66602 -13.167 -6.99902 -21.5s-3 -17.166 -5 -26.499l-15.5 -76.5c-6.33301 -30.333 -13.833 -63.666 -22.5 -99.999s-18.334 -74.666 -29.001 -114.999s-22 -80.5 -34 -120.5
c-34.667 -106.667 -60.167 -188.334 -76.5 -245.001s-25.5 -93.667 -27.5 -111c-1.33301 -2.66699 -2 -4.33398 -2 -5.00098v-3v-2v-2c0 -10 3.33301 -20.333 10 -31s14.667 -20.5 24 -29.5s18.666 -16.333 27.999 -22s16.666 -8.83398 21.999 -9.50098
c6 0 12.5 -0.5 19.5 -1.5s14.833 -1.5 23.5 -1.5c22.667 0 48.334 1 77.001 3s58.167 4.5 88.5 7.5l88.5 9c28.667 3 54.334 5.5 77.001 7.5c15.333 1.33301 31.5 2.33301 48.5 3s35.167 1.66699 54.5 3c3.33301 -60.667 7 -118.834 11 -174.501
s8.16699 -106.167 12.5 -151.5s8.33301 -84 12 -116s6.83398 -54.667 9.50098 -68c2 -10.667 5.33301 -18.667 10 -24s9.5 -9 14.5 -11s9.66699 -3 14 -3s7.16602 -0.333008 8.49902 -1c1.33301 0 3.66602 0.333008 6.99902 1s7.16602 2.33398 11.499 5.00098
s8.33301 6.66699 12 12s5.83398 13 6.50098 23c1.33301 4.66699 2 10 2 16v21c0 21.333 -0.5 48.5 -1.5 81.5s-2.33301 70.167 -4 111.5s-3.16699 85.666 -4.5 132.999l-4 145c24.667 0 45.834 0.333008 63.501 1s29.167 1.66699 34.5 3c13.333 4.66699 24.166 10 32.499 16
s12.5 15 12.5 27z" />
    <glyph glyph-name="five" unicode="5" horiz-adv-x="764" 
d="M702 428c0 72.667 -15.5 134.331 -46.5 184.998s-71.333 91.834 -121 123.501s-105.5 54.5 -167.5 68.5s-123.667 20.667 -185 20h-10c1.33301 6.66699 2 16.5 2 29.5v54.5c3.33301 64 7.16602 127 11.499 189s12.166 124 23.499 186c16.667 1.33301 37.5 2.5 62.5 3.5
s52 2 81 3s58.667 2.16699 89 3.5s58.666 2.66602 84.999 3.99902s49.5 2.83301 69.5 4.5s34.333 3.83398 43 6.50098c5.33301 1.33301 11 5.83301 17 13.5s11.667 16.5 17 26.5s9.83301 20 13.5 30s5.5 18 5.5 24c0 13.333 -5 23.5 -15 30.5s-21.333 10.5 -34 10.5
c-9.33301 0 -23 -1.16699 -41 -3.5l-59 -8c-21.333 -3 -43 -5.83301 -65 -8.5s-42 -4.33398 -60 -5.00098c-20 -0.666992 -43.167 -1 -69.5 -1s-52.666 -0.333008 -78.999 -1s-51.166 -1.83398 -74.499 -3.50098s-42 -4.5 -56 -8.5c-4 -0.666992 -8.83301 -4 -14.5 -10
s-11 -13.333 -16 -22s-9.33301 -18 -13 -28s-5.5 -20 -5.5 -30c0 -6 0.666992 -10.667 2 -14s2.66602 -7.66602 3.99902 -12.999c-9.33301 -41.333 -15 -84.666 -17 -129.999s-3 -90.666 -3 -135.999v-92c0 -26.667 0.333008 -49.5 1 -68.5s1 -31.833 1 -38.5
c1.33301 -10 4.83301 -18.833 10.5 -26.5s13.167 -13.167 22.5 -16.5c2.66699 -6 11.167 -10.5 25.5 -13.5s32.333 -5.83301 54 -8.5s46.167 -6.16699 73.5 -10.5s54.833 -11 82.5 -20s54.834 -21 81.501 -36s50.167 -34.333 70.5 -58s36.833 -52.667 49.5 -87
s19 -75.166 19 -122.499c0 -46 -9.83301 -88.167 -29.5 -126.5s-45.5 -71.333 -77.5 -99s-68.667 -49.167 -110 -64.5s-83.666 -23 -126.999 -23c-13.333 0 -26.833 0.666992 -40.5 2s-26.834 2 -39.501 2c-10 0 -19.833 -1 -29.5 -3s-18.334 -5.16699 -26.001 -9.5
s-14 -10.333 -19 -18s-7.5 -17.5 -7.5 -29.5c0 -15.333 3.83301 -27.666 11.5 -36.999s17.334 -16.5 29.001 -21.5s24.334 -8.33301 38.001 -10s26.5 -2.5 38.5 -2.5c43.333 0 86.333 4.33301 129 13s83.5 21.667 122.5 39s75 38.666 108 63.999s61.667 54.333 86 87
s43.5 69.167 57.5 109.5s21 84.166 21 131.499z" />
    <glyph glyph-name="six" unicode="6" horiz-adv-x="1018" 
d="M987 387c0 46 -9.16895 91.4961 -27.502 136.496s-44.166 85.333 -77.499 121s-73.166 64.5 -119.499 86.5s-97.833 33 -154.5 33c-66 0 -124 -9.5 -174 -28.5s-93.333 -42.167 -130 -69.5s-66.834 -56.5 -90.501 -87.5s-42.167 -58.5 -55.5 -82.5
c0 94.667 9.33301 178.834 28 252.501s43.167 138.834 73.5 195.501s65 105.834 104 147.501s79 77.334 120 107.001s81.167 54.5 120.5 74.5s74.833 36.833 106.5 50.5s57.5 25.334 77.5 35.001s31 18.834 33 27.501c1.33301 3.33301 2 6.16602 2 8.49902v8.5
c0 12 -3.66699 21.333 -11 28s-16.333 11.667 -27 15s-21.834 5.5 -33.501 6.5s-21.834 1.5 -30.501 1.5c-12 0 -31 -4.66699 -57 -14s-56.167 -23.333 -90.5 -42s-71.666 -42.334 -111.999 -71.001s-80.666 -62.334 -120.999 -101.001s-79 -82.5 -116 -131.5
s-69.833 -103.333 -98.5 -163s-51.667 -125 -69 -196s-26 -147.5 -26 -229.5c0 -42.667 4.16699 -86 12.5 -130s21.5 -86.5 39.5 -127.5s41 -79.333 69 -115s61.5 -67 100.5 -94s84 -48.167 135 -63.5s108.167 -23 171.5 -23c66.667 0 126.334 12.333 179.001 37
s97.5 57.334 134.5 98.001s65.333 87 85 139s29.5 105.333 29.5 160zM847.998 325.996c0 -40.667 -8.32812 -79.1631 -24.9951 -115.496s-39.167 -67.833 -67.5 -94.5s-61.5 -47.834 -99.5 -63.501s-78.333 -23.5 -121 -23.5c-36.667 0 -73.5 7.5 -110.5 22.5
s-70.333 36.333 -100 64s-53.667 60.5 -72 98.5s-27.5 80 -27.5 126c0 39.333 8.66699 78.166 26 116.499s40.666 72.666 69.999 102.999s63.666 55 102.999 74s81 28.5 125 28.5c39.333 0 77.166 -7.5 113.499 -22.5s68.166 -36.833 95.499 -65.5
s49.166 -63.834 65.499 -105.501s24.5 -89.167 24.5 -142.5z" />
    <glyph glyph-name="seven" unicode="7" horiz-adv-x="877" 
d="M877 1343c0 6 -3.33398 14.1709 -10.001 24.5039s-14.667 20.5 -24 30.5s-19.166 19 -29.499 27s-19.5 12.333 -27.5 13c-5.33301 1.33301 -11.5 2 -18.5 2h-26.5c-23.333 0 -51.833 -0.666992 -85.5 -2s-69.834 -3 -108.501 -5s-78.334 -4.16699 -119.001 -6.5
l-116 -6.5c-36.667 -2 -70 -3.66699 -100 -5s-53.667 -2 -71 -2c-18.667 0 -36 3 -52 9s-32.667 10 -50 12h-2c-2 0 -5 -1.66699 -9 -5s-8.16699 -7.5 -12.5 -12.5s-8 -10.5 -11 -16.5s-4.5 -11.333 -4.5 -16c0 -8.66699 2.83301 -18.334 8.5 -29.001s12.667 -21 21 -31
s17.166 -18.5 26.499 -25.5s18 -11.167 26 -12.5c9.33301 -1.33301 20 -2 32 -2h38c72.667 0 144.834 3.5 216.501 10.5s143.5 10.5 215.5 10.5c26.667 0 52.834 -0.5 78.501 -1.5s49.834 -2.16699 72.501 -3.5c-14 -24.667 -29 -53.834 -45 -87.501
s-33.667 -73.167 -53 -118.5c-25.333 -57.333 -51.333 -121.5 -78 -192.5l-78.5 -217.5l-73.5 -219l-62.5 -198.5c-18.333 -60.333 -33.5 -112 -45.5 -155s-19.667 -72.5 -23 -88.5v-15c0 -10 3.33301 -20 10 -30s15.667 -15 27 -15s19 2 23 6s9.33301 11.667 16 23
c4 8 10.333 23.5 19 46.5l30.5 84l39 112.5l46 132.5l50.5 142.5l53 143c20 53.333 41 105.5 63 156.5l64 146l59.5 130l50 107.5c14.333 31.333 25.833 57.666 34.5 78.999s13 36.333 13 45v4v4.5c0 1.66699 -0.666992 4.16699 -2 7.5c3.33301 3.33301 5 6.66602 5 9.99902
z" />
    <glyph glyph-name="eight" unicode="8" horiz-adv-x="987" 
d="M956 408c0 56 -10.1641 106.498 -30.4971 151.498s-47.666 84 -81.999 117s-73.833 59.5 -118.5 79.5s-91.667 33 -141 39c34 6 67.667 18.5 101 37.5s63.166 43.5 89.499 73.5s47.833 64.667 64.5 104s25 82.333 25 129c0 40 -6.83301 79.667 -20.5 119
s-35.5 74.333 -65.5 105s-69 55.5 -117 74.5s-106 28.5 -174 28.5c-66.667 0 -123.334 -9.83301 -170.001 -29.5s-84.834 -45.167 -114.501 -76.5s-51.334 -66.5 -65.001 -105.5s-20.5 -77.5 -20.5 -115.5c0 -53.333 8 -100.166 24 -140.499s37 -74.666 63 -102.999
s55.333 -50.833 88 -67.5s65.667 -27.667 99 -33c-48 -6 -93.667 -19.833 -137 -41.5s-81.5 -49.5 -114.5 -83.5s-59.333 -73.167 -79 -117.5s-29.5 -92.5 -29.5 -144.5c0 -26.667 3 -56 9 -88s15.833 -64 29.5 -96s31.834 -63 54.501 -93s50.834 -56.5 84.501 -79.5
s73.5 -41.5 119.5 -55.5s99 -21 159 -21c61.333 0 115.5 6.83301 162.5 20.5s87.833 31.667 122.5 54s63.667 48.333 87 78s42.166 60.5 56.499 92.5s24.666 64.333 30.999 97s9.5 63 9.5 91zM739.003 1153c0 -53.333 -9.33203 -99.166 -27.999 -137.499s-41 -70 -67 -95
s-53.333 -43.333 -82 -55s-53 -17.5 -73 -17.5c-18.667 0 -42 5.83301 -70 17.5s-55.167 30 -81.5 55s-48.833 56.667 -67.5 95s-28 84.166 -28 137.499c0 31.333 6.5 61.5 19.5 90.5s30.833 54.5 53.5 76.5s48.834 39.667 78.501 53s61.5 20 95.5 20
c35.333 0 68.166 -6.66699 98.499 -20s56.666 -31 78.999 -53s40 -47.5 53 -76.5s19.5 -59.167 19.5 -90.5zM817.004 386.998c0 -36.667 -7.66797 -74.167 -23.001 -112.5s-37 -73.166 -65 -104.499s-61.833 -57 -101.5 -77s-84.167 -30 -133.5 -30s-94 10 -134 30
s-74 45.667 -102 77s-49.667 66.166 -65 104.499s-23 75.833 -23 112.5c0 46.667 5.83301 87.334 17.5 122.001s26.667 64.667 45 90s39.333 46.166 63 62.499s47.5 29.333 71.5 39s47.167 16.5 69.5 20.5s41.5 6 57.5 6s35.167 -2 57.5 -6s45.333 -10.833 69 -20.5
s47.334 -22.667 71.001 -39s44.667 -37.166 63 -62.499s33.333 -55.333 45 -90s17.5 -75.334 17.5 -122.001z" />
    <glyph glyph-name="nine" unicode="9" horiz-adv-x="1018" 
d="M987 918c0 42.667 -4.33203 85.832 -12.999 129.499s-22 85.834 -40 126.501s-41 79 -69 115s-61.5 67.167 -100.5 93.5s-83.833 47.166 -134.5 62.499s-107.667 23 -171 23c-67.333 0 -127.5 -12.333 -180.5 -37s-97.833 -57.167 -134.5 -97.5s-64.667 -86.5 -84 -138.5
s-29 -105 -29 -159c0 -46 9.16699 -91.667 27.5 -137s44 -85.833 77 -121.5s72.667 -64.667 119 -87s97.5 -33.5 153.5 -33.5c66.667 0 125 9.5 175 28.5s93.333 42.333 130 70s66.834 57.167 90.501 88.5s42.5 59.333 56.5 84c0 -94.667 -9.33301 -179.167 -28 -253.5
s-43.334 -140 -74.001 -197s-65.5 -106.167 -104.5 -147.5s-79 -77 -120 -107s-81.333 -55 -121 -75s-75.167 -36.833 -106.5 -50.5s-57.166 -25.334 -77.499 -35.001s-31.5 -18.834 -33.5 -27.501c-1.33301 -3.33301 -2 -6 -2 -8v-7c0 -12 3.66699 -21.667 11 -29
s16.333 -12.666 27 -15.999s22 -5.5 34 -6.5s22.667 -1.5 32 -1.5c12 0 31 4.66699 57 14s56.167 23.333 90.5 42s71.666 42.334 111.999 71.001s80.666 62.334 120.999 101.001s79 82.667 116 132s69.833 104 98.5 164s51.667 125.5 69 196.5s26 147.833 26 230.5z
M793.001 1083c0 -39.333 -8.66602 -78.335 -25.999 -117.002s-40.833 -73.167 -70.5 -103.5s-64.167 -55 -103.5 -74s-80.666 -28.5 -123.999 -28.5c-39.333 0 -77 7.66699 -113 23s-67.833 37.333 -95.5 66s-49.667 63.834 -66 105.501s-24.5 88.834 -24.5 141.501
c0 41.333 8.33301 80 25 116s39.167 67.667 67.5 95s61.666 48.833 99.999 64.5s79.166 23.5 122.499 23.5c36 0 72.333 -7.5 109 -22.5s69.667 -36.333 99 -64s53.333 -60.667 72 -99s28 -80.5 28 -126.5z" />
    <glyph glyph-name="colon" unicode=":" horiz-adv-x="387" 
d="M326 649c0 10 -1.99805 21.334 -5.99805 34.001s-10.5 24.5 -19.5 35.5s-20.5 20.333 -34.5 28s-31 11.5 -51 11.5c-30 0 -55 -4.66699 -75 -14s-35.833 -21 -47.5 -35s-19.834 -28.833 -24.501 -44.5s-7 -29.5 -7 -41.5s2.83301 -25.5 8.5 -40.5s14 -29.333 25 -43
s24.167 -25 39.5 -34s32.666 -13.5 51.999 -13.5c20.667 0 39.5 5.66699 56.5 17s31.667 25.166 44 41.499s22 33.5 29 51.5s10.5 33.667 10.5 47zM326.002 100.001c0 10.667 -1.99805 22.501 -5.99805 35.501s-10.5 25 -19.5 36s-20.5 20.333 -34.5 28s-31 11.5 -51 11.5
c-30 0 -55 -4.66699 -75 -14s-35.833 -21 -47.5 -35s-19.834 -29 -24.501 -45s-7 -30.333 -7 -43c0 -11.333 2.83301 -24.5 8.5 -39.5s14 -29.333 25 -43s24.167 -25.167 39.5 -34.5s32.666 -14 51.999 -14c20.667 0 39.5 5.66699 56.5 17s31.667 25.166 44 41.499
s22 33.5 29 51.5s10.5 33.667 10.5 47z" />
    <glyph glyph-name="semicolon" unicode=";" horiz-adv-x="395" 
d="M326 649c0 10 -1.99902 21.334 -5.99902 34.001s-10.5 24.5 -19.5 35.5s-20.5 20.333 -34.5 28s-31 11.5 -51 11.5c-30 0 -55 -4.66699 -75 -14s-35.833 -21 -47.5 -35s-19.834 -28.833 -24.501 -44.5s-7 -29.5 -7 -41.5s3 -25.5 9 -40.5s14.5 -29.333 25.5 -43
s24.333 -25 40 -34s33.167 -13.5 52.5 -13.5c20 0 38.5 5.66699 55.5 17s31.5 25.166 43.5 41.499s21.5 33.5 28.5 51.5s10.5 33.667 10.5 47zM334.001 47.001c0 26 -3.66406 49.168 -10.9971 69.501s-16.833 37.5 -28.5 51.5s-25 24.667 -40 32s-30.167 11 -45.5 11
c-42 0 -77.167 -11.833 -105.5 -35.5s-42.5 -57.5 -42.5 -101.5c0 -11.333 2.83301 -24.333 8.5 -39s14 -28.5 25 -41.5s24.167 -24.167 39.5 -33.5s32.666 -14.333 51.999 -15c2 -8.66699 3.66699 -17.5 5 -26.5s2 -18.167 2 -27.5
c0 -25.333 -3.83301 -50.666 -11.5 -75.999s-16 -48.333 -25 -69s-17.333 -37.667 -25 -51s-11.834 -20.333 -12.501 -21v-4c1.33301 0 2.33301 -0.333008 3 -1l1 -1c1.33301 0 2 0.666992 2 2c0.666992 0 4 2.16699 10 6.5s14 10.666 24 18.999s21.167 18.666 33.5 30.999
s25.166 26.5 38.499 42.5c12 14.667 24.167 31.667 36.5 51s23.333 40.833 33 64.5s17.667 49.167 24 76.5s9.5 56 9.5 86z" />
    <glyph glyph-name="less" unicode="&#x3c;" horiz-adv-x="776" 
d="M717 840c0 10 -2.66602 20.1631 -7.99902 30.4961s-12.333 19.666 -21 27.999s-18 15.333 -28 21s-19.667 8.5 -29 8.5c-4 0 -11.833 -1.83301 -23.5 -5.5l-37 -12c-13 -4.33301 -25.667 -8.83301 -38 -13.5l-26.5 -10l-94 -28.5
c-33.333 -10.333 -66.5 -21.666 -99.5 -33.999s-64.667 -25.5 -95 -39.5s-57.166 -29.167 -80.499 -45.5s-41.833 -33.666 -55.5 -51.999s-20.5 -37.833 -20.5 -58.5c0 -11.333 12 -26.166 36 -44.499s54.5 -37.833 91.5 -58.5s77.667 -41.334 122 -62.001
s86.833 -39.5 127.5 -56.5s76.667 -30.833 108 -41.5s52.666 -16 63.999 -16c4.66699 0 12.167 1.16699 22.5 3.5s20.666 5.83301 30.999 10.5s19.333 10.5 27 17.5s11.5 15.167 11.5 24.5c0 6.66699 -4.33301 13.167 -13 19.5s-22 13.333 -40 21s-41 16.334 -69 26.001
l-101 33.5c-5.33301 2 -15.333 5.33301 -30 10s-31.167 10.334 -49.5 17.001l-57.5 21.5c-20 7.66699 -38.5 15.167 -55.5 22.5s-30.833 14.333 -41.5 21s-16 12.667 -16 18c0 0.666992 0.833008 2 2.5 4s5.5 5 11.5 9s15 9 27 15s28.333 13.333 49 22
c60 23.333 120.167 44.333 180.5 63s120.5 40 180.5 64c11.333 5.33301 20.333 11.833 27 19.5s10 16.834 10 27.501z" />
    <glyph glyph-name="equal" unicode="=" horiz-adv-x="891" 
d="M829 866c0 6.66699 -4.66309 15.665 -13.9961 26.998s-20.5 22.5 -33.5 33.5s-26.667 20.667 -41 29s-26.166 12.833 -35.499 13.5h-9c-18.667 0 -42.667 -2.33301 -72 -7s-61 -10.667 -95 -18l-104.5 -23.5l-101.5 -23.5c-32 -7.33301 -60.5 -13.333 -85.5 -18
s-44.167 -7 -57.5 -7h-2c-13.333 1.33301 -26 4.16602 -38 8.49902s-24.667 6.5 -38 6.5c-2.66699 0 -6.33398 -2.33301 -11.001 -7s-9.33398 -10.167 -14.001 -16.5s-8.5 -13.166 -11.5 -20.499s-4.5 -14 -4.5 -20c0 -12 3.33301 -24.167 10 -36.5
s14.834 -23.5 24.501 -33.5s19.667 -18.167 30 -24.5s19.166 -9.5 26.499 -9.5h14c24 0 47.667 2.16699 71 6.5s47.666 9.5 72.999 15.5l81 18.5c28.667 6.33301 60 11.833 94 16.5c35.333 4.66699 68.166 8.66699 98.499 12l82.5 9
c24.667 2.66699 45.667 5.33398 63 8.00098s30.333 5.33398 39 8.00098c18.667 6 33.167 12.833 43.5 20.5s16.166 18.5 17.499 32.5zM829.004 577.998c0 6.66699 -4.66406 15.668 -13.9971 27.001s-20.5 22.5 -33.5 33.5s-26.667 20.5 -41 28.5s-26.166 12.333 -35.499 13
h-7c-18.667 0 -42.667 -2.33301 -72 -7s-61 -10.667 -95 -18l-105 -23l-102 -23c-32 -7.33301 -60.833 -13.333 -86.5 -18s-44.834 -7 -57.501 -7h-2c-13.333 0 -26 2.33301 -38 7s-24.667 7 -38 7c-2.66699 0 -6.33398 -2.16699 -11.001 -6.5
s-9.33398 -9.83301 -14.001 -16.5s-8.5 -13.334 -11.5 -20.001s-4.5 -12.667 -4.5 -18v-2c0 -12.667 3.33301 -25.334 10 -38.001s14.834 -24 24.501 -34s19.667 -18.167 30 -24.5s19.166 -9.83301 26.499 -10.5h12c24.667 0 48.834 2.16699 72.501 6.5
s48.167 9.83301 73.5 16.5l81 20.5c28.667 7 60 12.833 94 17.5c35.333 4.66699 68.166 8.5 98.499 11.5s57.833 5.5 82.5 7.5s45.667 4.16699 63 6.5s30.333 4.83301 39 7.5c18.667 7.33301 33.167 14.833 43.5 22.5s16.166 18.834 17.499 33.501z" />
    <glyph glyph-name="greater" unicode="&#x3e;" horiz-adv-x="776" 
d="M717 629c0 20.667 -6.83789 40.1699 -20.5049 58.5029s-32.167 35.666 -55.5 51.999s-50.166 31.5 -80.499 45.5s-62 27.167 -95 39.5s-66.333 23.666 -100 33.999l-95.5 28.5c-4.66699 2 -13 5.33301 -25 10s-24.5 9.16699 -37.5 13.5l-37 12
c-11.667 3.66699 -19.5 5.5 -23.5 5.5c-8.66699 0 -18.167 -2.83301 -28.5 -8.5s-19.666 -12.667 -27.999 -21s-15.333 -17.666 -21 -27.999s-8.5 -20.5 -8.5 -30.5c0 -21.333 12.333 -37 37 -47c58.667 -24 118.5 -45.333 179.5 -64s120.833 -39.667 179.5 -63
c21.333 -8.66699 38.166 -16 50.499 -22s21.5 -11 27.5 -15s9.83301 -7 11.5 -9s2.5 -3.33301 2.5 -4c0 -4.66699 -5.5 -10.5 -16.5 -17.5s-24.833 -14.167 -41.5 -21.5s-35.167 -14.833 -55.5 -22.5l-58 -21.5c-18.333 -6.66699 -34.666 -12.334 -48.999 -17.001
s-24.166 -8 -29.499 -10l-101.5 -33.5c-28.333 -9.66699 -51.666 -18.334 -69.999 -26.001s-31.833 -14.667 -40.5 -21s-13 -12.833 -13 -19.5c0 -9.33301 4 -17.5 12 -24.5s17.333 -12.833 28 -17.5s21.167 -8.16699 31.5 -10.5s17.833 -3.5 22.5 -3.5
c10.667 0 31.667 5.33301 63 16s67.333 24.5 108 41.5s83.334 35.833 128.001 56.5s85.5 41.334 122.5 62.001s67.5 40.167 91.5 58.5s36 33.166 36 44.499z" />
    <glyph glyph-name="question" unicode="?" horiz-adv-x="891" 
d="M829 1067c0 61.333 -9.66211 116.328 -28.9951 164.995s-46.666 90 -81.999 124s-77.666 60.167 -126.999 78.5s-104.333 27.5 -165 27.5c-48.667 0 -95 -6.5 -139 -19.5s-82.833 -32.5 -116.5 -58.5s-60.334 -58.333 -80.001 -97s-29.5 -84 -29.5 -136
c0 -45.333 10 -88 30 -128s47 -74.333 81 -103c21.333 -17.333 43.666 -31.666 66.999 -42.999s43.333 -17 60 -17c10 0 20.333 3 31 9s16 15.333 16 28v2c0 6.66699 -2.5 15.834 -7.5 27.501s-11.167 23.334 -18.5 35.001s-15.166 22.334 -23.499 32.001
s-15.833 15.834 -22.5 18.501c-32.667 12 -56.5 32 -71.5 60s-22.5 59 -22.5 93c-0.666992 33.333 5.16602 62.833 17.499 88.5s29 47.334 50 65.001s45.667 31 74 40s58.5 13.5 90.5 13.5c47.333 0 87.666 -8.5 120.999 -25.5s60.5 -40.167 81.5 -69.5
s36.333 -63.5 46 -102.5s14.167 -80.167 13.5 -123.5c0 -40.667 -3.83301 -77.167 -11.5 -109.5s-18.834 -62.5 -33.501 -90.5s-32.334 -55.167 -53.001 -81.5s-44 -54.166 -70 -83.499l-50.5 -59.5c-16.333 -19.667 -30.666 -40.167 -42.999 -61.5s-22.333 -44 -30 -68
s-11.5 -50.333 -11.5 -79c0 -9.33301 3.16699 -18.833 9.5 -28.5s14.166 -18.5 23.499 -26.5s19.333 -14.5 30 -19.5s20.334 -7.5 29.001 -7.5c7.33301 0 13.166 2.16699 17.499 6.5s6.5 10.166 6.5 17.499v27c0 39.333 5.16699 75.5 15.5 108.5s24 63.667 41 92
s36.167 55.166 57.5 80.499l65 75c21.333 24 41.666 48.167 60.999 72.5s36.666 49.5 51.999 75.5s27.5 53.333 36.5 82s13.5 60 13.5 94zM563.005 99.9951c0 10.667 -2.00195 22.501 -6.00195 35.501s-10.5 25 -19.5 36s-20.333 20.333 -34 28s-30.5 11.5 -50.5 11.5
c-30.667 0 -56 -4.66699 -76 -14s-35.667 -21 -47 -35s-19.333 -29 -24 -45s-7 -30.333 -7 -43c0 -11.333 2.83301 -24.5 8.5 -39.5s13.834 -29.333 24.501 -43s23.834 -25.167 39.501 -34.5s33.167 -14 52.5 -14c20 0 38.5 5.66699 55.5 17s31.667 25.166 44 41.499
s22 33.5 29 51.5s10.5 33.667 10.5 47z" />
    <glyph glyph-name="at" unicode="@" horiz-adv-x="1323" 
d="M1264 756c0 76 -14.3418 143.499 -43.0088 202.499s-67.5 108.5 -116.5 148.5s-105.667 70.333 -170 91s-132.166 31 -203.499 31c-53.333 0 -106.833 -6.5 -160.5 -19.5s-105.334 -31.833 -155.001 -56.5s-96 -54.334 -139 -89.001s-80.5 -73.834 -112.5 -117.501
s-57.167 -91.167 -75.5 -142.5s-27.5 -105.666 -27.5 -162.999c0 -82.667 12.833 -155.167 38.5 -217.5s61.834 -114.5 108.501 -156.5s102.834 -73.5 168.501 -94.5s138.834 -31.5 219.501 -31.5c38.667 0 74.834 2.5 108.501 7.5s64.834 11.167 93.501 18.5
s54.834 15.666 78.501 24.999s44.834 18.333 63.501 27c5.33301 2 14.833 6.66699 28.5 14s27.667 15.666 42 24.999s27 19 38 29s16.5 18.667 16.5 26c0 6.66699 -2.33301 12.834 -7 18.501s-10.667 8.5 -18 8.5c-5.33301 0 -11.166 -1.66699 -17.499 -5
s-14.833 -7 -25.5 -11c-54 -26 -109.667 -46.833 -167 -62.5s-116.333 -23.5 -177 -23.5c-62.667 -0.666992 -121.834 7 -177.501 23s-104.334 40.333 -146.001 73s-74.667 74 -99 124s-36.166 108.333 -35.499 175c0.666992 76 16.334 145.833 47.001 209.5
s71.667 118.5 123 164.5s110.5 81.833 177.5 107.5s136.833 38.5 209.5 38.5c56 0 107.5 -9.33301 154.5 -28s87.5 -45 121.5 -79s60.333 -74.5 79 -121.5s28 -98.5 28 -154.5c0 -10 -0.666992 -23 -2 -39s-3.66602 -32.833 -6.99902 -50.5s-7.66602 -35.5 -12.999 -53.5
s-12.166 -34.167 -20.499 -48.5s-18.333 -26 -30 -35s-25.167 -13.5 -40.5 -13.5c-47.333 0 -82 24.667 -104 74c14 25.333 25 51.833 33 79.5s12 51.834 12 72.501c0 48 -5.83301 84.5 -17.5 109.5s-27.834 37.5 -48.501 37.5c-18.667 0 -33.667 -4.66699 -45 -14
s-19.833 -21.666 -25.5 -36.999s-9.33398 -32.833 -11.001 -52.5s-2.5 -39.834 -2.5 -60.501c0 -21.333 1 -42.666 3 -63.999s5.66699 -41.666 11 -60.999c-10 -12 -21.5 -24.167 -34.5 -36.5s-27.167 -23.5 -42.5 -33.5s-31.833 -18.167 -49.5 -24.5
s-36.167 -9.5 -55.5 -9.5c-22.667 0 -43.334 3.66699 -62.001 11s-34.667 17.333 -48 30s-23.833 28 -31.5 46s-11.5 37.333 -11.5 58c0 40.667 8 76.334 24 107.001s37 57 63 79s55.833 39.833 89.5 53.5s68.167 23.5 103.5 29.5c20.667 4 37.5 8.16699 50.5 12.5
s19.5 13.166 19.5 26.499c0 7.33301 -2 13.333 -6 18s-9 8.16699 -15 10.5s-12.5 3.83301 -19.5 4.5s-13.5 1 -19.5 1c-48 0 -97.5 -8 -148.5 -24s-97.5 -39.167 -139.5 -69.5s-76.5 -67.166 -103.5 -110.499s-40.5 -92 -40.5 -146c0 -37.333 6 -71.666 18 -102.999
s29 -58.333 51 -81s48.333 -40.334 79 -53.001s64.667 -19 102 -19c32.667 0 62.5 4 89.5 12s51.5 18.167 73.5 30.5s41.5 26.333 58.5 42s31.833 31.167 44.5 46.5c15.333 -32 37.833 -58.333 67.5 -79s61.834 -31 96.501 -31c36.667 0 69.5 8 98.5 24
s53.5 38.833 73.5 68.5s35.333 65.667 46 108s16 90.166 16 143.499z" />
    <glyph glyph-name="A" unicode="A" horiz-adv-x="1321" 
d="M1352 377c0 6 -5.99805 14.002 -17.998 24.002s-26.167 19.833 -42.5 29.5s-33.333 18 -51 25s-32.5 10.833 -44.5 11.5h-20c-13.333 0 -28.833 -0.333008 -46.5 -1s-37.167 -1.66699 -58.5 -3l-72.5 195l-71.5 196.5l-74 196c-25.333 65 -52.333 129.167 -81 192.5
c-14 32.667 -26.833 59.667 -38.5 81s-22.334 38.333 -32.001 51s-18.334 21.5 -26.001 26.5s-14.5 7.5 -20.5 7.5s-11.833 1 -17.5 3s-12.167 3 -19.5 3c-12 0 -21.5 -3.33301 -28.5 -10s-12.5 -14.834 -16.5 -24.501s-7.16699 -20 -9.5 -31
s-5.16602 -21.167 -8.49902 -30.5c-52 -155.333 -109.333 -308.333 -172 -459l-195 -452h-22h-21c-8.66699 0 -18.5 0.666992 -29.5 2s-22 3 -33 5s-21.833 3.66699 -32.5 5s-19.667 2 -27 2c-4.66699 0.666992 -10.167 -0.833008 -16.5 -4.5
s-12.166 -8.16699 -17.499 -13.5s-10 -10.833 -14 -16.5s-6 -10.5 -6 -14.5v-2c0 -10 5.66699 -20.5 17 -31.5s24.666 -21 39.999 -30s31 -16.333 47 -22s28.667 -8.5 38 -8.5h20l-47.5 -109.5c-15 -34.333 -27.833 -65 -38.5 -92s-19.167 -49.333 -25.5 -67
s-9.5 -29.5 -9.5 -35.5v-2c-1.33301 -10 1.83398 -17.5 9.50098 -22.5s16.167 -7.5 25.5 -7.5c7.33301 0 15.5 1.16699 24.5 3.5s16.5 7.16602 22.5 14.499c8.66699 11.333 19.167 27.166 31.5 47.499s26 44.5 41 72.5l48.5 93l53 109c38 2 78 4.33301 120 7
s83.833 5.5 125.5 8.5l121 8.5c39 2.66699 74.5 5.33398 106.5 8.00098c37.333 3.33301 78.666 5.66602 123.999 6.99902s90.666 2 135.999 2l53 -115.5l49 -102.5l42 -84.5c12.667 -25 23.667 -45.167 33 -60.5c8 -12 18 -20.5 30 -25.5s21.667 -7.5 29 -7.5
s12.5 3.83301 15.5 11.5s4.5 14.167 4.5 19.5l-2 4c0 8.66699 -3.66699 24.834 -11 48.501s-17.166 52 -29.499 85l-41.5 109.5l-47 122c38 0 70.167 0.833008 96.5 2.5s44.166 3.5 53.499 5.5c23.333 4 41.833 9 55.5 15s21.167 14.667 22.5 26zM940.002 455.002
c-46.667 -2.66699 -96.667 -5.83203 -150 -9.49902s-107 -7.16699 -161 -10.5l-157.5 -10l-141.5 -9l90.5 193.5c30.333 66.333 59.5 133.666 87.5 201.999s54.333 136.833 79 205.5s46 136.667 64 204c43.333 -130.667 89 -259 137 -385z" />
    <glyph glyph-name="B" unicode="B" horiz-adv-x="1452" 
d="M1434 1036c0 56 -11.3291 105.17 -33.9961 147.503s-52.834 79 -90.501 110s-80.834 56.833 -129.501 77.5s-98.834 37.167 -150.501 49.5s-102.834 21 -153.501 26s-97 7.5 -139 7.5c-21.333 0 -48.5 -1 -81.5 -3s-69.167 -5.5 -108.5 -10.5
s-80.666 -11.5 -123.999 -19.5s-86 -18.167 -128 -30.5s-82 -26.833 -120 -43.5s-71.5 -36 -100.5 -58s-52 -46.833 -69 -74.5s-25.5 -58.5 -25.5 -92.5c0 -32 7.83301 -61.5 23.5 -88.5s35.167 -51.833 58.5 -74.5s49.166 -42.5 77.499 -59.5s54.833 -31.5 79.5 -43.5
c-1.33301 -21.333 -2.33301 -44 -3 -68s-1 -48.333 -1 -73c0 -44.667 0.833008 -90.5 2.5 -137.5s3.83398 -93.833 6.50098 -140.5s5.66699 -92.334 9 -137.001s7 -86.667 11 -126c-25.333 12.667 -46.333 22.667 -63 30s-29.334 11 -38.001 11
c-5.33301 0 -8.66602 -1.33301 -9.99902 -4s-2 -6 -2 -10v-4c1.33301 -4.66699 11.833 -16.167 31.5 -34.5s48.167 -39.166 85.5 -62.499l13.5 -112.5c3.66699 -31 7.16699 -52.167 10.5 -63.5c2 -7.33301 4.66699 -13.166 8 -17.499s7 -7.83301 11 -10.5
s8 -4.33398 12 -5.00098s7.33301 -1.33398 10 -2.00098c11.333 0 20 2 26 6s10.5 9.33301 13.5 16s4.66699 14.167 5 22.5s0.5 16.833 0.5 25.5v2v80c28 -12.667 59 -24.834 93 -36.501s70.333 -21.834 109 -30.501s79.667 -15.667 123 -21s88.666 -8 135.999 -8
c34 0 71.167 2.33301 111.5 7s80.5 12.334 120.5 23.001s78.833 24.5 116.5 41.5s70.834 38 99.501 63s51.667 54.167 69 87.5s26 71.333 26 114c0 44 -9.83301 82.667 -29.5 116s-45.334 62 -77.001 86s-68 44.333 -109 61s-82.833 30 -125.5 40s-84.5 17.667 -125.5 23
s-77.5 9 -109.5 11c34.667 4.66699 74.667 11.5 120 20.5s92 21 140 36s95.167 33.167 141.5 54.5s87.833 46.666 124.5 75.999s66.167 63 88.5 101s33.5 81.333 33.5 130zM1266 1024c0 -43.333 -9.49805 -81.666 -28.498 -114.999s-44 -62.5 -75 -87.5
s-66.333 -46.5 -106 -64.5s-80.167 -33.5 -121.5 -46.5s-81.833 -24 -121.5 -33l-105.5 -24c-30.667 -7 -55.167 -13.5 -73.5 -19.5s-27.166 -12.667 -26.499 -20s9.66699 -14 27 -20s39.666 -12 66.999 -18s58.5 -12.5 93.5 -19.5s70.667 -15.667 107 -26
s72 -22.833 107 -37.5s66.167 -32.5 93.5 -53.5s49.5 -45.5 66.5 -73.5s25.833 -60.667 26.5 -98c0.666992 -31.333 -5.66602 -58.833 -18.999 -82.5s-31 -43.834 -53 -60.501s-47.167 -30.334 -75.5 -41.001s-57.5 -19 -87.5 -25s-59.833 -10.167 -89.5 -12.5
s-56.5 -3.5 -80.5 -3.5c-93.333 0 -176.166 8.33301 -248.499 25s-135.166 35.667 -188.499 57c-0.666992 27.333 -1.83398 56.333 -3.50098 87s-3 62.334 -4 95.001l-3 99.5c-1 33.667 -1.5 66.834 -1.5 99.501c0 53.333 1.33301 106 4 158s6 101 10 147
c15.333 -3.33301 29.166 -5.83301 41.499 -7.5s23.166 -2.5 32.499 -2.5c4 0 9.66699 0.5 17 1.5s14.5 2.5 21.5 4.5s13 4.66699 18 8s7.5 7.33301 7.5 12l-2 2c0 6.66699 -4.66699 15.5 -14 26.5s-20.666 22.167 -33.999 33.5s-27 21.833 -41 31.5s-26 16.167 -36 19.5
l5.5 79.5c1.66699 23 2.5 41.5 2.5 55.5v19.5c0 5.66699 -0.666992 9.5 -2 11.5c-2 5.33301 -5.66699 10.666 -11 15.999s-11.5 10.166 -18.5 14.499s-14 7.83301 -21 10.5s-13.5 4 -19.5 4c-19.333 0 -34.5 -12.333 -45.5 -37s-19.833 -62.334 -26.5 -113.001
c-20.667 16.667 -38.334 37.167 -53.001 61.5s-22 50.5 -22 78.5c0 32.667 11 61.167 33 85.5s50.5 45.333 85.5 63s74.167 32.5 117.5 44.5s86 21.5 128 28.5s81 12 117 15s64.667 4.5 86 4.5c38 0 77.667 -2.16699 119 -6.5s82.166 -11.666 122.499 -21.999
s78.666 -24.166 114.999 -41.499s68.333 -39.333 96 -66s49.667 -58.167 66 -94.5s24.5 -78.833 24.5 -127.5z" />
    <glyph glyph-name="C" unicode="C" horiz-adv-x="1425" 
d="M1425 428c0 6 -3.33301 11.334 -10 16.001s-12.667 7.66699 -18 9c-10.667 0 -19.5 -4.5 -26.5 -13.5s-16.167 -21.833 -27.5 -38.5c-38 -56 -78 -105.167 -120 -147.5s-87.833 -77.666 -137.5 -105.999s-103.5 -49.5 -161.5 -63.5s-121.667 -21 -191 -21
c-75.333 0 -147.666 13.333 -216.999 40s-130.5 64 -183.5 112s-95.333 105 -127 171s-47.5 138 -47.5 216c0 60 8.66699 120 26 180s41.5 117.833 72.5 173.5s68.167 107.5 111.5 155.5s91 89.667 143 125s107.333 63.166 166 83.499s119 30.5 181 30.5
c26 0 51.667 -2.5 77 -7.5s48 -13.5 68 -25.5s36 -28.167 48 -48.5s18 -45.833 18 -76.5c0 -14 -2.16699 -27.5 -6.5 -40.5s-9.33301 -24.833 -15 -35.5s-11.5 -19.834 -17.5 -27.501l-14 -17.5c-4.66699 -4.66699 -9.16699 -11.334 -13.5 -20.001s-8 -18.5 -11 -29.5
s-5.5 -22.5 -7.5 -34.5s-3 -23 -3 -33c0 -17.333 3.16699 -30.166 9.5 -38.499s18.833 -12.5 37.5 -12.5c6 0 12.833 0.5 20.5 1.5s15.167 3.16699 22.5 6.5c10 5.33301 25.333 16.5 46 33.5s41.167 39 61.5 66s38.166 58.5 53.499 94.5s23 75.333 23 118
c0 47.333 -12.833 85.166 -38.5 113.499s-57.5 50 -95.5 65s-78.667 24.833 -122 29.5s-82.666 7 -117.999 7c-72.667 0 -144 -10.667 -214 -32s-136.5 -50.833 -199.5 -88.5s-121.167 -82.667 -174.5 -135s-99.333 -109.666 -138 -171.999s-69 -128.5 -91 -198.5
s-33 -141.333 -33 -214c0 -106.667 18.167 -200.834 54.5 -282.501s86.166 -150.167 149.499 -205.5s137.833 -97.333 223.5 -126s177.834 -43 276.501 -43c64 0 126.333 6.33301 187 19s117.834 32.334 171.501 59.001s103.167 60.167 148.5 100.5
s84.666 88.5 117.999 144.5c12 19.333 22 38 30 56s14.667 34.333 20 49s9.16602 27.167 11.499 37.5s3.5 17.5 3.5 21.5z" />
    <glyph glyph-name="D" unicode="D" horiz-adv-x="1423" 
d="M1423 852c0 68 -9.1709 129.835 -27.5039 185.502s-44 105.5 -77 149.5s-72.167 82 -117.5 114s-95 58.667 -149 80s-111.167 37.166 -171.5 47.499s-121.833 15.5 -184.5 15.5c-94.667 0 -185.5 -11.333 -272.5 -34s-166.167 -55 -237.5 -97
c-28 -16.667 -58.667 -37.667 -92 -63s-64.666 -53.333 -93.999 -84s-53.666 -63.834 -72.999 -99.501s-29 -72.5 -29 -110.5c0 -15.333 3.83301 -30 11.5 -44s20.167 -21 37.5 -21c10 0 18.667 5.16699 26 15.5s13 19.5 17 27.5c32.667 60 74.167 114.167 124.5 162.5
s105.833 89.333 166.5 123s124.834 59.667 192.501 78s135.167 27.5 202.5 27.5c48 0 96.5 -4.16699 145.5 -12.5s96.167 -20.833 141.5 -37.5s87.833 -37.834 127.5 -63.501s74 -56.167 103 -91.5s52 -75.333 69 -120s25.5 -94.667 25.5 -150
c0 -62.667 -9.16699 -125.667 -27.5 -189s-44.166 -124.166 -77.499 -182.499s-72.833 -112.833 -118.5 -163.5s-96 -94.834 -151 -132.501s-113.333 -67.334 -175 -89.001s-124.834 -32.5 -189.501 -32.5c-31.333 0 -59.333 3 -84 9s-43.667 14 -57 24
c-12 10 -22 26.333 -30 49s-14.333 49.5 -19 80.5s-8 65.5 -10 103.5s-3 77.667 -3 119c0 44 0.833008 89.167 2.5 135.5s3.83398 91.5 6.50098 135.5s5.66699 86.167 9 126.5l9 108.5l7.5 111.5c1.66699 25.667 2.5 44.5 2.5 56.5c0 9.33301 -1.66699 17.5 -5 24.5
s-10.666 10.5 -21.999 10.5c-7.33301 0 -14.5 -1.66699 -21.5 -5s-14.167 -7.66602 -21.5 -12.999c-1.33301 -0.666992 -3.83301 -3 -7.5 -7s-8.33398 -13.167 -14.001 -27.5s-12.167 -35 -19.5 -62s-15.333 -63.833 -24 -110.5c-10.667 -58.667 -19.834 -122 -27.501 -190
s-13.5 -135 -17.5 -201c-2 -26 -3.5 -54.333 -4.5 -85s-1.5 -62 -1.5 -94c0 -38 1.16699 -76.167 3.5 -114.5s6.33301 -74.166 12 -107.499s13.5 -62.833 23.5 -88.5s22.667 -44.834 38 -57.501c17.333 -14.667 43.166 -25.5 77.499 -32.5s73.5 -10.5 117.5 -10.5
c79.333 0 157.833 10.833 235.5 32.5s151.834 52.334 222.501 92.001s136.334 87 197.001 142s113.167 116 157.5 183s79 138.833 104 215.5s37.5 156 37.5 238z" />
    <glyph glyph-name="E" unicode="E" horiz-adv-x="1360" 
d="M1391 1155c0 41.333 -12.3311 77.499 -36.998 108.499s-56.834 57.5 -96.501 79.5s-84.334 40.167 -134.001 54.5s-99 25.666 -148 33.999s-95.5 14.166 -139.5 17.499s-80.333 5 -109 5c-40 0 -85.667 -4 -137 -12s-104 -20 -158 -36s-106.833 -36 -158.5 -60
s-97.834 -52.167 -138.501 -84.5s-73.334 -68.833 -98.001 -109.5s-37 -85.334 -37 -134.001c0 -64 12.833 -120 38.5 -168s59.334 -89.5 101.001 -124.5s89 -64.167 142 -87.5s106.5 -42 160.5 -56c-34 -15.333 -69 -34 -105 -56s-69 -47.167 -99 -75.5
s-54.667 -60 -74 -95s-29 -73.5 -29 -115.5c0 -40.667 8.33301 -76.667 25 -108s39 -58.333 67 -81s59.833 -41.5 95.5 -56.5s72.667 -27 111 -36s76.333 -15.333 114 -19s72.167 -5.5 103.5 -5.5c91.333 0 172.333 9 243 27s131.667 39.667 183 65s93.833 51.5 127.5 78.5
s58.834 49.5 75.501 67.5c16.667 17.333 30 33.833 40 49.5s15 27.167 15 34.5c0 5.33301 -1.5 10.833 -4.5 16.5s-7.5 8.5 -13.5 8.5c-7.33301 0 -16 -3.33301 -26 -10s-23.333 -15 -40 -25c-22.667 -15.333 -51.834 -34 -87.501 -56s-79.167 -43 -130.5 -63
s-110.833 -37 -178.5 -51s-144.834 -21 -231.501 -21c-20.667 0 -43.167 0.666992 -67.5 2s-48.666 4 -72.999 8s-47.833 10 -70.5 18s-42.834 18.833 -60.501 32.5s-31.834 30.667 -42.501 51s-16 44.833 -16 73.5c0 38.667 6.33301 72.5 19 101.5s28.667 54.167 48 75.5
s40.5 40 63.5 56s44.833 30.333 65.5 43c25.333 14.667 45.333 27.667 60 39s22 24.333 22 39v2c0 12.667 -7.66699 22.834 -23 30.501s-37 17.167 -65 28.5c-42.667 17.333 -83.167 36.166 -121.5 56.499s-71.666 44.5 -99.999 72.5s-51 61 -68 99s-26.167 83 -27.5 135
c-0.666992 38.667 7.5 74.334 24.5 107.001s39.833 62.167 68.5 88.5s61.334 49.333 98.001 69s74.667 36.167 114 49.5s78.166 23.333 116.499 30s73.166 10 104.499 10c22 0 49.667 -0.666992 83 -2s68.833 -4.5 106.5 -9.5s75.334 -12.167 113.001 -21.5
s71.667 -21.833 102 -37.5s55 -35.167 74 -58.5s28.833 -51.333 29.5 -84c0 -29.333 -6.66699 -54.666 -20 -75.999s-29 -39.166 -47 -53.499s-36.167 -25.5 -54.5 -33.5s-32.5 -13.667 -42.5 -17c-8 -2.66699 -18.5 -9.16699 -31.5 -19.5s-25.5 -22.166 -37.5 -35.499
s-22.5 -26.833 -31.5 -40.5s-13.5 -24.834 -13.5 -33.501c1.33301 -10.667 8.33301 -18.834 21 -24.501s26.667 -8.5 42 -8.5c14.667 0 35.334 3.83301 62.001 11.5s55.667 18.834 87 33.501s62.833 32.334 94.5 53.001s59.834 44 84.501 70c52 54 78 110.667 78 170z" />
    <glyph glyph-name="F" unicode="F" horiz-adv-x="1135" 
d="M995 1352c0 6 -5.16895 13.8379 -15.502 23.5049s-22.666 19.167 -36.999 28.5s-29.166 17.5 -44.499 24.5s-28 10.833 -38 11.5h-14c-18 0 -43.333 -1 -76 -3s-69.834 -4.83301 -111.501 -8.5l-134 -12l-144 -13.5l-141.5 -13.5l-126.5 -12
c-38.333 -3.66699 -71.5 -6.5 -99.5 -8.5s-48 -3 -60 -3c-18.667 1.33301 -37.334 3.66602 -56.001 6.99902s-37.667 5.66602 -57 6.99902c-4 0 -8.66699 -1.83301 -14 -5.5s-10.166 -8.16699 -14.499 -13.5s-8.16602 -11 -11.499 -17s-5 -11 -5 -15v-2
c0 -10 5 -20.333 15 -31s21.667 -20.167 35 -28.5s26.833 -15.333 40.5 -21s24.5 -8.83398 32.5 -9.50098h21c30.667 0 68.5 1.83301 113.5 5.5s92 8 141 13l145.5 15.5c48 5.33301 90.667 9.66602 128 12.999c24.667 2.66699 52.334 4.66699 83.001 6l94 4
c32 1.33301 63.667 2.5 95 3.5s60 2 86 3s48.333 2.16699 67 3.5s31.334 3 38.001 5c19.333 5.33301 34.666 11.166 45.999 17.499s17.666 14.833 18.999 25.5zM1135 596.005c0.666992 5.33301 -3.49805 12.8389 -12.498 22.5059s-19.833 19.167 -32.5 28.5
s-25.834 17.5 -39.501 24.5s-25.167 10.5 -34.5 10.5c-26.667 0 -54.334 -1.16699 -83.001 -3.5s-57 -4.5 -85 -6.5c1.33301 56 4 110.667 8 164s8 102.666 12 147.999l10.5 120.5c3 35 4.5 62.833 4.5 83.5v19c0 5.33301 -0.666992 9.33301 -2 12
c-2 5.33301 -5.66699 11 -11 17s-11.166 11.333 -17.499 16s-13 8.5 -20 11.5s-13.5 4.5 -19.5 4.5c-27.333 0 -47 -25.167 -59 -75.5s-21 -129.833 -27 -238.5c-4 -70.667 -6 -143.667 -6 -219v-80c-40.667 -4 -82.167 -8.83301 -124.5 -14.5l-127.5 -17
c-42.667 -5.66699 -85.167 -10.334 -127.5 -14.001s-83.833 -5.5 -124.5 -5.5c-6.66699 0 -14.167 0.666992 -22.5 2l-25.5 4l-25 4c-8 1.33301 -15 2 -21 2c-3.33301 0 -7.33301 -1.83301 -12 -5.5s-9.16699 -8.16699 -13.5 -13.5s-8 -11 -11 -17s-4.5 -11.667 -4.5 -17
c-0.666992 -10 3 -20.167 11 -30.5s17.667 -19.833 29 -28.5s23.166 -15.834 35.499 -21.501s22.5 -8.83398 30.5 -9.50098h19c27.333 0 60.5 1.83301 99.5 5.5s80 8.16699 123 13.5l128 16.5c42.333 5.66699 79.833 10.167 112.5 13.5c8 0 16.667 0.333008 26 1
s19 1.66699 29 3c2.66699 -66 6 -130.333 10 -193s8.16699 -119.834 12.5 -171.501s8.5 -95.667 12.5 -132s7.33301 -61.166 10 -74.499c2 -10 5.33301 -17.5 10 -22.5s9.66699 -8.5 15 -10.5s10.333 -3 15 -3s7.66699 -0.333008 9 -1c3.33301 0 9.5 2.16699 18.5 6.5
s15.167 15.166 18.5 32.499c1.33301 4 2 9.66699 2 17v28c0 25.333 -0.5 57.5 -1.5 96.5s-2.16699 82.167 -3.5 129.5s-2.5 97.5 -3.5 150.5s-1.5 105.833 -1.5 158.5c26 1.33301 51.5 2.5 76.5 3.5s47.833 2 68.5 3s38.5 2.16699 53.5 3.5s25.167 2.66602 30.5 3.99902
c17.333 5.33301 31.333 11 42 17s16 15.333 16 28z" />
    <glyph glyph-name="G" unicode="G" horiz-adv-x="1235" 
d="M1174 354c0 58.667 -1.1748 115 -3.50781 169s-5.5 103.667 -9.5 149c1.33301 20.667 2 40.667 2 60v56c0 73.333 -3.33301 138.333 -10 195s-18.334 98.334 -35.001 125.001c-6 11.333 -12.333 19 -19 23s-12.667 6 -18 6c-6 0 -10.5 -1 -13.5 -3
s-4.5 -6.66699 -4.5 -14c1.33301 -4 4 -23.833 8 -59.5s6 -81.834 6 -138.501c0 -54 -3.83301 -112.5 -11.5 -175.5s-20.167 -126.167 -37.5 -189.5s-39.666 -124.166 -66.999 -182.499s-60.666 -110.166 -99.999 -155.499s-85.166 -81.5 -137.499 -108.5
s-111.833 -40.5 -178.5 -40.5c-42 0 -81 6.83301 -117 20.5s-68.833 32.167 -98.5 55.5s-56 50.833 -79 82.5s-42.333 65.5 -58 101.5s-27.5 73.333 -35.5 112s-12 77 -12 115c0 49.333 6.83301 102.666 20.5 159.999s33 114.666 58 171.999s55 112.5 90 165.5
s73.833 100 116.5 141s88.667 73.833 138 98.5s100.333 37 153 37c41.333 0 75.5 -11 102.5 -33s40.5 -54.667 40.5 -98c0 -16 -2.33301 -31.333 -7 -46s-10.167 -28 -16.5 -40s-12.833 -22.333 -19.5 -31s-12 -15.334 -16 -20.001s-8.16699 -12 -12.5 -22
s-8.16602 -21 -11.499 -33s-6 -24 -8 -36s-3 -22.667 -3 -32c0 -10 2 -18.333 6 -25s11.667 -10 23 -10c6 0 12 0.833008 18 2.5s12.333 4.16699 19 7.5c22 12 43.333 30.667 64 56s39 53.5 55 84.5s28.833 62.5 38.5 94.5s14.5 60.333 14.5 85c0 36 -6.5 66.667 -19.5 92
s-30.5 45.666 -52.5 60.999s-47.833 26.5 -77.5 33.5s-61.167 10.5 -94.5 10.5c-68.667 0 -134.667 -13.333 -198 -40s-122 -62.5 -176 -107.5s-103.167 -97.5 -147.5 -157.5s-82.166 -123.333 -113.499 -190s-55.5 -134.667 -72.5 -204s-25.5 -136.333 -25.5 -201
c0 -76 12 -149 36 -219s58.5 -132 103.5 -186s99.5 -97.167 163.5 -129.5s135.667 -48.5 215 -48.5c52 0 102.167 7.66699 150.5 23s93.333 36.5 135 63.5s79.834 59.167 114.501 96.5s64.334 78 89.001 122c-3.33301 -48 -7.33301 -96.333 -12 -145
s-9 -96.334 -13 -143.001s-7.33301 -91.334 -10 -134.001s-4 -82.334 -4 -119.001c0 -24.667 0.666992 -47.667 2 -69s4.33301 -40.666 9 -57.999c2 -11.333 8.5 -20.666 19.5 -27.999s22.167 -11 33.5 -11c2.66699 0 6.33398 0.833008 11.001 2.5
s9.66699 4.33398 15 8.00098s10.333 7.83398 15 12.501s8 10 10 16c4.66699 12.667 9.5 33 14.5 61s9.66699 61.5 14 100.5s8.5 82.333 12.5 130s7.33301 97.834 10 150.501s4.83398 106.667 6.50098 162s2.5 110 2.5 164z" />
    <glyph glyph-name="H" unicode="H" horiz-adv-x="1341" 
d="M1343 604c0 5.33301 -4.1582 12.001 -12.4912 20.001s-18.833 16 -31.5 24s-26.667 15.5 -42 22.5s-29.666 12.167 -42.999 15.5c2.66699 25.333 5 51.833 7 79.5l6 86.5c6 70.667 11.5 141.334 16.5 212.001s7.5 136 7.5 196v10c0 10.667 -0.333008 25.834 -1 45.501
s-2.33398 39.167 -5.00098 58.5s-6.66699 36.166 -12 50.499s-13 21.5 -23 21.5c-4.66699 0 -10.834 -4.66699 -18.501 -14s-15.5 -21 -23.5 -35s-15.833 -29 -23.5 -45s-13.834 -31 -18.501 -45c-4.66699 -12 -9 -35.5 -13 -70.5s-7.66699 -79.333 -11 -133
s-6.16602 -115.667 -8.49902 -186s-4.5 -146.833 -6.5 -229.5c-32 -2 -68.667 -4.66699 -110 -8l-132 -11c-46.667 -4 -94.667 -8.33301 -144 -13l-146.5 -13.5l-139.5 -12c-44.667 -3.66699 -85.334 -6.83398 -122.001 -9.50098c1.33301 32 2 62.333 2 91v85
c0 80 -2.83301 159.833 -8.5 239.5s-17.834 158.834 -36.501 237.501l-8 37.5c-3.33301 15.667 -8 31 -14 46s-13.667 28 -23 39s-21 16.5 -35 16.5c-4.66699 0 -11 -0.5 -19 -1.5s-15.833 -2.83301 -23.5 -5.5s-14.5 -6.16699 -20.5 -10.5s-9.66699 -9.5 -11 -15.5
c0 -2 0.833008 -10.333 2.5 -25s3.5 -32 5.5 -52l15 -126.5c6 -50.333 11.667 -105.833 17 -166.5s10.166 -125 14.499 -193s6.83301 -136.333 7.5 -205c-4 -1.33301 -7.33301 -2 -10 -2h-9c-21.333 0 -42.333 2.16699 -63 6.5s-41.334 6.5 -62.001 6.5
c-4.66699 0 -10.167 -1.83301 -16.5 -5.5s-12.333 -8.16699 -18 -13.5s-10.5 -11 -14.5 -17s-6 -11.333 -6 -16c0 -10.667 5.83301 -21.334 17.5 -32.001s25.167 -20.334 40.5 -29.001s31.166 -15.667 47.499 -21s28.833 -8 37.5 -8h30c9.33301 0 18.666 0.666992 27.999 2
c1.33301 -58.667 2.33301 -116.834 3 -174.501s1.83398 -110 3.50098 -157s3.66699 -86.333 6 -118s5.5 -51.167 9.5 -58.5c2 -8 6.83301 -13.333 14.5 -16s12.5 -4 14.5 -4c3.33301 0 7.33301 0.666992 12 2s9.5 3.33301 14.5 6s9.66699 6.33398 14 11.001
s7.16602 10 8.49902 16c3.33301 14.667 6.66602 38.5 9.99902 71.5s6.16602 72 8.49902 117s4.66602 94.167 6.99902 147.5s4.16602 107.666 5.49902 162.999l113.5 10.5l117 11l111.5 10.5l98 9c24.667 2 51.667 4 81 6s59.5 3.83301 90.5 5.5s62 3.16699 93 4.5
s60.833 2.33301 89.5 3c-1.33301 -26.667 -2 -53.667 -2 -81v-79c0 -42.667 0.333008 -84 1 -124s1.5 -76.833 2.5 -110.5s2.33301 -63.834 4 -90.501s3.5 -48.667 5.5 -66c2 -15.333 8.33301 -26.666 19 -33.999s19.334 -11.666 26.001 -12.999c1.33301 0 4.83301 2 10.5 6
s10.167 10.667 13.5 20c2.66699 8 5.5 23 8.5 45s5.66699 48.833 8 80.5l7.5 104.5c2.66699 38 5.16699 77.167 7.5 117.5s4.5 80.333 6.5 120s3.66699 76.5 5 110.5c30 2 49.333 4 58 6c22.667 5.33301 40.834 11 54.501 17s21.167 14.667 22.5 26z" />
    <glyph glyph-name="I" unicode="I" horiz-adv-x="938" 
d="M938 94c0 10.667 -6.67285 22.1631 -20.0059 34.4961s-28.833 23.666 -46.5 33.999s-35.334 19 -53.001 26s-31.167 10.5 -40.5 10.5c-40 0 -79.833 -3.33301 -119.5 -10l-119.5 -21c-0.666992 50 -2.66699 99.833 -6 149.5s-6.83301 99.167 -10.5 148.5
s-7 98.833 -10 148.5s-4.5 99.5 -4.5 149.5c0 90.667 3.83301 180.334 11.5 269.001s14.834 177.667 21.501 267c10.667 1.33301 27.834 2.5 51.501 3.5s50.167 2.5 79.5 4.5s59.666 4.66699 90.999 8s60 8 86 14s47.333 13.5 64 22.5s25 20.167 25 33.5
c0 10 -6.5 21.167 -19.5 33.5s-28.167 23.833 -45.5 34.5s-34.833 19.5 -52.5 26.5s-31.167 10.5 -40.5 10.5c-54 0 -107.667 -5 -161 -15s-106.166 -21 -158.499 -33s-104.666 -23 -156.999 -33s-104.5 -15 -156.5 -15c-16 0 -31.5 2.33301 -46.5 7s-30.833 7 -47.5 7
c-5.33301 0 -11.166 -2.5 -17.499 -7.5s-12.166 -11 -17.499 -18s-9.66602 -14.167 -12.999 -21.5s-5 -13.666 -5 -18.999c0 -12 4.16699 -24.167 12.5 -36.5s18.5 -23.5 30.5 -33.5s25 -18.167 39 -24.5s27 -9.5 39 -9.5c27.333 0 54.333 1.66699 81 5
s53.167 7.5 79.5 12.5l79 15.5c26.333 5.33301 52.833 10 79.5 14c-20.667 -140.667 -33.334 -281.667 -38.001 -423s-7 -283.666 -7 -426.999c0 -49.333 1.16699 -98.166 3.5 -146.499s10.166 -96.5 23.499 -144.5c-45.333 -8 -90.5 -17.167 -135.5 -27.5
s-90.5 -15.5 -136.5 -15.5c-16.667 0 -32.834 2.5 -48.501 7.5s-31.834 7.5 -48.501 7.5c-5.33301 0 -11.166 -2.5 -17.499 -7.5s-12.166 -11 -17.499 -18s-9.66602 -14.167 -12.999 -21.5s-5 -13.666 -5 -18.999c0 -12 4.16699 -24.167 12.5 -36.5s18.5 -23.5 30.5 -33.5
s24.833 -18.167 38.5 -24.5s26.167 -9.5 37.5 -9.5c34 0 67.833 2.33301 101.5 7s67 10.167 100 16.5l99 19.5c33 6.66699 66.5 12 100.5 16c28.667 3.33301 57.5 5.5 86.5 6.5s57.833 2.33301 86.5 4s57.334 4.16699 86.001 7.5s57 9 85 17l22 7
c8.66699 2.66699 16.834 6 24.501 10s14.167 9 19.5 15s8 13 8 21z" />
    <glyph glyph-name="J" unicode="J" horiz-adv-x="1239" 
d="M1198 651c0 65.333 -6.8291 130.838 -20.4961 196.505s-33.667 128.667 -60 189s-59 116.666 -98 168.999s-83.667 97.833 -134 136.5s-106.333 69 -168 91s-128.167 33 -199.5 33c-51.333 0 -97.5 -8.83301 -138.5 -26.5s-76 -42.334 -105 -74.001s-51.333 -69 -67 -112
s-23.5 -89.5 -23.5 -139.5c0 -64 12.5 -125.5 37.5 -184.5s58.333 -115.333 100 -169s89.667 -103.834 144 -150.501s111 -89.834 170 -129.501s118.167 -75 177.5 -106s114.666 -57.5 165.999 -79.5c-44.667 -74 -95.167 -140 -151.5 -198s-118 -107.333 -185 -148
s-139.333 -71.667 -217 -93s-160.167 -32 -247.5 -32c-15.333 0 -32.5 1.5 -51.5 4.5s-37 8.5 -54 16.5s-31.333 18.5 -43 31.5s-17.5 29.5 -17.5 49.5c0 31.333 10.167 61 30.5 89s46.666 54.167 78.999 78.5s68.666 46.166 108.999 65.499s80.666 36 120.999 50
s78.666 24.667 114.999 32s66.5 11 90.5 11h21c7.33301 0.666992 19.166 3 35.499 7s32.833 9.33301 49.5 16s31.5 14.167 44.5 22.5s19.5 17.166 19.5 26.499c0 10.667 -7.33301 19.667 -22 27s-31.5 13.166 -50.5 17.499s-37.667 7.5 -56 9.5s-30.833 3 -37.5 3
c-38 0 -81 -5.16699 -129 -15.5s-97 -25.166 -147 -44.499s-98.833 -42.666 -146.5 -69.999s-90.167 -57.666 -127.5 -90.999s-67.333 -69.5 -90 -108.5s-34 -80.167 -34 -123.5c0 -34 10 -63.167 30 -87.5s44.833 -44.333 74.5 -60s61.334 -27 95.001 -34
s64.167 -10.5 91.5 -10.5c88 0 174.167 9.33301 258.5 28s164.333 46 240 82s145.334 80.167 209.001 132.5s118.667 112.5 165 180.5s82.5 143.167 108.5 225.5s39 171.166 39 266.499zM1067 614.005c0 -38.667 -3 -78.165 -9 -118.498s-17.333 -78.5 -34 -114.5
c-46.667 21.333 -96.667 47.666 -150 78.999s-106.5 66.5 -159.5 105.5s-103.833 81.5 -152.5 127.5s-91.834 94.5 -129.501 145.5s-67.667 104 -90 159s-33.5 110.833 -33.5 167.5c0 28.667 4.33301 56.334 13 83.001s21.167 50.167 37.5 70.5s36.666 36.666 60.999 48.999
s52.166 18.5 83.499 18.5c54 0 105.5 -12.333 154.5 -37s94.333 -57.334 136 -98.001s79.334 -87.667 113.001 -141s62.334 -108.5 86.001 -165.5s41.834 -114.167 54.501 -171.5s19 -110.333 19 -159z" />
    <glyph glyph-name="K" unicode="K" horiz-adv-x="1174" 
d="M1268 1372c0 9.33301 -4.33203 17.4971 -12.999 24.4971s-18.834 13 -30.501 18s-23.5 8.83301 -35.5 11.5s-21.333 4 -28 4c-10 0 -18.5 -1.5 -25.5 -4.5s-13.333 -6.83301 -19 -11.5s-10.667 -10.167 -15 -16.5s-9.16602 -12.833 -14.499 -19.5
c-108 -130 -220.333 -254.667 -337 -374l-359 -351l-64 -61.5c-21.333 -20.333 -43.666 -39.166 -66.999 -56.499c0 -2.66699 -0.333008 -5 -1 -7s-1 -4 -1 -6c0 -4 0.833008 -8 2.5 -12s3.5 -8 5.5 -12l112.5 -83l110.5 -85c17.333 -12.667 41.666 -31.5 72.999 -56.5
l103.5 -82.5l118.5 -91.5c41.333 -31 80.833 -59.167 118.5 -84.5s72 -46.166 103 -62.499s54.833 -24.5 71.5 -24.5c10 0 19.333 3 28 9s16.167 13.5 22.5 22.5s11.166 18.5 14.499 28.5s5 19.333 5 28c0 8 -9.66699 20.167 -29 36.5s-45 35.333 -77 57
s-68.833 45.167 -110.5 70.5l-129.5 77.5l-133.5 78.5l-122 73c-37 22.667 -69.167 43.167 -96.5 61.5s-46 32.833 -56 43.5l74.5 62.5l116.5 100l142.5 126l152.5 139l146 139c46.667 45.667 88 87.834 124 126.501s64.833 72.5 86.5 101.5s32.5 50.167 32.5 63.5z
M236.001 937.997c0 12.667 -0.664062 32.5 -1.99707 59.5s-3.5 57.5 -6.5 91.5s-6.83301 69.333 -11.5 106s-10.5 70.5 -17.5 101.5s-15.333 57.167 -25 78.5s-20.5 34 -32.5 38h-16c-4.66699 0 -11.167 -0.5 -19.5 -1.5s-16.5 -2.83301 -24.5 -5.5
s-15 -5.83398 -21 -9.50098s-9 -8.5 -9 -14.5c0 -13.333 0.666992 -26.166 2 -38.499l4 -38.5c9.33301 -104 17.166 -208 23.499 -312s9.5 -209 9.5 -315c0 -82.667 -1 -165.167 -3 -247.5s-3 -165.166 -3 -248.499v-42c0 -21.333 0.333008 -43.5 1 -66.5
s1.5 -44.167 2.5 -63.5s2.5 -31 4.5 -35c3.33301 -5.33301 7.83301 -10 13.5 -14s11.5 -6 17.5 -6c10 0 19.667 2.83301 29 8.5s16.666 13.834 21.999 24.501c4 8.66699 8 27.167 12 55.5s7.83301 63.166 11.5 104.499s7.16699 87.5 10.5 138.5s6.5 103.167 9.5 156.5
s5.66699 106.166 8 158.499s4.16602 100.833 5.49902 145.5l3.5 117.5c1 33.667 1.5 58.167 1.5 73.5z" />
    <glyph glyph-name="L" unicode="L" horiz-adv-x="1036" 
d="M1087 68c0 8 -5.33301 16.8281 -16 26.4951s-23.334 18.834 -38.001 27.501s-29.167 15.834 -43.5 21.501s-25.5 8.5 -33.5 8.5c-62 0 -123.667 -3 -185 -9s-122.833 -13 -184.5 -21s-123 -16.5 -184 -25.5s-122.167 -16.5 -183.5 -22.5
c9.33301 76 16.5 151.833 21.5 227.5l15.5 228.5c4 69.333 7.66699 138 11 206s5 136 5 204c0 56.667 -1.83301 112.5 -5.5 167.5s-11.167 109.833 -22.5 164.5c-1.33301 8.66699 -3.66602 20.334 -6.99902 35.001s-7.66602 29.334 -12.999 44.001s-11.5 28 -18.5 40
s-14.833 19.333 -23.5 22h-18c-6 0 -13.5 -0.333008 -22.5 -1s-17.667 -2.33398 -26 -5.00098s-15.666 -6.5 -21.999 -11.5s-9.5 -11.5 -9.5 -19.5c0 -11.333 0.333008 -23 1 -35s1.66699 -24 3 -36c10.667 -105.333 18.5 -210.166 23.5 -314.499s7.5 -209.166 7.5 -314.499
c0 -75.333 -0.666992 -150.166 -2 -224.499s-2 -149.166 -2 -224.499v-79.5c0 -26.333 0.666992 -52.833 2 -79.5c-16.667 1.33301 -32.667 3 -48 5s-30.666 3 -45.999 3c-4 0 -8.5 -2 -13.5 -6s-9.66699 -8.66699 -14 -14s-8 -11 -11 -17s-4.5 -10.667 -4.5 -14
c0 -11.333 4.83301 -22.333 14.5 -33s21.167 -20 34.5 -28s27.166 -14.5 41.499 -19.5s26.166 -7.5 35.499 -7.5c41.333 0 82.5 1.83301 123.5 5.5s82.167 8.33398 123.5 14.001l124 17.5c41.333 6 82.333 11.333 123 16c46 5.33301 92.333 9.16602 139 11.499
s93.334 4.5 140.001 6.5c6 0.666992 15.333 1 28 1s26.667 0.666992 42 2s31.166 3.16602 47.499 5.49902s31.166 5.66602 44.499 9.99902s24.333 9.83301 33 16.5s13 15 13 25z" />
    <glyph glyph-name="M" unicode="M" horiz-adv-x="2189" 
d="M2292 47c0 6 -1.83691 10.8271 -5.50391 14.4941s-8 6.5 -13 8.5s-10.167 3.5 -15.5 4.5s-9.66602 1.5 -13 1.5c-15.333 0 -31.166 -1.66699 -47.5 -5c-16.333 -3.33301 -32.333 -7.16602 -48 -11.499s-30.5 -8.16602 -44.5 -11.499s-26.333 -5 -37 -5
c-5.33301 0 -11.5 1 -18.5 3s-13.667 4.83301 -20 8.5s-11.666 8.33398 -15.999 14.001s-6.5 12.167 -6.5 19.5c0 9.33301 1.5 23.5 4.5 42.5s6.66699 39 11 60l12.5 61c4 19.667 7 34.834 9 45.501c13.333 72.667 24.833 145.667 34.5 219s14.5 147 14.5 221
c0 32.667 -1.16699 72.667 -3.5 120s-7 97 -14 149s-17.167 103.833 -30.5 155.5s-30.666 98 -51.999 139s-47.666 74.167 -78.999 99.5s-68.666 38 -111.999 38c-50.667 0 -97 -13.833 -139 -41.5s-80.167 -64.834 -114.5 -111.501s-65.166 -101 -92.499 -163
s-52.166 -127.333 -74.499 -196s-42.166 -138.667 -59.499 -210l-48 -204.5l-39.5 -180.5c-11.667 -55.333 -23.167 -101.333 -34.5 -138l33 244.5c10.667 81 16 163.167 16 246.5c0 34 -1.5 76.5 -4.5 127.5s-8.33301 104.667 -16 161s-18.5 112.666 -32.5 168.999
s-32 107.166 -54 152.499s-48.5 82 -79.5 110s-67.833 42 -110.5 42c-50 0 -95 -11.833 -135 -35.5s-76 -56 -108 -97s-60.333 -88.833 -85 -143.5s-46.667 -113.167 -66 -175.5s-36.666 -126.666 -51.999 -192.999s-29.166 -131.5 -41.499 -195.5l-34.5 -183
c-10.667 -58 -21.334 -110 -32.001 -156s-22 -84.167 -34 -114.5s-25.333 -49.833 -40 -58.5c-2.66699 56 -7.33398 115.167 -14.001 177.5s-14.834 125 -24.501 188s-20.834 125.167 -33.501 186.5s-26.334 119 -41.001 173c-4 13.333 -10 31.333 -18 54
s-17.667 47.334 -29 74.001s-23.666 53.5 -36.999 80.5s-27.166 51.5 -41.499 73.5s-28.833 40 -43.5 54s-28.667 21 -42 21c-6 0 -14.833 -1.5 -26.5 -4.5s-23 -7 -34 -12s-20.667 -10.833 -29 -17.5s-12.5 -14 -12.5 -22v-2c0 -8 2.66699 -18.833 8 -32.5
s11.5 -28 18.5 -43l21 -43c7 -13.667 12.167 -24.5 15.5 -32.5c46 -112.667 87.167 -225.334 123.5 -338.001s66.833 -228.667 91.5 -348c2 -8 4.5 -19.833 7.5 -35.5l9 -49c3 -17 6 -32.833 9 -47.5s5.5 -24.667 7.5 -30c3.33301 -8 9.16602 -19.667 17.499 -35
s18 -30.666 29 -45.999s22.167 -28.833 33.5 -40.5s21.333 -17.5 30 -17.5c6.66699 0 15.167 1.83301 25.5 5.5s20.833 8.33398 31.5 14.001s20.834 11.5 30.501 17.5s16.834 11.333 21.501 16c8.66699 8.66699 17.667 27.667 27 57s19 66.333 29 111s20.667 95 32 151
l36.5 177l41 188.5c14.333 63.667 29.666 125.5 45.999 185.5s33.833 116.5 52.5 169.5s38.5 99.167 59.5 138.5s43.5 70.5 67.5 93.5s49.333 34.5 76 34.5c23.333 0 43.833 -10.5 61.5 -31.5s33.5 -49 47.5 -84s25.833 -75.5 35.5 -121.5s18 -94 25 -144
s12.5 -100.5 16.5 -151.5s7.16699 -99.167 9.5 -144.5s3.83301 -86 4.5 -122s1 -64.333 1 -85c0 -56 -0.666992 -111.5 -2 -166.5s-2 -110.833 -2 -167.5c0 -12 0.5 -25.5 1.5 -40.5s3.66699 -29.167 8 -42.5s11 -24.666 20 -33.999s21.5 -14 37.5 -14
c24.667 0 45.5 8.5 62.5 25.5s29.833 35.833 38.5 56.5c10.667 26 22.167 64 34.5 114l40.5 171.5l47.5 206.5c17 73.333 35.333 146.333 55 219s40.667 142.5 63 209.5s46.166 126.167 71.499 177.5s52.166 92.333 80.499 123s58.5 46 90.5 46c21.333 0 40.333 -9 57 -27
s31.5 -42.167 44.5 -72.5s24.167 -65.166 33.5 -104.499s17.333 -80.5 24 -123.5s12 -86.333 16 -130s7.16699 -84.834 9.5 -123.501s3.83301 -73.167 4.5 -103.5s1 -53.833 1 -70.5c0 -80.667 -2.33301 -160.667 -7 -240s-7 -159.333 -7 -240
c0 -47.333 13.5 -84.666 40.5 -111.999s65.5 -41 115.5 -41c14 0 28.5 1.33301 43.5 4s29.833 6 44.5 10c5.33301 1.33301 15 5 29 11s28.333 13 43 21s27.834 16.5 39.5 25.5c11.667 9 17.5 17.167 17.5 24.5z" />
    <glyph glyph-name="N" unicode="N" horiz-adv-x="1323" 
d="M1405 6c0 6 -2.00391 11.0029 -6.00391 15.0029s-8.83301 7.16699 -14.5 9.5s-11.667 4 -18 5s-11.833 1.5 -16.5 1.5c-30 0 -59.333 -3.16699 -88 -9.5s-57.334 -9.5 -86.001 -9.5c-6.66699 0 -13.834 1 -21.501 3s-14.667 5 -21 9s-11.5 9 -15.5 15s-6 13 -6 21
c0 3.33301 2.66699 13.833 8 31.5l18 59l19.5 61c6.33301 19 10.166 31.167 11.499 36.5c17.333 58 33 115.167 47 171.5s25.833 112.666 35.5 168.999s17.167 113.166 22.5 170.499s8 116.333 8 177c0 28.667 -0.833008 60.334 -2.5 95.001s-5.33398 70 -11.001 106
s-14.167 71 -25.5 105s-26.333 64.333 -45 91s-41.667 48 -69 64s-60.333 24 -99 24c-50 0 -97.167 -12 -141.5 -36s-85.833 -56.5 -124.5 -97.5s-74.667 -89 -108 -144s-64.666 -113.333 -93.999 -175s-56.5 -125.167 -81.5 -190.5l-70 -190.5l-60 -175
c-18.333 -55 -35.666 -103 -51.999 -144s-31.5 -73.5 -45.5 -97.5s-27.333 -36 -40 -36c-10 0 -15.833 4.33301 -17.5 13s-2.5 16.667 -2.5 24c0 30.667 1.33301 61.5 4 92.5s5.66699 62 9 93s6.33301 62 9 93s4 62.5 4 94.5c0 68.667 -2.83301 138 -8.5 208
s-17.834 138.667 -36.501 206c-2.66699 8.66699 -7 21.5 -13 38.5s-13.167 35.667 -21.5 56s-17.833 41.166 -28.5 62.499s-21.667 40.666 -33 57.999s-23.166 31.5 -35.499 42.5s-24.5 16.5 -36.5 16.5c-8 0 -18 -1 -30 -3s-23.833 -5.16699 -35.5 -9.5
s-21.667 -10 -30 -17s-12.5 -15.5 -12.5 -25.5c0 -2 2.83301 -11.667 8.5 -29l19.5 -57l21 -58.5c6.66699 -18.333 10.667 -29.5 12 -33.5c22.667 -77.333 41.334 -154.833 56.001 -232.5s26 -156.5 34 -236.5c2.66699 -25.333 5.66699 -57.833 9 -97.5
s7.5 -80.334 12.5 -122.001s11 -81.167 18 -118.5s15.167 -66.666 24.5 -87.999c9.33301 -20.667 21.5 -38.834 36.5 -54.501s34.833 -23.5 59.5 -23.5c30.667 0 56.334 8.66699 77.001 26s38 38.666 52 63.999s25.667 52.333 35 81l26 77c11.333 29.333 25 66.833 41 112.5
l54 151l65 173c23.333 60.333 47.666 119.666 72.999 177.999s51.833 113.833 79.5 166.5s55.667 99.167 84 139.5s57 72.333 86 96s57.5 35.5 85.5 35.5c22.667 0 41.834 -8.5 57.501 -25.5s28.667 -38.833 39 -65.5s18.333 -56.5 24 -89.5s9.83398 -65.667 12.501 -98
s4.33398 -62.5 5.00098 -90.5s1 -50.333 1 -67c-1.33301 -104 -7 -206.667 -17 -308s-22.667 -202.666 -38 -303.999l-10.5 -56l-10.5 -60c-3.33301 -20 -6.16602 -39.667 -8.49902 -59s-3.5 -37.666 -3.5 -54.999c0 -21.333 5 -40.166 15 -56.499
s22.833 -29.833 38.5 -40.5s33.334 -18.667 53.001 -24s38.834 -8 57.501 -8c14 0 27.5 0.5 40.5 1.5s26.167 3.16699 39.5 6.5c5.33301 1.33301 15.666 4.5 30.999 9.5s31.333 10.833 48 17.5s31.5 14 44.5 22s19.5 15.667 19.5 23z" />
    <glyph glyph-name="O" unicode="O" horiz-adv-x="1378" 
d="M1348 655c0 46.667 -3.49707 92.1689 -10.4971 136.502s-16.333 86 -28 125s-24.834 74.333 -39.501 106s-29.667 58.167 -45 79.5c-32 46 -61.333 69 -88 69c-5.33301 0 -10.833 -0.833008 -16.5 -2.5s-8.5 -6.16699 -8.5 -13.5c0 -2 0.166992 -3.66699 0.5 -5
s1.5 -3 3.5 -5c3.33301 -4 11.333 -19 24 -45s25.667 -60 39 -102s25.333 -90 36 -144s16 -110.667 16 -170c0 -78.667 -12.333 -153.167 -37 -223.5s-60.334 -131.833 -107.001 -184.5s-103 -94.5 -169 -125.5s-140.667 -46.5 -224 -46.5c-76 0 -146.5 11.833 -211.5 35.5
s-121 57.667 -168 102s-83.833 98 -110.5 161s-40 133.5 -40 211.5c0 52 6.33301 105.167 19 159.5s30.834 107.166 54.501 158.499s52.667 99.833 87 145.5s72.833 85.667 115.5 120s89.5 61.5 140.5 81.5s105.167 30 162.5 30c17.333 0 36.5 -2 57.5 -6
s40.5 -10.667 58.5 -20s33 -21.5 45 -36.5s18 -33.167 18 -54.5c0 -16.667 -4 -32.667 -12 -48s-17.667 -30.666 -29 -45.999c-4.66699 -7.33301 -8.33398 -18 -11.001 -32s-4 -28.667 -4 -44c0 -6.66699 0.333008 -14.5 1 -23.5s2.16699 -17.5 4.5 -25.5
s6.16602 -14.833 11.499 -20.5s12.666 -8.5 21.999 -8.5c8.66699 0 17.334 1.83301 26.001 5.5s17 8.16699 25 13.5c10 7.33301 21.833 19.833 35.5 37.5s26.667 38.667 39 63s22.833 50.5 31.5 78.5s13 55.667 13 83v12c0 35.333 -9.16699 64.833 -27.5 88.5
s-41.5 42.834 -69.5 57.501s-58.167 25 -90.5 31s-62.5 9 -90.5 9c-69.333 0 -136.5 -11.5 -201.5 -34.5s-125.833 -54.333 -182.5 -94s-108.5 -86.334 -155.5 -140.001s-87.333 -111.334 -121 -173.001s-59.667 -125.834 -78 -192.501s-27.5 -133 -27.5 -199
c0 -90.667 16.5 -174.167 49.5 -250.5s78.333 -142 136 -197s125.167 -98 202.5 -129s160.333 -46.5 249 -46.5c95.333 0 184.333 18 267 54s154.667 85 216 147s109.5 134.833 144.5 218.5s52.5 173.167 52.5 268.5z" />
    <glyph glyph-name="P" unicode="P" horiz-adv-x="1368" 
d="M1409 1004c0 59.333 -17.833 115.336 -53.5 168.003s-85.834 98.834 -150.501 138.501s-142.5 71.167 -233.5 94.5s-192.167 35 -303.5 35c-105.333 0 -200.5 -9.66699 -285.5 -29s-157.333 -44.666 -217 -75.999s-105.5 -67 -137.5 -107s-48 -80.667 -48 -122
c0 -36 8.66699 -69.667 26 -101s39.5 -60 66.5 -86s56.5 -48.833 88.5 -68.5s63 -36.167 93 -49.5c-1.33301 -12.667 -2 -24.667 -2 -36v-36c0 -50.667 1 -102.834 3 -156.501s4.66699 -106.5 8 -158.5s7 -102 11 -150s8.16699 -91.5 12.5 -130.5l11.5 -100
c3.33301 -27.667 6.33301 -47.167 9 -58.5c4 -14 11 -22.833 21 -26.5s18 -5.5 24 -5.5c11.333 0 21.5 2.66699 30.5 8s15.167 14 18.5 26v27c0 19.333 -0.833008 45.166 -2.5 77.499l-5.5 109c-2 40.333 -3.83301 83.666 -5.5 129.999s-2.5 92.5 -2.5 138.5v42.5
c0 14.333 0.666992 28.833 2 43.5c1.33301 36 2.83301 71.5 4.5 106.5s4.16699 69.167 7.5 102.5h11h12c12 0 23.5 2.83301 34.5 8.5s16.5 12.167 16.5 19.5l-2 2c0 8.66699 -6.5 21 -19.5 37s-27.5 31 -43.5 45c5.33301 52 9.66602 98.5 12.999 139.5s5 73.167 5 96.5
c0 9.33301 -0.166992 17 -0.5 23s-1.5 10 -3.5 12c-0.666992 3.33301 -3.16699 7.33301 -7.5 12s-9.33301 9.16699 -15 13.5s-12 8 -19 11s-13.833 4.5 -20.5 4.5h-2c-25.333 1.33301 -45.5 -17 -60.5 -55s-26.833 -97.667 -35.5 -179c-30.667 19.333 -56.334 44 -77.001 74
s-31 64 -31 102c0 34 13 66 39 96s61.333 56.167 106 78.5s96.834 39.833 156.501 52.5s122.834 19 189.501 19c44.667 0 90 -3.16699 136 -9.5s90.667 -16.166 134 -29.499s84.166 -30 122.499 -50s71.833 -43.667 100.5 -71s51.5 -58.5 68.5 -93.5
s25.833 -74.167 26.5 -117.5c0.666992 -58 -9.66602 -108.5 -30.999 -151.5s-49.666 -80.167 -84.999 -111.5s-75.666 -57.333 -120.999 -78s-91.833 -37.834 -139.5 -51.501s-94.167 -24.834 -139.5 -33.501s-85.833 -16 -121.5 -22s-64.334 -11.833 -86.001 -17.5
s-32.5 -12.834 -32.5 -21.501c0 -3.33301 1.5 -6.16602 4.5 -8.49902s6.83301 -4 11.5 -5s9.5 -1.66699 14.5 -2s9.83301 -0.5 14.5 -0.5c51.333 0 109 3 173 9s128.833 16.5 194.5 31.5s129.667 34.833 192 59.5s117.833 56 166.5 94s87.667 83.167 117 135.5
s44 113.166 44 182.499z" />
    <glyph glyph-name="Q" unicode="Q" horiz-adv-x="1378" 
d="M1348 655c0 46.667 -3.49512 92.165 -10.4951 136.498s-16.333 86 -28 125s-24.834 74.333 -39.501 106s-29.667 58.167 -45 79.5c-32 46 -60.667 69 -86 69c-6.66699 0 -12.834 -1.16699 -18.501 -3.5s-8.5 -7.16602 -8.5 -14.499
c0 -1.33301 0.166992 -2.66602 0.5 -3.99902s1.5 -2.66602 3.5 -3.99902c4 -4 12.333 -19 25 -45s25.667 -60 39 -102s25.166 -90 35.499 -144s15.5 -110.667 15.5 -170c0 -94.667 -17.167 -180.834 -51.5 -258.501s-87.5 -148.5 -159.5 -212.5l-14 -12
c-1.33301 6 -2.5 12 -3.5 18s-2.16699 12.333 -3.5 19c-5.33301 26 -16 53.167 -32 81.5s-35.167 54.333 -57.5 78s-47.5 43.167 -75.5 58.5s-56.667 23 -86 23c-7.33301 0 -15.333 -1.16699 -24 -3.5s-16.667 -5.83301 -24 -10.5s-13.5 -10.334 -18.5 -17.001
s-7.5 -14 -7.5 -22c0 -11.333 2.33301 -20.5 7 -27.5s10.834 -13 18.501 -18s16 -9.33301 25 -13s17.5 -7.5 25.5 -11.5c13.333 -5.33301 26.666 -11.333 39.999 -18s25.666 -15.167 36.999 -25.5s20.833 -23 28.5 -38s12.5 -33.5 14.5 -55.5c1.33301 -14.667 2 -29 2 -43
s0.666992 -28.333 2 -43c-28.667 -9.33301 -58 -16.5 -88 -21.5s-60.667 -7.5 -92 -7.5c-76.667 0 -147.334 12 -212.001 36s-120.334 58.167 -167.001 102.5s-83.167 97.833 -109.5 160.5s-39.5 133 -39.5 211c0 52 6.33301 105.333 19 160s30.834 107.667 54.501 159
s52.667 99.833 87 145.5s72.833 85.5 115.5 119.5s89.5 61 140.5 81s105.167 30 162.5 30c17.333 0 36.333 -2 57 -6s39.834 -10.667 57.501 -20s32.5 -21.5 44.5 -36.5s18 -33.167 18 -54.5c0 -16.667 -4 -32.667 -12 -48s-17.667 -30.666 -29 -45.999
c-4.66699 -6.66699 -8.33398 -16.667 -11.001 -30s-4 -27.333 -4 -42c0 -7.33301 0.333008 -15.666 1 -24.999s2.33398 -18 5.00098 -26s6.66699 -14.833 12 -20.5s13 -8.5 23 -8.5c7.33301 0 15.5 1.5 24.5 4.5s17.167 7.16699 24.5 12.5
c10.667 7.33301 22.834 19.833 36.501 37.5s26.667 38.667 39 63s22.666 50.5 30.999 78.5s12.5 55.667 12.5 83v12c0 35.333 -9.16699 64.833 -27.5 88.5s-41.333 42.834 -69 57.501s-57.667 25 -90 31s-62.833 9 -91.5 9c-68.667 0 -135.334 -11.5 -200.001 -34.5
s-125.5 -54.333 -182.5 -94s-109 -86.334 -156 -140.001s-87.333 -111.334 -121 -173.001s-59.834 -125.834 -78.501 -192.501s-28 -133 -28 -199c0 -90 16.5 -173 49.5 -249s78 -141.667 135 -197s124.167 -98.666 201.5 -129.999s160.333 -47 249 -47
c34.667 0 69.167 3 103.5 9s67.833 14 100.5 24c-1.33301 -11.333 -2 -22.5 -2 -33.5v-32.5c0 -45.333 2.66699 -90 8 -134s13 -88 23 -132c9.33301 -40 19.333 -69.5 30 -88.5s23.334 -28.5 38.001 -28.5c9.33301 0 18.5 1.83301 27.5 5.5s17.167 8.66699 24.5 15
s13.333 13.666 18 21.999s7 17.5 7 27.5c0 3.33301 -0.166992 7.83301 -0.5 13.5s-1.5 16.167 -3.5 31.5c-9.33301 54.667 -16 109.667 -20 165s-6 111 -6 167v65c55.333 36 103.833 74.167 145.5 114.5s76.5 84.5 104.5 132.5s49 100.333 63 157s21 119.334 21 188.001z
" />
    <glyph glyph-name="R" unicode="R" horiz-adv-x="1346" 
d="M1366 1010c0 73.333 -12.6699 136.163 -38.0029 188.496s-59.833 95.333 -103.5 129s-95 58.5 -154 74.5s-122.167 24.333 -189.5 25c-51.333 0.666992 -100.5 -6.5 -147.5 -21.5s-91.167 -35.833 -132.5 -62.5s-80.166 -57.834 -116.499 -93.501
s-69.666 -73.834 -99.999 -114.501s-57.833 -83.167 -82.5 -127.5s-46 -87.833 -64 -130.5c-2 25.333 -4.33301 51.333 -7 78s-5.83398 53.334 -9.50098 80.001s-7.5 53 -11.5 79s-8.33301 50.667 -13 74c-11.333 55.333 -21.833 95.166 -31.5 119.499
s-17.834 37.833 -24.501 40.5c-5.33301 1.33301 -11.666 2.66602 -18.999 3.99902s-15.333 2 -24 2c-6 0 -13.667 -1.16699 -23 -3.5s-14 -8.16602 -14 -17.499c0 -3.33301 1 -10.666 3 -21.999s4 -25.666 6 -42.999c2.66699 -24.667 5.66699 -54.167 9 -88.5l11 -114
c4 -41.667 8 -86.167 12 -133.5s7.66699 -96 11 -146s6.16602 -102.333 8.49902 -157s3.5 -110.667 3.5 -168c0 -52.667 -1 -105 -3 -157s-3 -104.333 -3 -157v-62.5c0 -21 0.666992 -45.167 2 -72.5c1.33301 -3.33301 6.16602 -6.5 14.499 -9.5s17.5 -5.5 27.5 -7.5
s19.833 -3.66699 29.5 -5s16.5 -2 20.5 -2c21.333 0 37.666 4.66699 48.999 14c0 46.667 0.833008 101.667 2.5 165s5.16699 130.833 10.5 202.5s13.333 145.5 24 221.5s25.334 150 44.001 222s42.167 140 70.5 204s63 120 104 168s88.667 86 143 114s116.833 42 187.5 42
c57.333 0 107.5 -9 150.5 -27s79 -43 108 -75s50.833 -70 65.5 -114s22 -92 22 -144c0 -62 -12 -117.167 -36 -165.5s-56.167 -90.666 -96.5 -126.999s-86.666 -67.333 -138.999 -93s-106.666 -46.834 -162.999 -63.501s-112.833 -29.667 -169.5 -39
s-109.334 -16 -158.001 -20l-2 -8c0 -3.33301 0.833008 -8.16602 2.5 -14.499s3.5 -10.5 5.5 -12.5l44 -30.5l83 -59l103 -74l105 -75.5l88.5 -64l53.5 -39l41 -30.5l54.5 -40c19.667 -14.333 40.334 -28.666 62.001 -42.999s42.834 -27.333 63.501 -39
s40.334 -21.167 59.001 -28.5s34.667 -11 48 -11c10 0 18.333 2.33301 25 7s12.334 10.667 17.001 18s8 15.5 10 24.5s3 17.833 3 26.5s-8.16699 20.334 -24.5 35.001s-37 30.667 -62 48s-52.5 35 -82.5 53l-86 50l-72 39.5l-41 21.5c-50 26.667 -97 53 -141 79l-116 70.5
l-80.5 51.5c-20.333 13.333 -31.5 21 -33.5 23h8c52 0 107.833 5.16699 167.5 15.5s119.167 25.666 178.5 45.999s116.166 46 170.499 77s102.5 67.333 144.5 109s75.5 88.334 100.5 140.001s37.5 108.834 37.5 171.501z" />
    <glyph glyph-name="S" unicode="S" horiz-adv-x="1296" 
d="M1296 1151c0 42.667 -11.168 79.668 -33.501 111.001s-51.666 58.5 -87.999 81.5s-77.333 41.833 -123 56.5s-91.5 26.334 -137.5 35.001s-90 14.667 -132 18s-78 5 -108 5c-42 0 -88.833 -4.66699 -140.5 -14s-104 -23 -157 -41s-104.5 -40.333 -154.5 -67
s-94.5 -57.5 -133.5 -92.5s-70.333 -74.167 -94 -117.5s-35.5 -90.333 -35.5 -141c0 -42.667 7.5 -80.667 22.5 -114s35.833 -62.666 62.5 -87.999s58 -47.666 94 -66.999s75 -36.5 117 -51.5s86.167 -28.333 132.5 -40l138.5 -34.5c65.333 -16 128.833 -32.5 190.5 -49.5
s116.334 -37.667 164.001 -62s85.834 -54.166 114.501 -89.499s43 -79 43 -131c0 -31.333 -7.66699 -57.833 -23 -79.5s-34.5 -39.5 -57.5 -53.5s-48.167 -24.833 -75.5 -32.5s-52.666 -13.334 -75.999 -17.001s-42.833 -5.83398 -58.5 -6.50098s-23.834 -1 -24.501 -1
c-81.333 0 -154.333 7 -219 21s-121.834 31 -171.501 51s-92.167 40.667 -127.5 62l-88 54c-16.667 11.333 -29.5 20.333 -38.5 27s-16.833 10 -23.5 10c-7.33301 0 -12.166 -2.83301 -14.499 -8.5s-3.5 -11.834 -3.5 -18.501c0 -4.66699 3.5 -12.667 10.5 -24
s17.167 -24.833 30.5 -40.5s30.166 -32.667 50.499 -51s43.833 -37.166 70.5 -56.499c24 -16 52.667 -32.667 86 -50s71.166 -33 113.499 -47s89.166 -25.5 140.499 -34.5s107.333 -13.5 168 -13.5c32 0 66.167 2.16699 102.5 6.5s72.166 11.666 107.499 21.999
s69.5 23.5 102.5 39.5s61.833 35.833 86.5 59.5s44.5 51.167 59.5 82.5s22.5 67 22.5 107c0 42.667 -7.33301 80.167 -22 112.5s-35 60.833 -61 85.5s-56.667 46.167 -92 64.5s-73.5 34.666 -114.5 48.999s-84 27 -129 38s-90.5 21.5 -136.5 31.5l-100 22.5
c-37.333 8.33301 -75 18.333 -113 30s-75.167 25.667 -111.5 42s-68.666 35.833 -96.999 58.5s-51.166 49.167 -68.499 79.5s-26 65.5 -26 105.5c0 40.667 8 78.5 24 113.5s37.5 66.833 64.5 95.5s58.167 54 93.5 76s72.333 40.667 111 56s77.667 26.833 117 34.5
s76.666 11.5 111.999 11.5c73.333 0 139.333 -5 198 -15s108.5 -24.167 149.5 -42.5s72.5 -40.833 94.5 -67.5s33 -56.667 33 -90s-6.66699 -62 -20 -86s-29 -44 -47 -60s-36.167 -28.5 -54.5 -37.5s-32.5 -15.5 -42.5 -19.5
c-8.66699 -2.66699 -19.667 -9.83398 -33 -21.501s-26.166 -24.5 -38.499 -38.5s-22.833 -28 -31.5 -42s-13 -25 -13 -33c0 -11.333 6.33301 -20 19 -26s26.667 -9 42 -9c13.333 0 32.5 3.83301 57.5 11.5s52.333 18.834 82 33.501s60 32.667 91 54
s59.167 45.666 84.5 72.999s46 57.333 62 90s24 67.667 24 105z" />
    <glyph glyph-name="T" unicode="T" horiz-adv-x="1016" 
d="M985 1319c0 4 -0.667969 6.66699 -2.00098 8c0 2 -0.333008 4 -1 6s-1.66699 4.66699 -3 8c0 4.66699 0.666992 7.66699 2 9c0 8.66699 -5.66699 18.5 -17 29.5s-24.666 21.5 -39.999 31.5s-30.333 18.333 -45 25s-25.667 10 -33 10h-27
c-70.667 0 -141.167 -4 -211.5 -12s-140.666 -16.667 -210.999 -26s-140.666 -18 -210.999 -26s-141.166 -12 -212.499 -12c-18 0 -35.833 2.33301 -53.5 7s-35.834 7 -54.501 7c-4.66699 0 -9.83398 -2.16699 -15.501 -6.5s-11 -9.5 -16 -15.5s-9.16699 -12.333 -12.5 -19
s-5 -12.667 -5 -18c0 -10 4.83301 -20.833 14.5 -32.5s21.167 -22.334 34.5 -32.001s27 -17.667 41 -24s25.667 -9.5 35 -9.5h16c85.333 0 170.166 5.66699 254.499 17s168.833 21.333 253.5 30c62 6 123.833 9.83301 185.5 11.5s123.5 4.5 185.5 8.5
c-8.66699 -25.333 -16.834 -56.333 -24.501 -93l-27.5 -132c-10.667 -54.667 -20.667 -115.167 -30 -181.5s-17.833 -134.166 -25.5 -203.499s-14.5 -138.5 -20.5 -207.5s-11.167 -133.333 -15.5 -193s-7.5 -112.834 -9.5 -159.501s-3 -82.667 -3 -108v-24
c1.33301 -15.333 5.83301 -27.666 13.5 -36.999s18.834 -14 33.501 -14c11.333 0 21.166 3.33301 29.499 10s14.166 14.667 17.499 24c4 14.667 8.66699 44.167 14 88.5l19 165.5c16.667 150.667 35.834 298.667 57.501 444s48.834 292.333 81.501 441l28 130
c7.33301 34.667 11 59.667 11 75z" />
    <glyph glyph-name="U" unicode="U" horiz-adv-x="1458" 
d="M1427 59c0 5.33301 -3.33105 20.8281 -9.99805 46.4951s-15 59.834 -25 102.501s-21 93.167 -33 151.5s-23.333 122.833 -34 193.5c-6.66699 42 -12.167 86.5 -16.5 133.5s-8.16602 94.5 -11.499 142.5s-7 95.5 -11 142.5s-8.66699 91.333 -14 133
s-11.833 79.667 -19.5 114s-17.5 63.166 -29.5 86.499c-11.333 22.667 -25.333 39.834 -42 51.501s-34.334 17.5 -53.001 17.5h-2h-2c-25.333 0 -48.666 -7.5 -69.999 -22.5s-36.666 -34.833 -45.999 -59.5c-12 -34 -21.5 -77.833 -28.5 -131.5
s-13.5 -112.834 -19.5 -177.501l-19.5 -204c-7 -71.333 -16.167 -141.833 -27.5 -211.5s-25.833 -136 -43.5 -199s-40.334 -118.5 -68.001 -166.5s-61.5 -86.167 -101.5 -114.5s-87.667 -42.5 -143 -42.5c-52.667 0 -97.667 14.333 -135 43s-68.333 66.334 -93 113.001
s-44.167 99.334 -58.5 158.001s-25.166 117.834 -32.499 177.501s-12 117 -14 172s-3 102.167 -3 141.5s0.333008 78.333 1 117s1.33398 75.167 2.00098 109.5s1.33398 66.166 2.00098 95.499s1 54.333 1 75v30.5c0 9 -0.666992 16.5 -2 22.5
c-2 17.333 -7.66699 33.166 -17 47.499s-21 26.5 -35 36.5s-30 17.667 -48 23s-37 8 -57 8c-6.66699 0 -17.167 -1.33301 -31.5 -4s-30 -6.16699 -47 -10.5s-34.667 -9.66602 -53 -15.999s-34.833 -13.333 -49.5 -21s-26.834 -15.5 -36.501 -23.5s-14.5 -16.333 -14.5 -25
c0 -5.33301 1.83301 -9.66602 5.5 -12.999s8 -6 13 -8s10.167 -3.5 15.5 -4.5s9.66602 -1.5 12.999 -1.5c14.667 0 30.167 1.83301 46.5 5.5s32.666 7.66699 48.999 12s32.333 8.33301 48 12s30.834 5.5 45.501 5.5c6.66699 0 13.667 -0.833008 21 -2.5
s14.166 -4.16699 20.499 -7.5s11.5 -7.66602 15.5 -12.999s6 -12 6 -20v-2c0 -6.66699 -2 -21 -6 -43l-15 -82c-6 -32.667 -12.333 -69.334 -19 -110.001s-13 -83.167 -19 -127.5s-11 -89.333 -15 -135s-6 -89.5 -6 -131.5c0 -46 2.5 -95.333 7.5 -148s13.667 -105 26 -157
s29.166 -102.167 50.499 -150.5s48 -90.833 80 -127.5s70 -66 114 -88s95.333 -33 154 -33c7.33301 0 14.5 0.333008 21.5 1s14.167 1 21.5 1c66.667 6 125 23 175 51s93.167 64 129.5 108s66.833 94.333 91.5 151s45.167 116.334 61.5 179.001s29.166 126.5 38.499 191.5
s16.666 128.333 21.999 190s9.83301 119.667 13.5 174s8 101.833 13 142.5s11.333 73 19 97s18.5 36.333 32.5 37h2c5.33301 0.666992 9.33301 -0.833008 12 -4.5s4.66699 -8.33398 6 -14.001s2.16602 -11.5 2.49902 -17.5s0.5 -11 0.5 -15v-7
c0 -38 -3.5 -93.5 -10.5 -166.5s-10.5 -162.167 -10.5 -267.5c0 -90.667 5 -191.667 15 -303c4 -35.333 9.66699 -71.333 17 -108s15.833 -72.334 25.5 -107.001s20.167 -67.5 31.5 -98.5s23 -58 35 -81s23.667 -41.167 35 -54.5s22 -20 32 -20
c11.333 0 23.333 1.33301 36 4s24.334 6.33398 35.001 11.001s19.5 10.334 26.5 17.001s10.5 14.334 10.5 23.001z" />
    <glyph glyph-name="V" unicode="V" horiz-adv-x="1163" 
d="M1204 1391c0 9.33301 -3.66602 16.335 -10.999 21.002s-15.333 7 -24 7c-7.33301 0 -15.333 -1.16699 -24 -3.5s-16.334 -7.16602 -23.001 -14.499c-19.333 -25.333 -41 -58 -65 -98s-49.333 -84.833 -76 -134.5l-82.5 -159.5l-84.5 -174.5l-81 -179l-72.5 -173
c-22.333 -55.667 -42.333 -107.834 -60 -156.501s-31.5 -91.667 -41.5 -129c-48 140.667 -101.167 279.667 -159.5 417l-180.5 410l-54.5 120l-50.5 107l-44 87.5c-13.333 25.667 -25 46.5 -35 62.5c-7.33301 12 -16.5 20.5 -27.5 25.5s-20.167 7.5 -27.5 7.5
s-12.666 -3.33301 -15.999 -10s-5 -13 -5 -19c0 -16.667 5 -40.667 15 -72s23.333 -68.333 40 -111l58 -143l69.5 -168l73.5 -186.5c24.667 -65 48 -131.167 70 -198.5c3.33301 -9.33301 8.5 -24.833 15.5 -46.5s15.667 -46.834 26 -75.501l34.5 -93l39.5 -100
c13.667 -33.333 27.667 -65.666 42 -96.999s28.5 -58.833 42.5 -82.5s27.333 -42.667 40 -57s24 -21.5 34 -21.5c7.33301 0 14.166 -0.666992 20.499 -2s12.5 -2 18.5 -2h9c2.66699 0 5 0.666992 7 2c6.66699 1.33301 11.667 3.16602 15 5.49902s6 5.16602 8 8.49902
c2 2 5.5 10.333 10.5 25s11.167 31.667 18.5 51l45 134.5l62 176.5l76.5 201c27.667 70 57.167 139.667 88.5 209l60 134l61 135.5l56 127l46 108.5c13.333 32 23.833 58.667 31.5 80s11.5 35.333 11.5 42v2z" />
    <glyph glyph-name="W" unicode="W" horiz-adv-x="1810" 
d="M1780 1354c0 31.333 -9.6709 46.9951 -29.0039 46.9951c-6 0 -13.5 -1.5 -22.5 -4.5s-17.833 -7.16699 -26.5 -12.5s-16 -11.833 -22 -19.5s-9.66699 -16.167 -11 -25.5c-2 -23.333 -4.83301 -59.666 -8.5 -108.999s-8.33398 -106.166 -14.001 -170.499
s-12.5 -133.666 -20.5 -207.999s-17.333 -148.666 -28 -222.999s-23 -145.666 -37 -213.999s-30.167 -128.833 -48.5 -181.5s-38.5 -94.834 -60.5 -126.501s-46.667 -47.5 -74 -47.5c-30.667 0 -58.667 15.833 -84 47.5s-48.333 73.834 -69 126.501s-39 113.334 -55 182.001
s-30.333 139.834 -43 213.501s-23.834 147.167 -33.501 220.5s-18 141.333 -25 204l-19 163.5c-5.66699 46.333 -10.834 79.166 -15.501 98.499c-2 16.667 -6 31.667 -12 45c-5.33301 11.333 -12.333 21.666 -21 30.999s-20.667 14 -36 14
c-25.333 0 -46.166 -7.83301 -62.499 -23.5s-27.166 -35.167 -32.499 -58.5c-6 -25.333 -12.167 -63 -18.5 -113s-13.166 -107.167 -20.499 -171.5s-15.666 -133.666 -24.999 -207.999s-20 -148.333 -32 -222s-25.667 -144.334 -41 -212.001s-32.833 -127.667 -52.5 -180
s-41.667 -94 -66 -125s-51.833 -46.5 -82.5 -46.5c-23.333 0 -45 10.5 -65 31.5s-38.167 47.833 -54.5 80.5s-31.166 69.167 -44.499 109.5s-24.833 79.666 -34.5 117.999s-17.834 73.5 -24.501 105.5s-12 56.333 -16 73c-9.33301 42 -17.333 87.833 -24 137.5
s-12.667 100.167 -18 151.5s-9.83301 101.833 -13.5 151.5l-10 136.5c-3 41.333 -5.83301 77.333 -8.5 108s-5.33398 52.334 -8.00098 65.001c-4 17.333 -11.167 33 -21.5 47s-23 26 -38 36s-31.333 17.667 -49 23s-36.167 8 -55.5 8c-6.66699 0 -16.5 -1.16699 -29.5 -3.5
s-27.333 -5.83301 -43 -10.5s-31.667 -10 -48 -16s-31.166 -12.667 -44.499 -20s-24.333 -15 -33 -23s-13 -16.333 -13 -25v-2c2 -6 7.16699 -12 15.5 -18s19.5 -9 33.5 -9c15.333 0 30.5 2 45.5 6s29.833 8.16699 44.5 12.5l43.5 12.5c14.333 4 28.5 6 42.5 6
c6.66699 0 13.834 -1.16699 21.501 -3.5s14.834 -5.66602 21.501 -9.99902s12.167 -9.66602 16.5 -15.999s6.5 -13.5 6.5 -21.5c0 -10 -1.16699 -29 -3.5 -57s-5 -61.833 -8 -101.5s-5.66699 -83.334 -8 -131.001s-3.5 -96.5 -3.5 -146.5
c0 -30.667 1.33301 -67.167 4 -109.5s7 -87.5 13 -135.5s14 -97.667 24 -149s22.167 -101.333 36.5 -150s31 -94.667 50 -138s40.833 -81.5 65.5 -114.5s52.167 -59 82.5 -78s64.166 -28.5 101.499 -28.5c52 0 97.667 14.333 137 43s73.5 67.167 102.5 115.5
s53.833 104.333 74.5 168s38.167 130.5 52.5 200.5s26 141 35 213s16.833 140.667 23.5 206s12.5 124.833 17.5 178.5s10.5 97.167 16.5 130.5c0 -32 -0.666992 -68 -2 -108s-2 -83.667 -2 -131c0 -30.667 1.5 -68.667 4.5 -114s7.83301 -94.666 14.5 -147.999
s15.167 -108.833 25.5 -166.5s23.166 -114.334 38.499 -170.001s32.833 -108.5 52.5 -158.5s42.334 -93.833 68.001 -131.5s54.167 -67.667 85.5 -90s66 -33.5 104 -33.5c48 0 90.667 16.167 128 48.5s70.333 75.833 99 130.5s53.5 117.667 74.5 189s39 146 54 224
s27.5 156.667 37.5 236s18.333 154.333 25 225s12.334 134.167 17.001 190.5s9.33398 100.5 14.001 132.5c1.33301 5.33301 2 10.166 2 14.499v12.5z" />
    <glyph glyph-name="X" unicode="X" horiz-adv-x="1032" 
d="M1073 -18c0 8 -2.00391 16 -6.00391 24c-8 17.333 -17.167 34.5 -27.5 51.5s-21.5 33.833 -33.5 50.5l-36.5 49l-35.5 48l-161.5 222.5l-162.5 219.5l105 142l102 144c33.333 48.667 65.333 98 96 148s59.334 101.333 86.001 154l17 33
c6.66699 13.333 13 27.166 19 41.499s11.167 28.333 15.5 42s6.5 25.167 6.5 34.5c0 8.66699 -2.5 15.667 -7.5 21s-11.333 9.5 -19 12.5s-15.667 5 -24 6s-15.5 1.5 -21.5 1.5c-9.33301 0 -17.166 -1.16699 -23.499 -3.5s-12.166 -6.5 -17.499 -12.5
c-10 -10 -19.167 -22.667 -27.5 -38s-16.166 -28.666 -23.499 -39.999l-180 -286.5l-189 -280.5l-40 58l-63 90.5l-78.5 111l-86.5 119l-87 114c-28.667 36.333 -55.5 68.666 -80.5 96.999s-47.167 50.833 -66.5 67.5s-34.333 25 -45 25
c-7.33301 0 -12.166 -2.33301 -14.499 -7s-3.5 -10.667 -3.5 -18c0 -10 1.66699 -22 5 -36s7.33301 -28.333 12 -43s9.66699 -28.834 15 -42.501s10.333 -25.5 15 -35.5c18.667 -39.333 41.167 -76.666 67.5 -111.999l78.5 -105l145.5 -199l148.5 -195l-39 -53l-62 -84
l-76.5 -103.5l-82.5 -112.5l-79 -110.5l-67.5 -97c-19.667 -29 -35.334 -53.333 -47.001 -73s-17.5 -32.167 -17.5 -37.5c0 -12.667 3.33301 -22 10 -28s15.667 -9 27 -9s20.833 1.5 28.5 4.5s16.167 8.16699 25.5 15.5c22.667 18.667 44.167 40.167 64.5 64.5l59.5 70.5
c60 72.667 117.5 146 172.5 220l167.5 223l74.5 -94.5l73.5 -94.5l69.5 -90.5l77.5 -101l80.5 -97c27 -31 52.833 -57.5 77.5 -79.5c10.667 -9.33301 21 -17.166 31 -23.499s22.333 -9.5 37 -9.5s22 9 22 27z" />
    <glyph glyph-name="Y" unicode="Y" horiz-adv-x="1247" 
d="M1227 1190c0 19.333 -0.49707 41.4951 -1.49707 66.4951s-5 48.667 -12 71s-18 41.166 -33 56.499s-36.5 23 -64.5 23c-24.667 0 -47.167 -6.5 -67.5 -19.5s-36.833 -29.833 -49.5 -50.5c-14.667 -24 -27.334 -55.333 -38.001 -94s-20.334 -82.5 -29.001 -131.5
s-16.667 -101.667 -24 -158l-23 -173.5c-8 -59.333 -16.5 -118.666 -25.5 -177.999s-19.667 -116.166 -32 -170.499s-26.666 -105 -42.999 -152s-35.333 -87.833 -57 -122.5s-46.667 -62 -75 -82s-60.833 -30 -97.5 -30c-55.333 0 -102.166 14.5 -140.499 43.5
s-69.833 67 -94.5 114s-43.667 100 -57 159s-23.166 118.333 -29.499 178s-10 116.834 -11 171.501s-1.5 101 -1.5 139c0 66 1 131.667 3 197s3 131.333 3 198c0 53.333 -12.5 95 -37.5 125s-65.5 45 -121.5 45c-16.667 0 -33.167 -1.33301 -49.5 -4
s-32.166 -6.66699 -47.499 -12c-6.66699 -2 -17.334 -6.16699 -32.001 -12.5s-29.667 -13.666 -45 -21.999s-28.833 -16.833 -40.5 -25.5s-17.5 -16.667 -17.5 -24c0 -5.33301 1.83301 -9.66602 5.5 -12.999s8.16699 -6 13.5 -8s10.833 -3.5 16.5 -4.5
s10.167 -1.5 13.5 -1.5c16.667 0 32.834 1.83301 48.501 5.5s31.334 7.66699 47.001 12s31.167 8.33301 46.5 12s31 5.5 47 5.5c6 0 12.667 -0.833008 20 -2.5s14.166 -4.33398 20.499 -8.00098s11.666 -8.16699 15.999 -13.5s6.5 -11.666 6.5 -18.999
c0 -16 -1.33301 -32.667 -4 -50s-5.83398 -34.666 -9.50098 -51.999l-11.5 -52c-4 -17.333 -7.33301 -33.666 -10 -48.999c-13.333 -70.667 -24.5 -141.834 -33.5 -213.501s-13.5 -143.834 -13.5 -216.501c0 -49.333 2.33301 -100.833 7 -154.5
s12.834 -106.334 24.501 -158.001s28 -101 49 -148s48 -88.167 81 -123.5s72.5 -63.5 118.5 -84.5s100.333 -31.5 163 -31.5s117.5 12.833 164.5 38.5s87.833 60.667 122.5 105s63.667 95.833 87 154.5s43 120.834 59 186.501s29 133.167 39 202.5s18.5 136.5 25.5 201.5
l19.5 184c6 57.667 13 107.5 21 149.5c2 9.33301 4.83301 21.333 8.5 36s8.5 29 14.5 43s13.333 26.167 22 36.5s19 15.5 31 15.5c3.33301 0 5.66602 -1.83301 6.99902 -5.5s2.5 -7.83398 3.5 -12.501s1.5 -9.5 1.5 -14.5v-10.5c0 -70.667 -6.33301 -141.334 -19 -212.001
l-38 -209c-12 -74 -24.667 -148 -38 -222s-25.333 -148.333 -36 -223s-19.5 -149.5 -26.5 -224.5s-10.5 -150.167 -10.5 -225.5c0 -14 0.666992 -33.333 2 -58s3.33301 -52 6 -82s6.5 -60.833 11.5 -92.5s11.333 -61.167 19 -88.5s16.667 -50.666 27 -69.999
s22.166 -31.666 35.499 -36.999h18c7.33301 0 16.666 0.666992 27.999 2s22.166 3.66602 32.499 6.99902s19.333 8 27 14s11.5 14 11.5 24c0 30.667 -2 61 -6 91s-7 60.333 -9 91c-4 49.333 -6.66699 99 -8 149s-2 100 -2 150c0 96 4 191.833 12 287.5
s17 191.334 27 287.001s19 191.334 27 287.001s12 191.5 12 287.5z" />
    <glyph glyph-name="Z" unicode="Z" horiz-adv-x="1083" 
d="M1124 1010c0 50.667 -9.32617 96.3281 -27.9932 136.995s-43.834 76.834 -75.501 108.501s-68.334 59 -110.001 82s-85.334 42 -131.001 57s-91.834 26 -138.501 33s-91 10.5 -133 10.5c-36 0 -76.5 -2.5 -121.5 -7.5s-90.833 -13.333 -137.5 -25
s-92.334 -26.834 -137.001 -45.501s-84.334 -41.667 -119.001 -69s-62.667 -59.333 -84 -96s-32 -78.667 -32 -126c0 -36 7.66699 -69 23 -99s35.666 -57.667 60.999 -83c20 -19.333 42.167 -36.666 66.5 -51.999s48.333 -28.166 72 -38.499s46 -18.333 67 -24
s38.5 -8.5 52.5 -8.5c5.33301 0 11.666 0.666992 18.999 2s14.333 3.5 21 6.5s12.5 6.83301 17.5 11.5s7.83301 10.334 8.5 17.001c0 9.33301 -4 20.333 -12 33s-17.667 25 -29 37s-23.166 22.667 -35.499 32s-22.5 15 -30.5 17l-37.5 15
c-16.333 6.66699 -32.5 16.5 -48.5 29.5s-29.833 29.5 -41.5 49.5s-17.5 44.333 -17.5 73c0 37.333 8 69.833 24 97.5s37 51.334 63 71.001s55.833 36 89.5 49s68.167 23.333 103.5 31s70 13 104 16s64.333 4.5 91 4.5c34 0 69 -3.5 105 -10.5s71 -17.5 105 -31.5
s66.333 -31.167 97 -51.5s57.334 -43.833 80.001 -70.5s40.5 -56.5 53.5 -89.5s19.167 -68.833 18.5 -107.5c-0.666992 -72 -13.334 -136.333 -38.001 -193s-57.5 -108 -98.5 -154s-87.833 -87.5 -140.5 -124.5s-107.334 -71.5 -164.001 -103.5
c-32.667 -19.333 -56.5 -34.666 -71.5 -45.999s-23.167 -22 -24.5 -32c0 -15.333 7.66699 -30.666 23 -45.999s34.333 -32.666 57 -51.999l53.5 -47c18.333 -16.667 35 -34.834 50 -54.501s27.5 -41 37.5 -64s15 -48.5 15 -76.5c0 -35.333 -3 -70.333 -9 -105
s-12.667 -69.167 -20 -103.5s-14 -69 -20 -104s-9 -70.167 -9 -105.5c0 -8.66699 0.5 -22 1.5 -40s2.83301 -38 5.5 -60s6.16699 -44.5 10.5 -67.5s10.333 -44 18 -63s16.834 -34.5 27.501 -46.5s23.334 -18 38.001 -18c9.33301 0 19.166 1.16699 29.499 3.5
s20 5.66602 29 9.99902s16.833 9.83301 23.5 16.5s10.667 14 12 22c0 3.33301 -0.333008 8 -1 14s-1.66699 14 -3 24l-5 85.5c-2 33.667 -3 70.167 -3 109.5c0 32 1.66699 64 5 96s7 63.833 11 95.5s7.66699 63.5 11 95.5s5 64 5 96c0 39.333 -6.16699 79.666 -18.5 120.999
s-29.666 80.166 -51.999 116.499s-49.333 68.5 -81 96.5s-67.167 48.333 -106.5 61c43.333 21.333 87.166 44.833 131.499 70.5s87.333 53.834 129 84.501s80.5 64 116.5 100s67.5 74.833 94.5 116.5s48.333 86.334 64 134.001s23.5 98.5 23.5 152.5z" />
    <glyph glyph-name="bracketleft" unicode="[" horiz-adv-x="682" 
d="M623 1372c0 6.66699 -3.16797 16.1621 -9.50098 28.4951s-14 24.5 -23 36.5s-18.167 22.833 -27.5 32.5s-17.333 14.834 -24 15.501c-4.66699 1.33301 -9 2 -13 2h-12c-21.333 0 -47.5 -2.5 -78.5 -7.5s-62.333 -10.333 -94 -16l-89.5 -16c-28 -5 -50 -7.5 -66 -7.5
c-6.66699 0 -12.667 1 -18 3s-10.333 4.33301 -15 7s-9.5 5 -14.5 7s-10.167 3 -15.5 3c-2.66699 0 -5.66699 -2 -9 -6s-6.66602 -8.83301 -9.99902 -14.5s-6.16602 -12 -8.49902 -19s-3.5 -13.5 -3.5 -19.5c0 -12.667 1.83301 -24.667 5.5 -36
s8.83398 -22.666 15.501 -33.999c-9.33301 -54.667 -17.333 -115.5 -24 -182.5s-12 -136 -16 -207s-7 -142.167 -9 -213.5s-3 -138.666 -3 -201.999c0 -44 0.5 -85.333 1.5 -124s2.16699 -73.334 3.5 -104.001s3 -56.667 5 -78s4.33301 -36.666 7 -45.999l7.5 -28
c3 -11.333 6.5 -23.666 10.5 -36.999c-5.33301 -5.33301 -10.333 -13.666 -15 -24.999s-7 -21.666 -7 -30.999c0 -6.66699 1.5 -16.167 4.5 -28.5s7.16699 -24.5 12.5 -36.5s11.666 -22.833 18.999 -32.5s15 -15.167 23 -16.5c6 -1.33301 11.833 -2.5 17.5 -3.5
s11.5 -1.5 17.5 -1.5c14 0 28.333 1.5 43 4.5l46 9.5c16 3.33301 32.833 6.66602 50.5 9.99902s36.834 5.66602 57.501 6.99902c48 2.66699 89.333 3.66699 124 3s58 1 70 5c13.333 4.66699 24.166 10.334 32.499 17.001s12.5 17.667 12.5 33c0 6.66699 -3.16699 16 -9.5 28
s-14 24 -23 36s-18.5 22.667 -28.5 32s-18.333 14.666 -25 15.999c-4 1.33301 -8 2 -12 2h-14c-18 0 -39.667 -1.83301 -65 -5.5s-51.5 -8.16699 -78.5 -13.5l-79.5 -15.5c-26 -5 -48.667 -9.16699 -68 -12.5c1.33301 11.333 2.33301 22.833 3 34.5s1 24.167 1 37.5
c0 37.333 -1.66699 79.333 -5 126l-11 147.5c-4 51.667 -7.66699 104.667 -11 159s-4.66602 107.5 -3.99902 159.5v34c0 114.667 4.16699 213.5 12.5 296.5s14.5 149.5 18.5 199.5c13.333 1.33301 26.666 3.33301 39.999 6s27.166 5.83398 41.499 9.50098
s29.666 7 45.999 10s33.833 4.83301 52.5 5.5c48 2 89.333 2.83301 124 2.5s58.334 1.5 71.001 5.5c12 4 22.167 9.5 30.5 16.5s12.5 17.833 12.5 32.5z" />
    <glyph glyph-name="backslash" unicode="\" horiz-adv-x="662" 
d="M631 -14c0 -11.333 -3.66895 -22.0029 -11.002 -32.0029s-16.666 -15 -27.999 -15c-5.33301 0 -11.333 1.66699 -18 5s-13.667 11 -21 23c-4.66699 8.66699 -11.167 25 -19.5 49l-30 89.5l-39.5 120.5l-46 141l-50 152l-53 153c-20 57.333 -40.833 113.5 -62.5 168.5
l-64 157l-60 139.5l-50 115.5c-14.333 33.667 -25.666 61.834 -33.999 84.501s-12.833 38.334 -13.5 47.001v2v3c0 6 1.16699 13.5 3.5 22.5s5.83301 17.667 10.5 26s10 15.5 16 21.5s13 9 21 9c22.667 0 48.5 -26.167 77.5 -78.5s65.833 -133.166 110.5 -242.499
c25.333 -62 51.333 -131 78 -207l78.5 -233l73 -234.5l61.5 -212l45 -165.5c12 -46 19.667 -77.667 23 -95c0 -3.33301 0.333008 -6 1 -8s1 -4 1 -6z" />
    <glyph glyph-name="bracketright" unicode="]" horiz-adv-x="682" 
d="M623 526c0 63.333 -1.00098 130.672 -3.00098 202.005s-5.16699 142.5 -9.5 213.5s-9.83301 140 -16.5 207s-15 127.833 -25 182.5c15.333 23.333 23 46.666 23 69.999c0 6 -1.16699 12.5 -3.5 19.5s-5.16602 13.333 -8.49902 19s-6.66602 10.5 -9.99902 14.5
s-6.33301 6 -9 6c-5.33301 0 -10.5 -1 -15.5 -3s-9.83301 -4.33301 -14.5 -7s-9.66699 -5 -15 -7s-11.333 -3 -18 -3c-16 0 -38.167 2.5 -66.5 7.5l-90 16l-93.5 16c-30.667 5 -56.667 7.5 -78 7.5h-14c-4 0 -7.66699 -0.666992 -11 -2
c-6.66699 -0.666992 -14.667 -5.83398 -24 -15.501s-18.5 -20.5 -27.5 -32.5s-16.667 -24.167 -23 -36.5s-9.5 -21.833 -9.5 -28.5c0 -14.667 3.83301 -25.5 11.5 -32.5s17.5 -12.5 29.5 -16.5c13.333 -4 37.5 -5.83301 72.5 -5.5s76.5 -0.5 124.5 -2.5
c18.667 -0.666992 36 -2.5 52 -5.5s31.333 -6.33301 46 -10s28.667 -6.83398 42 -9.50098s26.666 -4.66699 39.999 -6c3.33301 -50 9 -116.5 17 -199.5s12.667 -181.833 14 -296.5v-34c0 -52 -1.66699 -105.167 -5 -159.5s-6.83301 -107.333 -10.5 -159l-10.5 -147.5
c-3.33301 -46.667 -5 -88.667 -5 -126c0 -13.333 0.333008 -25.833 1 -37.5s1.66699 -23.167 3 -34.5c-20 3.33301 -43 7.5 -69 12.5l-79.5 15.5c-27 5.33301 -52.833 9.83301 -77.5 13.5s-46 5.5 -64 5.5h-15c-4.66699 0 -8.66699 -0.666992 -12 -2
c-7.33301 -1.33301 -15.833 -6.66602 -25.5 -15.999s-19 -20 -28 -32s-16.667 -24 -23 -36s-9.5 -21.333 -9.5 -28c0 -15.333 4 -26.333 12 -33s18.333 -12.334 31 -17.001c13.333 -4 37 -5.5 71 -4.5s75 -0.166992 123 -3.5c21.333 -1.33301 40.833 -3.66602 58.5 -6.99902
s34.5 -6.66602 50.5 -9.99902l46 -9.5c14.667 -3 29.334 -4.5 44.001 -4.5c5.33301 0 11 0.5 17 1.5s12 2.16699 18 3.5c8 1.33301 15.667 6.83301 23 16.5s13.666 20.5 18.999 32.5s9.5 24.167 12.5 36.5s4.5 21.833 4.5 28.5c0 9.33301 -2.5 19.666 -7.5 30.999
s-10.5 19.666 -16.5 24.999c5.33301 13.333 9.33301 25.666 12 36.999s4.66699 20.666 6 27.999c2.66699 9.33301 5.16699 24.666 7.5 45.999s4.33301 47.333 6 78s3 65.334 4 104.001s1.5 80 1.5 124z" />
    <glyph glyph-name="asciicircum" unicode="^" horiz-adv-x="793" 
d="M733 885c0 2 -0.332031 3.83496 -0.999023 5.50195s-1 3.16699 -1 4.5c-10 22.667 -21.333 52 -34 88s-27 74.667 -43 116s-33.5 82.833 -52.5 124.5s-39.667 79.334 -62 113.001s-46.333 61 -72 82s-53.167 31.5 -82.5 31.5c-13.333 0 -29 -9.16699 -47 -27.5
s-36.5 -41.833 -55.5 -70.5s-38.167 -60.167 -57.5 -94.5s-37.166 -67.833 -53.499 -100.5l-43 -88l-26.5 -57c-0.666992 -3.33301 -3.33398 -10.166 -8.00098 -20.499s-9.33398 -21.333 -14.001 -33l-13 -32.5c-4 -10 -6 -16.333 -6 -19
c0 -6.66699 1.5 -14.834 4.5 -24.501s7 -19 12 -28s11.167 -16.833 18.5 -23.5s15 -10 23 -10c9.33301 0 20.333 11.667 33 35s26.334 52.666 41.001 87.999l45.5 114.5c15.667 41 31.167 79.167 46.5 114.5s30.166 64.666 44.499 87.999s27.5 35 39.5 35
c8.66699 0 19.167 -9.83301 31.5 -29.5s25.5 -44.667 39.5 -75s28.5 -63.666 43.5 -99.999l42.5 -105l36.5 -90c11 -26.333 19.5 -44.5 25.5 -54.5c6 -10.667 12.5 -18.834 19.5 -24.501s16.833 -8.5 29.5 -8.5c8.66699 0 18.5 2.16699 29.5 6.5s21.5 10.166 31.5 17.499
s18.333 15.5 25 24.5s10 18.167 10 27.5z" />
    <glyph glyph-name="underscore" unicode="_" horiz-adv-x="1882" 
d="M1964 61c-0.666992 -12.667 -7.16699 -22.835 -19.5 -30.502s-28.166 -13.5 -47.499 -17.5s-40.666 -6.5 -63.999 -7.5s-45.833 -1.33301 -67.5 -1s-41.5 1 -59.5 2s-31 1.5 -39 1.5l-329.5 6c-109.667 2 -220.167 -0.666992 -331.5 -8
c-162.667 -11.333 -325 -19.833 -487 -25.5s-324.667 -5.16699 -488 1.5c-12.667 0.666992 -25.834 4.16699 -39.501 10.5s-26 14.5 -37 24.5s-20 21.5 -27 34.5s-10.167 26.5 -9.5 40.5c0 4 1.66699 9.5 5 16.5s7.33301 13.833 12 20.5s9.83398 12.334 15.501 17.001
s11.167 6.66699 16.5 6c14.667 0 29.167 -2.5 43.5 -7.5s28.5 -8.16699 42.5 -9.5c134 -4.66699 268 -6 402 -4s267.833 5.33301 401.5 10s267.334 9.66699 401.001 15s267.5 9.33301 401.5 12c28 1.33301 55.167 2.33301 81.5 3s53.166 0.333984 80.499 -0.999023
c9.33301 -0.666992 22.166 -4.66699 38.499 -12s32.333 -16.5 48 -27.5s29.167 -22.833 40.5 -35.5s16.666 -24 15.999 -34z" />
    <glyph glyph-name="grave" unicode="`" horiz-adv-x="1376" 
d="M852 1188c0 -9.33301 -4.50293 -18.168 -13.5029 -26.501s-18.167 -12.5 -27.5 -12.5c-5.33301 0 -15.833 3.66699 -31.5 11s-33.667 16.833 -54 28.5l-64 38.5c-22.333 14 -43.166 27.833 -62.499 41.5s-35.666 26.334 -48.999 38.001s-21.333 20.5 -24 26.5
c-1.33301 3.33301 -2 6.16602 -2 8.49902v8.5c0 6.66699 2.16699 14.834 6.5 24.501s9.83301 19 16.5 28s14 16.833 22 23.5s15.667 10 23 10s18.833 -5.33301 34.5 -16s33 -24.167 52 -40.5s38.833 -34.333 59.5 -54s39.334 -38.667 56.001 -57s30.5 -34.833 41.5 -49.5
s16.5 -25 16.5 -31z" />
    <glyph glyph-name="a" unicode="a" horiz-adv-x="803" 
d="M915 207c0 3.33301 -0.678711 7.99902 -2.01172 13.999s-3.5 11.667 -6.5 17s-6.33301 10 -10 14s-8.16699 6 -13.5 6c-4 0 -7.33301 -1.5 -10 -4.5s-5.16699 -6.33301 -7.5 -10s-4.16602 -7.5 -5.49902 -11.5s-2.66602 -7 -3.99902 -9c-8 -20 -16.5 -37.5 -25.5 -52.5
s-19.5 -27.667 -31.5 -38s-26 -18 -42 -23s-35 -7.5 -57 -7.5c-25.333 0 -46.833 7 -64.5 21s-31.5 32.333 -41.5 55c11.333 22.667 21.333 47.667 30 75s13 53.666 13 78.999c0 10.667 -0.5 24.167 -1.5 40.5s-3.66699 32 -8 47s-10.666 28 -18.999 39
s-20.166 16.5 -35.499 16.5c-19.333 0 -34.333 -5.66699 -45 -17s-18.5 -25.333 -23.5 -42s-8 -34.167 -9 -52.5s-1.5 -34.5 -1.5 -48.5c0 -21.333 1 -42.666 3 -63.999s5.66699 -42.333 11 -63c-22.667 -28.667 -49.834 -53.5 -81.501 -74.5s-66.5 -31.5 -104.5 -31.5
c-20.667 0 -40.5 3.5 -59.5 10.5s-35.667 17 -50 30s-25.666 28.5 -33.999 46.5s-12.5 38 -12.5 60c0 41.333 8.16699 77.5 24.5 108.5s37.666 57.5 63.999 79.5s56.666 40 90.999 54s69.5 24.333 105.5 31l18 2.5c7.33301 1 14.5 2.83301 21.5 5.5s13 6.16699 18 10.5
s7.5 9.83301 7.5 16.5c0 7.33301 -1.66699 13 -5 17s-7.66602 7.16699 -12.999 9.5s-11.166 3.83301 -17.499 4.5s-12.166 1 -17.499 1c-32 0 -65 -3.5 -99 -10.5s-67 -17.333 -99 -31s-62.167 -30.5 -90.5 -50.5s-53.166 -42.833 -74.499 -68.5s-38.166 -54 -50.499 -85
s-18.5 -64.5 -18.5 -100.5c0 -37.333 5.83301 -71.5 17.5 -102.5s28.334 -57.833 50.001 -80.5s47.834 -40.167 78.501 -52.5s64.667 -18.5 102 -18.5c53.333 0 102.333 11.5 147 34.5s83.667 55.167 117 96.5l33.5 -42c11 -13.333 22.833 -25 35.5 -35
s26.834 -18 42.501 -24s33.834 -9 54.501 -9c26.667 0 52.334 6.33301 77.001 19s46.5 29.334 65.5 50.001s34.333 44 46 70s17.5 52 17.5 78z" />
    <glyph glyph-name="b" unicode="b" horiz-adv-x="737" 
d="M707 270c0 44.667 -8.50293 84.5 -25.5029 119.5s-40 64.5 -69 88.5s-62.667 42.167 -101 54.5s-78.5 18.5 -120.5 18.5c-6.66699 0 -14 -0.5 -22 -1.5s-15.5 -3 -22.5 -6s-12.833 -7.33301 -17.5 -13s-7 -13.167 -7 -22.5c0 -4 2.16699 -7.66699 6.5 -11
s9.33301 -6.33301 15 -9s11.334 -4.83398 17.001 -6.50098s9.83398 -3.16699 12.501 -4.5c28 -10 54 -21.167 78 -33.5s44.667 -27.166 62 -44.499s31 -38 41 -62s15 -52.333 15 -85c0 -52.667 -15.5 -94.5 -46.5 -125.5s-72.833 -46.5 -125.5 -46.5
c-28.667 0 -54.834 4.83301 -78.501 14.5s-45.5 22.667 -65.5 39s-38.167 35.166 -54.5 56.499s-31.166 43.333 -44.499 66c30 56.667 57.333 122 82 196s46 150.667 64 230s31.833 158.166 41.5 236.499s14.5 150.5 14.5 216.5c0 18.667 -0.666992 41.334 -2 68.001
s-4 54.667 -8 84s-9.83301 58.5 -17.5 87.5s-18.167 55 -31.5 78s-29.666 41.667 -48.999 56s-42.666 21.5 -69.999 21.5c-44 0 -81.5 -12.333 -112.5 -37s-56.833 -56.667 -77.5 -96s-37 -83.833 -49 -133.5s-21 -99.167 -27 -148.5s-9.83301 -96.333 -11.5 -141
s-2.5 -82 -2.5 -112c0 -34 2.16699 -72.667 6.5 -116s11 -89 20 -137s20.5 -97.167 34.5 -147.5s30.833 -99.166 50.5 -146.499s42.167 -91.833 67.5 -133.5s54 -78.167 86 -109.5s67.167 -56 105.5 -74s80.5 -27 126.5 -27c43.333 0 83.833 7.33301 121.5 22
s70.667 35.167 99 61.5s50.666 57.833 66.999 94.5s24.5 77 24.5 121zM228.997 1169c0 -64 -2.8291 -130.664 -8.49609 -199.997s-13.834 -138.833 -24.501 -208.5s-23.834 -138.5 -39.501 -206.5s-33.167 -132.667 -52.5 -194c-28.667 81.333 -49 163.666 -61 246.999
s-18 167.666 -18 252.999c0 20.667 1 49.334 3 86.001s5.16699 76.5 9.5 119.5s10.166 86.667 17.499 131s16.166 84.833 26.499 121.5s22.333 67 36 91s29.167 37 46.5 39h2c10 0.666992 18.5 -5 25.5 -17s12.833 -27.333 17.5 -46s8.33398 -39.334 11.001 -62.001
s4.66699 -44.334 6 -65.001s2.16602 -39.167 2.49902 -55.5s0.5 -27.5 0.5 -33.5z" />
    <glyph glyph-name="c" unicode="c" horiz-adv-x="645" 
d="M758 297c0 10 -3.16797 17.667 -9.50098 23s-14.166 8 -23.499 8h-5c-2 0 -3.66699 -0.666992 -5 -2c-7.33301 -2.66699 -15.166 -10.667 -23.499 -24l-30.5 -48.5c-12 -19 -26.333 -39.167 -43 -60.5s-37.334 -40.833 -62.001 -58.5s-53.834 -32.5 -87.501 -44.5
s-73.167 -18 -118.5 -18c-24.667 0 -49.5 4 -74.5 12s-47.167 19.667 -66.5 35s-35.166 33.833 -47.499 55.5s-18.5 46.167 -18.5 73.5c0 34 6 65.167 18 93.5s28.667 52.833 50 73.5s46.333 36.834 75 48.501s59.667 17.5 93 17.5c4.66699 0 9.83398 -0.5 15.501 -1.5
s11.167 -2.5 16.5 -4.5s9.83301 -5 13.5 -9s5.5 -9 5.5 -15c0 -11.333 -1.66699 -22.166 -5 -32.499s-7.16602 -20 -11.499 -29l-11.5 -24c-3.33301 -7 -5 -12.833 -5 -17.5c0 -8 4.33301 -14.333 13 -19s16.667 -7 24 -7c11.333 0 23 5.5 35 16.5s22.833 24 32.5 39
s17.667 30.333 24 46s9.5 28.167 9.5 37.5c0 22.667 -4 41.167 -12 55.5s-18.833 25.666 -32.5 33.999s-29.5 14.166 -47.5 17.499s-36.667 5 -56 5c-46.667 0 -91.334 -10 -134.001 -30s-80.5 -46.5 -113.5 -79.5s-59.333 -71 -79 -114s-29.5 -87.167 -29.5 -132.5
c0 -42 8 -79.333 24 -112s37.5 -60 64.5 -82s58.333 -38.833 94 -50.5s73.167 -17.5 112.5 -17.5c72 0 137.167 15.833 195.5 47.5s109.166 75.167 152.499 130.5c6.66699 8 14.667 19.167 24 33.5s18.5 29.333 27.5 45s16.667 31.167 23 46.5s9.5 28.333 9.5 39z" />
    <glyph glyph-name="d" unicode="d" horiz-adv-x="946" 
d="M1059 201c0 3.33301 -0.658203 8.00098 -1.99121 14.001s-3.16602 11.667 -5.49902 17s-5.33301 10 -9 14s-7.83398 6 -12.501 6c-6.66699 0 -11.834 -4.5 -15.501 -13.5s-6.5 -16.167 -8.5 -21.5c-8.66699 -22 -18 -41.333 -28 -58s-21.667 -30.834 -35 -42.501
s-29 -20.334 -47 -26.001s-39.667 -8.5 -65 -8.5c-19.333 0 -36.666 5.33301 -51.999 16s-29 24 -41 40s-22.167 33.167 -30.5 51.5s-15.5 35.166 -21.5 50.499c35.333 50 65.166 106.833 89.499 170.5s44.166 130 59.499 199s26.5 138.167 33.5 207.5
s10.5 134.333 10.5 195c0 25.333 -0.333008 56.333 -1 93s-3.16699 75.334 -7.5 116.001s-11 81.167 -20 121.5s-21.833 76.5 -38.5 108.5s-37.834 58 -63.501 78s-56.834 30 -93.501 30c-32 0 -59.333 -11 -82 -33s-41.667 -50.5 -57 -85.5s-27.333 -74.167 -36 -117.5
s-15.334 -86.333 -20.001 -129s-7.66699 -82.5 -9 -119.5s-2 -66.833 -2 -89.5c0 -59.333 2.33301 -120.833 7 -184.5s12 -127.5 22 -191.5s22.5 -126.833 37.5 -188.5s32.833 -120.5 53.5 -176.5c-13.333 -20.667 -28.333 -41 -45 -61s-35.167 -37.5 -55.5 -52.5
s-42.333 -27.167 -66 -36.5s-49.167 -14 -76.5 -14c-24.667 0 -47.167 4.33301 -67.5 13s-37.833 20.5 -52.5 35.5s-26 32.667 -34 53s-12 42.5 -12 66.5c0 37.333 5.16699 69 15.5 95s25 48 44 66s42 32.667 69 44s57.167 20.666 90.5 27.999
c3.33301 0.666992 8 1.5 14 2.5s12.333 2.5 19 4.5s12.334 4.66699 17.001 8s7 7.33301 7 12c0 9.33301 -2.33301 16.833 -7 22.5s-10.334 10 -17.001 13s-14 5 -22 6s-15.667 1.5 -23 1.5c-45.333 0 -88.333 -7.16699 -129 -21.5s-76.334 -34.833 -107.001 -61.5
s-55 -59.167 -73 -97.5s-27 -81.166 -27 -128.499c0 -42 7.33301 -79.667 22 -113s35 -61.833 61 -85.5s56.5 -41.667 91.5 -54s72.833 -18.5 113.5 -18.5c30 0 59 4.66699 87 14s54.833 21.833 80.5 37.5s49.5 33.667 71.5 54s42 41.833 60 64.5
c11.333 -20.667 24.166 -41.167 38.499 -61.5s30.833 -38.5 49.5 -54.5s39.167 -29 61.5 -39s46.5 -15 72.5 -15c28 0 55.167 6.83301 81.5 20.5s49.666 31.334 69.999 53.001s36.666 46.167 48.999 73.5s18.5 55 18.5 83zM752.009 1028
c0 -110 -7.66797 -219.501 -23.001 -328.501s-44 -214.5 -86 -316.5c-23.333 91.333 -39.666 185 -48.999 281s-14 191.333 -14 286c0 12.667 0.166992 34.5 0.5 65.5s1.33301 66 3 105s4.33398 79.5 8.00098 121.5s8.66699 80.333 15 115s14.333 63.334 24 86.001
s21.5 34 35.5 34c11.333 0 21.333 -9.66699 30 -29s16.167 -43.833 22.5 -73.5s11.666 -62.334 15.999 -98.001s7.83301 -70.167 10.5 -103.5s4.5 -63.166 5.5 -89.499s1.5 -44.833 1.5 -55.5z" />
    <glyph glyph-name="e" unicode="e" horiz-adv-x="643" 
d="M756 299c0 8 -3.33203 14.4971 -9.99902 19.4971s-13.667 7.5 -21 7.5c-9.33301 0 -18.5 -6.33301 -27.5 -19s-19.5 -28.5 -31.5 -47.5s-26.167 -39.5 -42.5 -61.5s-36.833 -42.5 -61.5 -61.5s-54.167 -34.833 -88.5 -47.5s-75.5 -19 -123.5 -19
c-28 0 -54.5 3.66699 -79.5 11s-47 18.333 -66 33s-34 33.167 -45 55.5s-16.5 48.5 -16.5 78.5c0 26.667 3.83301 53.834 11.5 81.501s19 52.834 34 75.501s33.833 41.334 56.5 56.001s49 22 79 22c14 0 26.833 -2.83301 38.5 -8.5s21.667 -13.167 30 -22.5
s15 -20.166 20 -32.499s7.5 -25.166 7.5 -38.499c0 -24.667 -5.33301 -45.5 -16 -62.5s-24.334 -31.5 -41.001 -43.5s-35 -22.167 -55 -30.5l-58 -23.5c-10.667 -4 -18.167 -8 -22.5 -12s-6.5 -12.333 -6.5 -25c0 -18.667 10.333 -28 31 -28
c30.667 0 63.334 5.83301 98.001 17.5s66.5 28 95.5 49s53.167 46 72.5 75s29 60.833 29 95.5c0 28 -5.83301 53.167 -17.5 75.5s-27.167 41.333 -46.5 57s-41.333 27.834 -66 36.501s-49.667 13 -75 13c-45.333 0 -87 -10.667 -125 -32s-70.833 -49 -98.5 -83
s-49.167 -72.333 -64.5 -115s-23 -85.334 -23 -128.001c0 -41.333 8 -78 24 -110s37.5 -59 64.5 -81s58.167 -38.667 93.5 -50s72.333 -17 111 -17c70.667 0 135.5 15.5 194.5 46.5s110.167 74.167 153.5 129.5c7.33301 8.66699 15.666 20.167 24.999 34.5
s18.5 29.166 27.5 44.499s16.5 30.666 22.5 45.999s9 28.333 9 39z" />
    <glyph glyph-name="f" unicode="f" horiz-adv-x="506" 
d="M537 453c0 13.333 -5.83301 25.3369 -17.5 36.0039s-25.667 19.667 -42 27s-33.166 13 -50.499 17s-31.333 6 -42 6c-28.667 0 -57.334 -2 -86.001 -6s-57.334 -7 -86.001 -9c24.667 30.667 49.5 66.334 74.5 107.001s49 84.167 72 130.5s44.667 94.333 65 144
s38 99.167 53 148.5s26.833 97 35.5 143s13 88.667 13 128c0 32 -3.66699 62 -11 90s-18.666 52.5 -33.999 73.5s-35.333 37.5 -60 49.5s-54.334 18 -89.001 18c-20 0 -39.833 -3.66699 -59.5 -11s-38.5 -16.833 -56.5 -28.5s-35 -24.834 -51 -39.501s-30 -29 -42 -43
c-23.333 -28 -43.166 -58.333 -59.499 -91s-29.666 -66.334 -39.999 -101.001s-17.833 -70 -22.5 -106s-7 -72 -7 -108c0 -42.667 2.5 -84.834 7.5 -126.501s11.667 -83.167 20 -124.5s17.666 -82.5 27.999 -123.5l30.5 -123.5c-8.66699 1.33301 -17.334 2 -26.001 2h-27
c-19.333 0 -33.833 -4.33301 -43.5 -13s-14.5 -23.334 -14.5 -44.001c0 -9.33301 4.16699 -18.666 12.5 -27.999s18.5 -17.833 30.5 -25.5s24.333 -14 37 -19s23 -7.5 31 -7.5c5.33301 0 10.5 0.333008 15.5 1s10.167 1.66699 15.5 3c43.333 -195.333 65 -393.333 65 -594
c0 -48 -3.66699 -95.333 -11 -142s-19.333 -92 -36 -136l-5 -15.5c-2 -6.33301 -3 -11.5 -3 -15.5c0 -14 5.33301 -26 16 -36s23.667 -15 39 -15c17.333 0 32.666 6.66699 45.999 20s24 27 32 41c10.667 17.333 19.334 37.833 26.001 61.5s11.834 48.167 15.501 73.5
s6.16699 50.5 7.5 75.5s2 47.833 2 68.5c0 109.333 -7 217.166 -21 323.499s-33.667 212.166 -59 317.499c8.66699 1.33301 16.5 2 23.5 2h21.5c18 0 35.333 -2 52 -6s33.167 -8.5 49.5 -13.5s32.333 -9.5 48 -13.5s31.5 -6 47.5 -6c24.667 0 42.5 4 53.5 12
s16.5 25.333 16.5 52zM406 1313c0 -53.333 -6.83398 -110.835 -20.501 -172.502s-31.334 -123.334 -53.001 -185.001s-46.167 -121.167 -73.5 -178.5s-55 -108.666 -83 -153.999c-20.667 78.667 -37 157.834 -49 237.501s-18 160.167 -18 241.5
c0 19.333 1.83301 40.833 5.5 64.5s9.33398 47.834 17.001 72.501s17.167 48.667 28.5 72s24.833 44.166 40.5 62.499s33.167 33 52.5 44s40.666 16.5 63.999 16.5c17.333 0 31.833 -3.66699 43.5 -11s20.834 -16.666 27.501 -27.999s11.334 -24.333 14.001 -39s4 -29 4 -43
z" />
    <glyph glyph-name="g" unicode="g" horiz-adv-x="758" 
d="M758 375c0 14.667 -7.66602 21.999 -22.999 21.999c-2.66699 0 -7.83398 -4.33301 -15.501 -13s-15.834 -18.5 -24.501 -29.5l-24.5 -31.5l-15.5 -20c-13.333 34 -28.666 65.5 -45.999 94.5s-37.666 54 -60.999 75s-50.333 37.333 -81 49s-65.667 17.5 -105 17.5
c-43.333 0 -85 -7.66699 -125 -23s-75.167 -36.666 -105.5 -63.999s-54.666 -60 -72.999 -98s-27.5 -79.667 -27.5 -125c0 -32.667 4.5 -64.334 13.5 -95.001s22.667 -57.667 41 -81s41 -42.166 68 -56.499s58.5 -21.5 94.5 -21.5c31.333 0 59.166 5 83.499 15
s45.5 24 63.5 42s33 39.167 45 63.5s21.667 50.5 29 78.5c2 5.33301 3.16699 10.166 3.5 14.499s0.5 8.5 0.5 12.5c0 6 -1.5 13.333 -4.5 22s-8.16699 13 -15.5 13c-5.33301 0 -9.5 -4 -12.5 -12s-4.5 -13 -4.5 -15c-7.33301 -18.667 -15.666 -36 -24.999 -52
s-20.166 -29.667 -32.499 -41s-27 -20.166 -44 -26.499s-37.167 -9.5 -60.5 -9.5c-21.333 0 -39.5 5.5 -54.5 16.5s-27.167 24.833 -36.5 41.5s-16.166 35 -20.499 55s-6.5 39 -6.5 57c0 27.333 4.5 54.166 13.5 80.499s21.667 49.833 38 70.5s36.333 37.167 60 49.5
s50.5 18.5 80.5 18.5c36.667 0 67.667 -9.16699 93 -27.5s46.333 -41.5 63 -69.5s29.5 -58.5 38.5 -91.5s15.167 -64.5 18.5 -94.5c-46.667 -57.333 -89.334 -120.166 -128.001 -188.499s-72 -139.5 -100 -213.5s-49.833 -149.5 -65.5 -226.5s-23.5 -152.833 -23.5 -227.5
c0 -26 2.16699 -54.167 6.5 -84.5s12.5 -58.5 24.5 -84.5s28.667 -47.667 50 -65s49 -26 83 -26c32 0 61.167 9 87.5 27s49.666 42.333 69.999 73s38.333 66.334 54 107.001s29.167 83.5 40.5 128.5s20.833 90.667 28.5 137s13.667 90.833 18 133.5s7.5 81.834 9.5 117.501
s3 65.5 3 89.5c0 56 -2.33301 113.667 -7 173s-15.334 115.666 -32.001 168.999c5.33301 7.33301 12.333 17.666 21 30.999s17.167 27.333 25.5 42s15.666 29 21.999 43s9.5 25.333 9.5 34zM594.001 -74.001c0 -15.333 -0.495117 -37.3311 -1.49512 -65.998
s-2.83301 -61.167 -5.5 -97.5s-6.33398 -75 -11.001 -116s-10.334 -81.833 -17.001 -122.5s-14.834 -79.667 -24.501 -117s-20.667 -70.333 -33 -99s-26.5 -51.5 -42.5 -68.5s-33.667 -25.5 -53 -25.5c-12.667 0 -22.834 7 -30.501 21s-13.334 30 -17.001 48
s-6 35.667 -7 53s-1.5 29.666 -1.5 36.999c0 62.667 5.5 126.167 16.5 190.5s26.5 127.666 46.5 189.999s44.5 122.666 73.5 180.999s61.5 112.833 97.5 163.5c4 -28.667 6.66699 -57.167 8 -85.5s2 -57.166 2 -86.499z" />
    <glyph glyph-name="h" unicode="h" horiz-adv-x="770" 
d="M852 158c0 8 -2.33887 17.1709 -7.00586 27.5039s-12.667 15.5 -24 15.5c-4.66699 0 -10.5 -5.33301 -17.5 -16l-24 -35.5c-9 -13 -19.167 -24.833 -30.5 -35.5s-24 -16 -38 -16c-24 0 -41.833 11 -53.5 33s-20.334 49.667 -26.001 83s-10.334 69.166 -14.001 107.499
s-10.167 74.166 -19.5 107.499s-23.166 61 -41.499 83s-44.833 33 -79.5 33c-23.333 0 -45.833 -9.66699 -67.5 -29s-42.167 -43.833 -61.5 -73.5s-37.833 -61.834 -55.5 -96.501l-50 -97.5c-15.667 -30.333 -30.5 -56.166 -44.5 -77.499s-27.333 -33.333 -40 -36
c-1.33301 6 -2 12.5 -2 19.5v21.5c0 190.667 4.83301 380.5 14.5 569.5s21.167 379.5 34.5 571.5c2 20.667 4.16699 41.334 6.5 62.001s3.5 41.667 3.5 63c0 17.333 -4 29.5 -12 36.5s-20.333 10.5 -37 10.5c-8 0 -17.667 -3.16699 -29 -9.5s-22.5 -14 -33.5 -23
s-20.833 -18.333 -29.5 -28s-15 -18.167 -19 -25.5c-3.33301 -6.66699 -6.33301 -23.334 -9 -50.001s-5 -58.834 -7 -96.501s-3.5 -78.334 -4.5 -122.001s-1.66699 -85.334 -2 -125.001s-0.666016 -75.167 -0.999023 -106.5s-0.5 -53.666 -0.5 -66.999
c0 -22 0.166992 -55.167 0.5 -99.5s1 -94.166 2 -149.499s2.5 -112.666 4.5 -171.999s4.5 -115 7.5 -167s6.5 -97 10.5 -135s8.66699 -63.333 14 -76c7.33301 -18.667 17.833 -34.334 31.5 -47.001s31.167 -19 52.5 -19s40.833 10.667 58.5 32s34.334 48 50.001 80
s30.5 66.667 44.5 104s27.833 72 41.5 104s27.5 58.667 41.5 80s28.667 32 44 32c6 0 11 -1.83301 15 -5.5s7.33301 -8.33398 10 -14.001s4.83398 -11.5 6.50098 -17.5s2.83398 -11.333 3.50098 -16c4.66699 -22.667 8.33398 -47 11.001 -73s6.16699 -52.167 10.5 -78.5
s10.333 -51.666 18 -75.999s18.5 -45.833 32.5 -64.5s31.833 -33.667 53.5 -45s48.834 -17 81.501 -17c40 0 72.833 11 98.5 33s46.834 50.667 63.501 86c3.33301 5.33301 6.5 12.166 9.5 20.499s4.5 15.833 4.5 22.5z" />
    <glyph glyph-name="i" unicode="i" horiz-adv-x="442" 
d="M305 936c0 16 -2.83301 30.6689 -8.5 44.002s-13.5 25 -23.5 35s-21.667 17.833 -35 23.5s-27.666 8.5 -42.999 8.5c-20.667 0 -40.334 -3 -59.001 -9s-35 -14.833 -49 -26.5s-25.167 -26 -33.5 -43s-12.5 -36.167 -12.5 -57.5c0 -16 3.5 -31.667 10.5 -47
s16.333 -29.333 28 -42s25 -22.834 40 -30.501s30.5 -11.5 46.5 -11.5c18 0 35.333 5 52 15s31.5 22.667 44.5 38s23.333 32.166 31 50.499s11.5 35.833 11.5 52.5zM606 328.002c0 8 -3.33301 15.333 -10 22s-14.334 10 -23.001 10c-6 0 -13.833 -6.16699 -23.5 -18.5
s-20.667 -27.833 -33 -46.5s-26.333 -38.834 -42 -60.501s-32.667 -41.834 -51 -60.501s-38 -34.167 -59 -46.5s-43.5 -18.5 -67.5 -18.5c-29.333 0 -52.333 8.66699 -69 26s-29.167 38.666 -37.5 63.999s-13.5 52 -15.5 80s-3 52.333 -3 73c0 21.333 1 42.833 3 64.5
s3 43.167 3 64.5c0 10.667 -3.83301 18.834 -11.5 24.501s-16.834 8.5 -27.501 8.5c-8.66699 0 -16.667 -2.66699 -24 -8c-6.66699 -4 -12.5 -12.333 -17.5 -25s-9.33301 -27.5 -13 -44.5s-6.66699 -35.333 -9 -55s-4.16602 -38.667 -5.49902 -57s-2.33301 -35 -3 -50
s-1 -26.5 -1 -34.5c0 -33.333 3.5 -65.666 10.5 -96.999s18.5 -59 34.5 -83s37 -43.333 63 -58s58 -22 96 -22c27.333 0 53 4.5 77 13.5s46.167 21.167 66.5 36.5s39.333 32.833 57 52.5s33.5 39.834 47.5 60.501c6 8.66699 14 21.334 24 38.001s19.833 34.167 29.5 52.5
s17.834 36.166 24.501 53.499s10 31 10 41z" />
    <glyph glyph-name="j" unicode="j" horiz-adv-x="264" 
d="M244 907c0 18.667 -3.8291 36.002 -11.4961 52.002s-17.834 30 -30.501 42s-27.334 21.5 -44.001 28.5s-34 10.5 -52 10.5s-35.167 -1.33301 -51.5 -4s-30.833 -7.83398 -43.5 -15.501s-22.834 -18.334 -30.501 -32.001s-11.5 -31.167 -11.5 -52.5
c0 -18 2.5 -35.833 7.5 -53.5s12.667 -33.5 23 -47.5s23.166 -25.333 38.499 -34s33.333 -13 54 -13c18.667 0 37 2.16699 55 6.5s34.167 11.333 48.5 21s26 22 35 37s13.5 33.167 13.5 54.5zM193.004 473.002c0 15.333 -2.83008 26.9951 -8.49707 34.9951
s-16.5 12 -32.5 12c-7.33301 0 -16 -3 -26 -9s-19.833 -13.333 -29.5 -22s-18.334 -17.667 -26.001 -27s-12.834 -17.333 -15.501 -24c-2 -3.33301 -3.66699 -11.666 -5 -24.999s-2.5 -29 -3.5 -47s-1.66699 -37.333 -2 -58l-1 -60
c-0.333008 -19.333 -0.5 -36.666 -0.5 -51.999v-34c0 -125.333 2 -250.333 6 -375l2.5 -88.5c1 -35 2.33301 -72.833 4 -113.5s3.66699 -82.5 6 -125.5s5.16602 -84.167 8.49902 -123.5s7.33301 -75.166 12 -107.499s10 -58.5 16 -78.5c2 -6 5 -13.5 9 -22.5
s8.83301 -17.833 14.5 -26.5s12.167 -16 19.5 -22s15 -9 23 -9c7.33301 0 13 3.16699 17 9.5s6.83301 13.833 8.5 22.5s2.66699 17.334 3 26.001s0.5 15.334 0.5 20.001c0 95.333 -2.83301 190.833 -8.5 286.5s-8.5 192.167 -8.5 289.5c0 85.333 1.16699 169.833 3.5 253.5
s4.5 168.167 6.5 253.5c1.33301 41.333 2.83301 82 4.5 122s2.5 80 2.5 120z" />
    <glyph glyph-name="k" unicode="k" horiz-adv-x="725" 
d="M786 -10c0 8.66699 -4.49902 18.665 -13.499 29.998s-20.333 23.333 -34 36s-29.167 25.334 -46.5 38.001l-50.5 36c-16.333 11.333 -31.5 21.166 -45.5 29.499s-25 14.5 -33 18.5c-22.667 12.667 -46 23.5 -70 32.5s-47.667 18.833 -71 29.5
c26 9.33301 56 23.166 90 41.499s66.167 40 96.5 65s56 52.667 77 83s31.5 61.833 31.5 94.5c0 43.333 -10.833 73.333 -32.5 90s-53.167 25 -94.5 25c-42.667 0 -85.334 -11.833 -128.001 -35.5s-82.667 -53.167 -120 -88.5s-71 -73.5 -101 -114.5
s-53.667 -78.833 -71 -113.5l12 572c4 189.333 6 380.333 6 573c0 8 -1 17 -3 27s-7.66699 16.667 -17 20h-4c-13.333 -3.33301 -25.5 -19 -36.5 -47s-20.667 -64 -29 -108s-15.5 -94 -21.5 -150s-11.167 -113.667 -15.5 -173s-7.83301 -118.333 -10.5 -177
s-4.66699 -112.5 -6 -161.5s-2.33301 -91.167 -3 -126.5s-1 -59.666 -1 -72.999c0 -12 0.333008 -32.333 1 -61s2 -60.834 4 -96.501s4.83301 -72.667 8.5 -111s8.5 -73.333 14.5 -105s13.5 -57.834 22.5 -78.501s19.5 -31 31.5 -31c8 0 16 5 24 15s13 19.333 15 28
c6 24.667 15.833 55.167 29.5 91.5s30 74.333 49 114s40.667 79.167 65 118.5s50.666 74.666 78.999 105.999s58 56.833 89 76.5s62.833 29.5 95.5 29.5c9.33301 0 14.5 -1.66699 15.5 -5s1.5 -9 1.5 -17c0 -25.333 -8.5 -50.833 -25.5 -76.5s-37.833 -49.667 -62.5 -72
s-51 -42.166 -79 -59.499s-53 -30 -75 -38c-4.66699 -2 -10.167 -4.16699 -16.5 -6.5s-12.333 -5.16602 -18 -8.49902s-10.5 -7.16602 -14.5 -11.499s-6 -9.83301 -6 -16.5v-8c2 -6 7.5 -12.833 16.5 -20.5s19 -15 30 -22s21.833 -13.5 32.5 -19.5l25 -14
c23.333 -12.667 47 -29.167 71 -49.5l70.5 -61.5c23 -20.667 45.333 -39.667 67 -57s41.834 -29.666 60.501 -36.999c10 -3.33301 21.5 -6.16602 34.5 -8.49902s25.167 -3.5 36.5 -3.5c14.667 0 27.167 2.83301 37.5 8.5s15.5 17.167 15.5 34.5z" />
    <glyph glyph-name="l" unicode="l" horiz-adv-x="465" 
d="M598 266c0 4 -0.665039 9.16504 -1.99805 15.498s-3.5 12.166 -6.5 17.499s-6.66699 10 -11 14s-9.5 6 -15.5 6c-5.33301 0 -11.5 -6 -18.5 -18s-15 -27.167 -24 -45.5s-19.167 -38 -30.5 -59s-24.333 -40.667 -39 -59s-31.334 -33.5 -50.001 -45.5s-39.667 -18 -63 -18
c-26 0 -48.667 8.16699 -68 24.5s-35.833 36.5 -49.5 60.5s-24.834 49.5 -33.501 76.5s-15.667 50.833 -21 71.5c74.667 128.667 131.5 265.5 170.5 410.5s58.5 292.833 58.5 443.5c0 20 -1.33301 42.167 -4 66.5s-7.16699 49.166 -13.5 74.499s-14.5 49.833 -24.5 73.5
s-22.333 44.834 -37 63.501s-31.834 33.667 -51.501 45s-42.167 17 -67.5 17c-34.667 0 -64 -9.83301 -88 -29.5s-44 -45.167 -60 -76.5s-28.667 -66.5 -38 -105.5s-16.333 -78.167 -21 -117.5s-7.5 -76.666 -8.5 -111.999s-1.5 -65 -1.5 -89
c0 -27.333 0.833008 -62.5 2.5 -105.5s4.83398 -90.5 9.50098 -142.5s11.167 -106.5 19.5 -163.5s18.833 -113.167 31.5 -168.5s27.667 -108.166 45 -158.499s38 -94.5 62 -132.5s51.167 -68.333 81.5 -91s64.5 -34 102.5 -34c32 0 63.833 9.33301 95.5 28
s60 42.334 85 71.001s45.167 60.167 60.5 94.5s23 66.833 23 97.5zM285.002 1112c0 -116 -12.834 -229.834 -38.501 -341.501s-62.167 -220.5 -109.5 -326.5c-15.333 94 -26.666 188 -33.999 282s-11 188.667 -11 284c0 10.667 0.5 28 1.5 52s2.83301 50.833 5.5 80.5
s6.33398 60.167 11.001 91.5s10.834 60 18.501 86s17 47.333 28 64s23.833 25 38.5 25c13.333 0 24.666 -6 33.999 -18s17.333 -27.5 24 -46.5s12.167 -40 16.5 -63s7.66602 -45.5 9.99902 -67.5s3.83301 -42.167 4.5 -60.5s1 -32.166 1 -41.499z" />
    <glyph glyph-name="m" unicode="m" horiz-adv-x="1114" 
d="M1196 186c0 3.33301 -0.839844 7.83691 -2.50684 13.5039s-4 11.167 -7 16.5s-6.33301 10 -10 14s-7.5 6 -11.5 6c-2.66699 0 -7.16699 -6.66699 -13.5 -20s-13.833 -27.833 -22.5 -43.5s-18.5 -30.167 -29.5 -43.5s-22.5 -20 -34.5 -20
c-21.333 0 -36.333 9.83301 -45 29.5s-14.667 44.167 -18 73.5s-5.5 61.166 -6.5 95.499s-4.5 66.166 -10.5 95.499s-16.167 53.833 -30.5 73.5s-36.166 29.5 -65.499 29.5c-21.333 0 -41.833 -7.66699 -61.5 -23s-38.167 -34.333 -55.5 -57s-33.333 -47.5 -48 -74.5
l-39.5 -74.5l-30 -57c-8.33301 -15.333 -14.833 -23 -19.5 -23c-2.66699 0 -5.16699 3.5 -7.5 10.5s-4.16602 14.833 -5.49902 23.5s-2.5 17 -3.5 25s-1.83301 13.333 -2.5 16c-0.666992 18 -3 40.333 -7 67s-10.5 52.334 -19.5 77.001s-21.333 45.834 -37 63.501
s-35.834 26.5 -60.501 26.5s-48 -9 -70 -27s-42.667 -40.5 -62 -67.5s-37.333 -56.333 -54 -88l-47 -88c-14.667 -27 -28.334 -49.5 -41.001 -67.5s-24.667 -27 -36 -27c-7.33301 0 -13.166 2 -17.499 6s-7.5 9 -9.5 15s-3.33301 12.5 -4 19.5s-1 13.5 -1 19.5
c0 38 3 75.667 9 113s9 74.666 9 111.999c0 10.667 -0.333008 22 -1 34s-3 23 -7 33s-10 18.333 -18 25s-19 10 -33 10c-14.667 0 -26.5 -5.33301 -35.5 -16s-16 -23.5 -21 -38.5s-8.16699 -30.333 -9.5 -46s-2 -28.5 -2 -38.5c0 -12.667 0.333008 -31.834 1 -57.501
s2.33398 -53.834 5.00098 -84.501s6.5 -62.167 11.5 -94.5s11.833 -61.5 20.5 -87.5s19.5 -47.5 32.5 -64.5s28.5 -25.5 46.5 -25.5c18.667 0 37 9.83301 55 29.5s35.333 44.167 52 73.5s32.834 61.333 48.501 96s30.834 66.667 45.501 96s28.334 53.833 41.001 73.5
s24.667 29.5 36 29.5c10.667 0 19 -8.83301 25 -26.5s11.333 -40 16 -67s9.33398 -56 14.001 -87s11.334 -60 20.001 -87s19.834 -49.333 33.501 -67s31.5 -26.5 53.5 -26.5c9.33301 0 20.666 8.83301 33.999 26.5s27.333 40 42 67l45 87l44 87c14 27 27 49.333 39 67
s21.667 26.5 29 26.5c8 0 14.333 -4.16699 19 -12.5s8 -18.166 10 -29.499s3.33301 -22.5 4 -33.5s1.33398 -19.5 2.00098 -25.5l8.5 -87.5c3 -31.667 9.66699 -61.334 20 -89.001s25.666 -50.834 45.999 -69.501s49.5 -28 87.5 -28c19.333 0 39 6.33301 59 19
s38 28.5 54 47.5s29.167 39.5 39.5 61.5s15.5 42 15.5 60z" />
    <glyph glyph-name="n" unicode="n" horiz-adv-x="717" 
d="M799 184c0 3.33301 -1.00586 7.5 -3.00586 12.5s-4.33301 10 -7 15s-5.66699 9.16699 -9 12.5s-6.66602 5 -9.99902 5s-8.16602 -6.33301 -14.499 -19s-13.833 -26.834 -22.5 -42.501s-18.5 -29.834 -29.5 -42.501s-22.833 -19 -35.5 -19
c-21.333 0 -36.5 9.83301 -45.5 29.5s-15.167 44.167 -18.5 73.5s-5.5 61.333 -6.5 96s-4.5 66.667 -10.5 96s-16 53.833 -30 73.5s-35.667 29.5 -65 29.5c-24.667 0 -47.834 -9 -69.501 -27s-42.167 -40.5 -61.5 -67.5s-37.333 -56.333 -54 -88l-47 -88
c-14.667 -27 -28.5 -49.5 -41.5 -67.5s-25.167 -27 -36.5 -27c-7.33301 0 -13.166 2 -17.499 6s-7.5 9 -9.5 15s-3.33301 12.5 -4 19.5s-1 13.5 -1 19.5c0 36.667 3 73.834 9 111.501s9 75.5 9 113.5c0 10.667 -0.333008 21.834 -1 33.501s-3 22.5 -7 32.5
s-10 18.167 -18 24.5s-19 9.5 -33 9.5c-14.667 0 -26.5 -5.5 -35.5 -16.5s-16 -24 -21 -39s-8.16699 -30.5 -9.5 -46.5s-2 -29 -2 -39c0 -12.667 0.333008 -31.667 1 -57s2.33398 -53.166 5.00098 -83.499s6.5 -61.333 11.5 -93s11.833 -60.667 20.5 -87
s19.5 -47.833 32.5 -64.5s28.5 -25 46.5 -25c18.667 0 37 9.83301 55 29.5s35.5 44.167 52.5 73.5s33.333 61.333 49 96l45 96c14.333 29.333 28 53.833 41 73.5s24.833 29.5 35.5 29.5c8 0 14 -4.33301 18 -13s7 -18.5 9 -29.5s3.33301 -22 4 -33
s1.33398 -18.833 2.00098 -23.5c2.66699 -28.667 5.33398 -59.334 8.00098 -92.001s9.16699 -62.5 19.5 -89.5s26.333 -49.5 48 -67.5s52.5 -27 92.5 -27c19.333 0 38.5 6.5 57.5 19.5s36.333 29.167 52 48.5s28.334 39.833 38.001 61.5s14.5 41.167 14.5 58.5z" />
    <glyph glyph-name="o" unicode="o" horiz-adv-x="651" 
d="M723 451c0 5.33301 -1.16992 11.668 -3.50293 19.001s-6.5 11 -12.5 11c-2.66699 0 -8.33398 -4.33301 -17.001 -13l-31 -30c-12 -11.333 -24.5 -22.5 -37.5 -33.5s-25.5 -18.833 -37.5 -23.5c-12.667 26.667 -29 50 -49 70s-44 35.667 -72 47
c-6 8 -14.667 14.5 -26 19.5s-23.5 9 -36.5 12s-25.833 5 -38.5 6s-24 1.5 -34 1.5c-44 0 -84.833 -7.66699 -122.5 -23s-70.167 -36.5 -97.5 -63.5s-48.833 -59.333 -64.5 -97s-23.5 -78.5 -23.5 -122.5c0 -38 7.33301 -72.5 22 -103.5s34.334 -57.167 59.001 -78.5
s53.334 -37.833 86.001 -49.5s67.334 -17.5 104.001 -17.5c41.333 0 80.833 7.16699 118.5 21.5s70.834 34.333 99.501 60s51.667 56.167 69 91.5s26 74.333 26 117v25c10 5.33301 21.833 14.166 35.5 26.499s26.667 26 39 41s22.833 30.167 31.5 45.5s13 29 13 41z
M509.997 283.002c0 -30 -5.49902 -56.332 -16.499 -78.999s-25.833 -41.667 -44.5 -57s-40.334 -27 -65.001 -35s-51 -12 -79 -12c-21.333 0 -42.5 3.33301 -63.5 10s-39.833 16.5 -56.5 29.5s-30.167 28.833 -40.5 47.5s-15.5 39.667 -15.5 63c0 25.333 5 49.833 15 73.5
s23.5 44.5 40.5 62.5s36.833 32.5 59.5 43.5s47 16.5 73 16.5c17.333 0 35 -1.66699 53 -5s34.667 -9 50 -17c-4 -5.33301 -6.66699 -11.333 -8 -18s-2 -13.667 -2 -21c0 -28.667 10 -51.834 30 -69.501s43.333 -28.5 70 -32.5z" />
    <glyph glyph-name="p" unicode="p" horiz-adv-x="715" 
d="M694 291c0 32 -6.33203 60.833 -18.999 86.5s-29.667 47.5 -51 65.5s-45.666 31.667 -72.999 41s-56 14 -86 14c-39.333 0 -74.833 -7.33301 -106.5 -22s-60.167 -33.834 -85.5 -57.501s-47.833 -50.667 -67.5 -81s-37.5 -61.5 -53.5 -93.5v125
c0 8.66699 0.5 19.834 1.5 33.501s0.666992 27.167 -1 40.5s-5.5 24.833 -11.5 34.5s-16 14.5 -30 14.5c-10 0 -18.5 -4.33301 -25.5 -13s-13 -18.834 -18 -30.501s-8.66699 -23.5 -11 -35.5s-3.5 -21.333 -3.5 -28c-9.33301 -126 -15.333 -252.833 -18 -380.5
s-4 -254.834 -4 -381.501v-64.5c0 -26.333 0.333008 -55 1 -86l2 -96c0.666992 -33 2 -64.667 4 -95s4.33301 -58.166 7 -83.499s6 -45.333 10 -60c1.33301 -4 3.83301 -9.66699 7.5 -17s7.66699 -14.5 12 -21.5s9.33301 -13 15 -18s11.167 -7.5 16.5 -7.5
c15.333 0 28.166 6.5 38.499 19.5s16.833 25.833 19.5 38.5c4 16.667 7 35.5 9 56.5s3.33301 42.5 4 64.5s1 43.5 1 64.5v57.5c0 100 -2.66699 199.833 -8 299.5s-8 199.834 -8 300.501c0 10.667 1.16699 22.167 3.5 34.5l6.5 35.5c4 21.333 9.5 45.333 16.5 72
s15.667 53.5 26 80.5s22.666 53.333 36.999 79s30.833 48.667 49.5 69s39.5 36.5 62.5 48.5s48.5 18 76.5 18c17.333 0 33.833 -3.16699 49.5 -9.5s29.167 -15 40.5 -26s20.333 -24 27 -39s10 -31.167 10 -48.5c0 -33.333 -8.66699 -60.666 -26 -81.999
s-38.833 -38.833 -64.5 -52.5s-53.334 -24.167 -83.001 -31.5s-57.167 -13.666 -82.5 -18.999c-1.33301 -0.666992 -4.83301 -1.5 -10.5 -2.5s-11.667 -2.33301 -18 -4s-12 -3.5 -17 -5.5s-7.5 -4.66699 -7.5 -8c0 -6.66699 1.5 -14.334 4.5 -23.001s6.83301 -17 11.5 -25
s10.334 -15.167 17.001 -21.5s13.334 -10.5 20.001 -12.5c4 -1.33301 10.5 -2 19.5 -2h19.5c45.333 0 88.666 6 129.999 18s77.833 30.167 109.5 54.5s57 54.666 76 90.999s28.5 78.833 28.5 127.5z" />
    <glyph glyph-name="q" unicode="q" horiz-adv-x="666" 
d="M635 -639c0 82 -1.33203 164.007 -3.99902 246.007s-5.83398 163.833 -9.50098 245.5s-6.83398 163.5 -9.50098 245.5s-4 164 -4 246c0 10.667 0.333008 20.834 1 30.501s1 19.167 1 28.5c0 8 -0.333008 17 -1 27s-2.5 19.667 -5.5 29s-7.5 17.166 -13.5 23.499
s-14.333 9.5 -25 9.5c-6 0 -11.667 -2.33301 -17 -7s-10.333 -10.334 -15 -17.001s-8.66699 -13.667 -12 -21s-5.66602 -13.666 -6.99902 -18.999c-21.333 19.333 -46.333 33.333 -75 42s-57.667 13 -87 13c-44 0 -87 -9.16699 -129 -27.5s-79.5 -43.166 -112.5 -74.499
s-59.667 -67.5 -80 -108.5s-30.5 -84.167 -30.5 -129.5c0 -53.333 16 -95 48 -125s74.667 -45 128 -45c26.667 0 51.667 4.16699 75 12.5s44.833 19.666 64.5 33.999s37.5 31.166 53.5 50.499s30.333 40.333 43 63c4 6 7.33301 12.167 10 18.5s4 13.166 4 20.499
c0 5.33301 -1.83301 10.5 -5.5 15.5s-8.5 7.5 -14.5 7.5c-4.66699 0 -11.167 -6.33301 -19.5 -19s-19.666 -26.834 -33.999 -42.501s-32.333 -29.834 -54 -42.501s-48.167 -19 -79.5 -19c-32 0 -54.667 8.16699 -68 24.5s-20 40.166 -20 71.499c0 30 6.16699 59.5 18.5 88.5
s29 54.667 50 77s45.333 40.333 73 54s56.834 20.5 87.501 20.5c26 0 47.833 -4.66699 65.5 -14s32 -22 43 -38s19 -34.333 24 -55s7.5 -42.334 7.5 -65.001c0 -124 -1.83301 -247.167 -5.5 -369.5s-5.5 -245.833 -5.5 -370.5v-81c0 -32.667 0.666992 -66.5 2 -101.5
s3.66602 -68.333 6.99902 -100s8 -56.834 14 -75.501c1.33301 -4.66699 3.5 -10.667 6.5 -18s6.83301 -14.333 11.5 -21s9.66699 -12.5 15 -17.5s10.666 -7.5 15.999 -7.5c16.667 0 29.5 6.5 38.5 19.5s15.167 25.833 18.5 38.5c9.33301 36 14.5 73.833 15.5 113.5
s1.5 78.167 1.5 115.5z" />
    <glyph glyph-name="r" unicode="r" horiz-adv-x="537" 
d="M623 156c0 3.33301 -0.503906 7.33398 -1.50391 12.001s-2.5 9.33398 -4.5 14.001s-4.5 8.66699 -7.5 12s-6.16699 5 -9.5 5c-2.66699 0 -8.83398 -6.66699 -18.501 -20s-21.167 -28.166 -34.5 -44.499s-28 -31.166 -44 -44.499s-32 -20 -48 -20
c-23.333 0 -39.166 7 -47.499 21s-12.5 31.333 -12.5 52s3 40.5 9 59.5s12.667 38 20 57s14 38 20 57s9 38.5 9 58.5c0 25.333 -6.66699 46.333 -20 63s-33.333 25 -60 25c-15.333 0 -30.5 -2 -45.5 -6s-29.833 -8.16699 -44.5 -12.5l-44 -12.5c-14.667 -4 -30 -6 -46 -6
c-6.66699 0 -14.167 0.333008 -22.5 1s-15.166 3.66699 -20.499 9c1.33301 4 2 8.5 2 13.5v13.5c0 14 -2 30 -6 48s-10.167 34.667 -18.5 50s-18.833 28.333 -31.5 39s-27.667 16 -45 16c-12 0 -22.5 -2.5 -31.5 -7.5s-16.5 -11.833 -22.5 -20.5
s-10.333 -18.334 -13 -29.001s-4 -21.667 -4 -33c0 -30.667 6.66699 -56.834 20 -78.501s31.666 -41.834 54.999 -60.501c0 -45.333 -3.5 -90.166 -10.5 -134.499s-15.167 -88.166 -24.5 -131.499c-3.33301 -19.333 -8.16602 -39.5 -14.499 -60.5s-9.5 -41.167 -9.5 -60.5
c0 -4 1.16699 -10.333 3.5 -19s5.33301 -17.5 9 -26.5s7.83398 -16.833 12.501 -23.5s9.33398 -9.66699 14.001 -9h2c5.33301 3.33301 11.5 14.666 18.5 33.999s14.167 43.166 21.5 71.499s14.666 59 21.999 92s13.833 64.667 19.5 95s10.334 57.5 14.001 81.5
s5.83398 40.667 6.50098 50c9.33301 -1.33301 18.5 -2 27.5 -2h26.5c17.333 0 34 1.66699 50 5s32.667 5 50 5c5.33301 0 10 -1.16699 14 -3.5s6 -6.5 6 -12.5c0 -14.667 -2.16699 -29.834 -6.5 -45.501l-14 -48.5c-5 -16.667 -9.66699 -33.334 -14 -50.001
s-6.5 -33.667 -6.5 -51c0 -53.333 15.5 -93.166 46.5 -119.499s72.167 -39.5 123.5 -39.5c22 0 42.5 4.66699 61.5 14s36 21.5 51 36.5s28.167 31.833 39.5 50.5s20.333 37.334 27 56.001c1.33301 3.33301 2 6.16602 2 8.49902v6.5z" />
    <glyph glyph-name="s" unicode="s" horiz-adv-x="481" 
d="M451 223c0 26.667 -4.16602 53.167 -12.499 79.5s-19.5 51.666 -33.5 75.999s-29.833 47.5 -47.5 69.5s-35.834 42 -54.501 60c-12 12 -22.833 21.833 -32.5 29.5s-24.167 11.5 -43.5 11.5c-11.333 0 -25.166 -0.666992 -41.499 -2s-29.833 -4 -40.5 -8
c-3.33301 -2 -9.66602 -8.83301 -18.999 -20.5s-20.166 -26 -32.499 -43l-38.5 -54.5c-13.333 -19.333 -25.5 -37.833 -36.5 -55.5l-27.5 -45.5c-7.33301 -12.667 -11 -21 -11 -25c0 -12.667 4.33301 -23.667 13 -33s19.334 -14 32.001 -14c4 0 10.5 5 19.5 15
s19.167 22.333 30.5 37l36.5 48.5c13 17.667 25.5 33.834 37.5 48.501s23 27 33 37s17.667 15 23 15c19.333 0 35.666 -9.16699 48.999 -27.5s24.166 -39.833 32.499 -64.5s14.5 -49.667 18.5 -75s6 -45 6 -59c0 -14.667 -3 -30.334 -9 -47.001s-14.167 -32 -24.5 -46
s-22.333 -25.5 -36 -34.5s-28.5 -13.5 -44.5 -13.5c-11.333 0 -22.333 1.33301 -33 4s-21.334 5.5 -32.001 8.5s-21.167 5.66699 -31.5 8s-20.5 3.5 -30.5 3.5c-4 0 -9 -1 -15 -3s-11.833 -4.66699 -17.5 -8s-10.334 -7.16602 -14.001 -11.499s-5.5 -8.83301 -5.5 -13.5
c0 -6.66699 4 -14.167 12 -22.5s18.167 -16.5 30.5 -24.5s26 -15.833 41 -23.5s29.833 -14.5 44.5 -20.5s28 -10.833 40 -14.5s21 -5.5 27 -5.5c36 0 68.667 7.33301 98 22s54.333 34.167 75 58.5s36.667 52.5 48 84.5s17 65 17 99z" />
    <glyph glyph-name="t" unicode="t" horiz-adv-x="281" 
d="M690 877c0 10 -6.66699 21.0059 -20 33.0059s-29 23.167 -47 33.5s-36 18.833 -54 25.5s-31.667 10 -41 10c-59.333 0 -118.166 -6 -176.499 -18s-116.833 -23 -175.5 -33c4 51.333 9.5 102.5 16.5 153.5s10.5 102.167 10.5 153.5c0 5.33301 -0.5 12 -1.5 20
s-3 15.667 -6 23s-6.83301 13.666 -11.5 18.999s-10.667 8 -18 8c-14.667 0 -26.667 -6.5 -36 -19.5s-15.666 -25.833 -18.999 -38.5c-6.66699 -24 -12.167 -50.333 -16.5 -79s-8 -58 -11 -88s-5.33301 -59.833 -7 -89.5s-3.16699 -57.5 -4.5 -83.5
c-29.333 -5.33301 -58.166 -10.333 -86.499 -15s-56.833 -7 -85.5 -7c-16.667 0 -32.834 2 -48.501 6s-31.834 6 -48.501 6c-4.66699 0 -9.83398 -2.5 -15.501 -7.5s-11 -10.667 -16 -17s-9.16699 -13 -12.5 -20s-5 -12.5 -5 -16.5c0 -12.667 4 -25.5 12 -38.5
s18 -24.5 30 -34.5s25.167 -18.167 39.5 -24.5s27.5 -9.5 39.5 -9.5c62.667 0 125.334 7.66699 188.001 23c-3.33301 -69.333 -5.5 -137.666 -6.5 -204.999s-1.5 -135 -1.5 -203c0 -44 0.5 -89.5 1.5 -136.5s6.83301 -92.167 17.5 -135.5c1.33301 -8 4.5 -21.167 9.5 -39.5
s11 -37 18 -56s14.667 -35.833 23 -50.5s16.833 -22 25.5 -22c12 0 21.333 6.16699 28 18.5s11.5 26.833 14.5 43.5s4.83301 33.334 5.5 50.001s1 29 1 37c0 53.333 -1.66699 106.666 -5 159.999s-6.83301 106.5 -10.5 159.5s-7.16699 106.167 -10.5 159.5
s-5 106.666 -5 159.999v40c0 13.333 0.666992 26.666 2 39.999c17.333 3.33301 34.666 6.16602 51.999 8.49902s34.666 4.16602 51.999 5.49902c10.667 1.33301 28.334 2.66602 53.001 3.99902s52.5 3.16602 83.5 5.49902s62.833 5.33301 95.5 9s62.667 8.5 90 14.5
s49.833 13.667 67.5 23s26.5 21 26.5 35z" />
    <glyph glyph-name="u" unicode="u" horiz-adv-x="731" 
d="M844 250c0 4 -1.33496 10.167 -4.00195 18.5s-6 16.666 -10 24.999s-8.33301 15.666 -13 21.999s-9.33398 9.16602 -14.001 8.49902c-3.33301 -3.33301 -6.33301 -11.166 -9 -23.499s-6 -26.5 -10 -42.5s-8.83301 -33 -14.5 -51s-12.834 -34.5 -21.501 -49.5
s-19.167 -27.333 -31.5 -37s-27.166 -14.5 -44.499 -14.5c-14.667 0 -27.167 5.66699 -37.5 17s-18.833 25.833 -25.5 43.5s-11.834 37.334 -15.501 59.001s-6.66699 43 -9 64s-4.33301 40.333 -6 58s-3.5 31.5 -5.5 41.5c-2 9.33301 -4.16699 18.833 -6.5 28.5
s-5.83301 18.5 -10.5 26.5s-10.5 14.5 -17.5 19.5s-16.5 7.5 -28.5 7.5c-18.667 0 -34.334 -9 -47.001 -27s-23.667 -40.333 -33 -67s-18.166 -55.667 -26.499 -87s-17.833 -60.333 -28.5 -87s-23.167 -49 -37.5 -67s-32.5 -27 -54.5 -27
c-20.667 0 -38.167 4.83301 -52.5 14.5s-26.166 22.5 -35.499 38.5s-16.833 34 -22.5 54s-9.83398 40.333 -12.501 61s-4.33398 40.834 -5.00098 60.501s-1 36.834 -1 51.501c0 14 -0.5 27.333 -1.5 40s-4 24 -9 34s-12.167 18 -21.5 24s-22.666 9 -39.999 9
c-14 0 -25.167 -3.83301 -33.5 -11.5s-14.666 -17 -18.999 -28s-7 -22.833 -8 -35.5s-1.5 -24 -1.5 -34c0 -21.333 1.33301 -46.5 4 -75.5s7.33398 -58.833 14.001 -89.5s15.334 -60.834 26.001 -90.501s24 -56.334 40 -80.001s35 -42.667 57 -57s47 -21.5 75 -21.5
s53 5.83301 75 17.5s41.5 26.834 58.5 45.501s31.5 39.667 43.5 63s22.333 46.333 31 69c2 4.66699 4.83301 13.5 8.5 26.5s7.83398 26.5 12.501 40.5s9.66699 26.5 15 37.5s10 16.5 14 16.5c3.33301 0 6 -4.5 8 -13.5s3.83301 -19.333 5.5 -31s3 -23 4 -34
s1.83301 -18.5 2.5 -22.5c2.66699 -20.667 6.66699 -42.667 12 -66s13.333 -45 24 -65s24.5 -36.5 41.5 -49.5s38.167 -19.5 63.5 -19.5c32 0 60 8.5 84 25.5s43.667 38.5 59 64.5s26.833 54.333 34.5 85s11.5 59.667 11.5 87z" />
    <glyph glyph-name="v" unicode="v" horiz-adv-x="526" 
d="M537 430c0 6 -1.16309 12.9951 -3.49609 20.9951s-5.5 15.833 -9.5 23.5s-9 14.167 -15 19.5s-12.667 8 -20 8c-8 0 -17.333 -9.66699 -28 -29s-22.167 -43.666 -34.5 -72.999s-24.833 -60.833 -37.5 -94.5s-25.334 -65.167 -38.001 -94.5
s-24.834 -53.666 -36.501 -72.999s-22.167 -29 -31.5 -29c-7.33301 0 -16.166 8.16699 -26.499 24.5s-21.333 37 -33 62s-23.834 52.5 -36.501 82.5l-35.5 87l-30 74.5c-9 21.667 -16.167 36.834 -21.5 45.501s-11 15.334 -17 20.001s-14.667 7 -26 7
c-6.66699 0 -14.334 -1.83301 -23.001 -5.5s-17 -8.5 -25 -14.5s-14.833 -12.833 -20.5 -20.5s-8.5 -15.167 -8.5 -22.5c0 -3.33301 0.666992 -6.33301 2 -9c8 -18 17.333 -42 28 -72l35.5 -96c13 -34 27.333 -68.167 43 -102.5s32.667 -65.333 51 -93
s38.166 -50.334 59.499 -68.001s44.333 -26.5 69 -26.5c11.333 0 24.333 7.5 39 22.5s30 34.333 46 58s31.833 49.834 47.5 78.501l44 83c13.667 26.667 25.5 50.834 35.5 72.501l22 47.5c1.33301 2.66699 3.83301 8.16699 7.5 16.5l11.5 27l11 27
c3.33301 8.33301 5 13.5 5 15.5z" />
    <glyph glyph-name="w" unicode="w" horiz-adv-x="862" 
d="M885 422c0 5.33301 -0.496094 11.8271 -1.49609 19.4941s-3 15 -6 22s-7 13 -12 18s-11.5 7.5 -19.5 7.5c-20.667 0 -38.5 -8.66699 -53.5 -26s-28.167 -39.166 -39.5 -65.499s-21.166 -54.833 -29.499 -85.5l-24 -85.5
c-7.66699 -26.333 -15.334 -48.166 -23.001 -65.499s-16.167 -26 -25.5 -26c-6 0 -13.5 7.33301 -22.5 22s-18.667 33.167 -29 55.5s-20.833 47 -31.5 74l-30 78l-25.5 67c-7.66699 19.667 -13.834 33.5 -18.501 41.5c-5.33301 7.33301 -10.666 13.666 -15.999 18.999
s-13 8 -23 8c-11.333 0 -21 -3 -29 -9l-25 -18c-15.333 -13.333 -28.666 -31.166 -39.999 -53.499s-21.166 -46 -29.499 -71s-15.833 -50.167 -22.5 -75.5s-13.167 -48.166 -19.5 -68.499s-12.5 -37 -18.5 -50s-13 -19.5 -21 -19.5c-6 0 -13.5 7.33301 -22.5 22
s-18.667 33.167 -29 55.5s-20.833 47 -31.5 74l-30.5 78l-26 67c-7.66699 19.667 -13.834 33.5 -18.501 41.5c-5.33301 7.33301 -10.5 13.666 -15.5 18.999s-12.833 8 -23.5 8c-6.66699 0 -14.167 -1.83301 -22.5 -5.5s-16.333 -8.5 -24 -14.5s-14 -12.667 -19 -20
s-7.5 -14.666 -7.5 -21.999c0 -1.33301 0.333008 -2.66602 1 -3.99902s1 -2.66602 1 -3.99902c5.33301 -16.667 11 -33 17 -49s11.667 -32.333 17 -49c5.33301 -14.667 11.666 -33.167 18.999 -55.5s16 -46.166 26 -71.499s21.167 -50.666 33.5 -75.999
s25.833 -48.166 40.5 -68.499s30.667 -36.833 48 -49.5s35.666 -19 54.999 -19c17.333 0 32.166 7 44.499 21s23.166 32 32.499 54s17.666 46.167 24.999 72.5l21 77.5c6.66699 25.333 13.834 48.333 21.501 69s16.834 36 27.501 46l19 -55c8 -22.667 17.5 -46.5 28.5 -71.5
s23.333 -50.167 37 -75.5s28.167 -48.333 43.5 -69s31.666 -37.334 48.999 -50.001s35.333 -19 54 -19c19.333 0 36 8.66699 50 26s26.167 39 36.5 65s19.666 54 27.999 84l24 84c7.66699 26 16 47.667 25 65s19.5 26 31.5 26c9.33301 0 17 2.83301 23 8.5s11 12.667 15 21
s6.83301 17.166 8.5 26.499s2.5 17.333 2.5 24z" />
    <glyph glyph-name="x" unicode="x" horiz-adv-x="559" 
d="M621 147c0 7.33301 -3.33496 14.9961 -10.002 22.9961s-13.667 12 -21 12c-8 0 -14.333 -5.5 -19 -16.5l-16 -36.5c-6 -13.333 -14.333 -25.5 -25 -36.5s-26.334 -16.5 -47.001 -16.5c-12 0 -25.833 5 -41.5 15s-31 22 -46 36s-29.167 28.333 -42.5 43l-31 35
c6 5.33301 15.167 14 27.5 26l41.5 41l47.5 48.5c16.333 17 31.333 33.5 45 49.5s24.834 30.5 33.501 43.5s13 23.167 13 30.5c0 8 -2.33301 15.333 -7 22s-10.334 12.334 -17.001 17.001s-14 8.33398 -22 11.001s-15.667 4 -23 4c-8 0 -18.333 -4 -31 -12
s-26.167 -18.333 -40.5 -31s-29.166 -26.667 -44.499 -42l-43 -44.5l-36 -40l-24 -27.5l-61.5 84.5c-19.667 28.333 -38.834 57.5 -57.501 87.5c-5.33301 8 -11.166 14.5 -17.499 19.5s-14.166 7.5 -23.499 7.5c-7.33301 0 -15.666 -1.83301 -24.999 -5.5
s-18.333 -8.33398 -27 -14.001s-15.834 -12.167 -21.501 -19.5s-8.5 -15 -8.5 -23c0 -4.66699 3.5 -13 10.5 -25s15.833 -25.833 26.5 -41.5s22.5 -32.167 35.5 -49.5l37.5 -49.5l32 -41.5c9.33301 -12 16 -20 20 -24c-3.33301 -4.66699 -9.16602 -12 -17.499 -22
l-28.5 -34.5l-33 -41l-31 -40.5c-9.33301 -12.667 -17 -24 -23 -34s-9 -17 -9 -21c0 -4.66699 2 -11 6 -19s8.83301 -15.667 14.5 -23s11.667 -13.666 18 -18.999s12.166 -8 17.499 -8c4 0 7.33301 1.33301 10 4c23.333 30.667 47.833 60.5 73.5 89.5s52.5 57.833 80.5 86.5
c14 -15.333 29.833 -31.333 47.5 -48s36.5 -31.834 56.5 -45.501s40.833 -25 62.5 -34s43.834 -13.5 66.501 -13.5c23.333 0 44.166 4.33301 62.499 13s33.833 20.334 46.5 35.001s22.334 31.834 29.001 51.501s10 40.834 10 63.501z" />
    <glyph glyph-name="y" unicode="y" horiz-adv-x="618" 
d="M608 -604c0 122.667 -3.16992 243.665 -9.50293 362.998l-18.5 362l-2.5 55c-1 22.667 -2.83301 47.334 -5.5 74.001s-6.5 53.5 -11.5 80.5s-11.833 51.5 -20.5 73.5s-19.834 40 -33.501 54s-30.167 21 -49.5 21s-38 -9 -56 -27s-35.167 -40.333 -51.5 -67
s-31.833 -55.667 -46.5 -87l-41.5 -87c-13 -26.667 -25.167 -49 -36.5 -67s-22 -27 -32 -27c-7.33301 0 -14.833 7.5 -22.5 22.5s-15 34 -22 57s-13.667 48.5 -20 76.5l-18 80.5l-16 69.5c-5 20.667 -9.16699 35.334 -12.5 44.001
c-3.33301 7.33301 -6.83301 12.833 -10.5 16.5s-9.83398 5.5 -18.501 5.5c-6 0 -13.167 -1.83301 -21.5 -5.5s-16.333 -8.33398 -24 -14.001s-14.167 -12 -19.5 -19s-8 -13.833 -8 -20.5c0 -14.667 2.5 -32.167 7.5 -52.5s9.16699 -38.166 12.5 -53.499
c2.66699 -13.333 5.83398 -31 9.50098 -53s8.33398 -45.667 14.001 -71s12.667 -51 21 -77s18 -49.333 29 -70s23.667 -37.667 38 -51s30.5 -20 48.5 -20c18.667 0 36.834 8 54.501 24s34.834 36 51.501 60s32.834 50.167 48.501 78.5s30.834 54.5 45.501 78.5
s28.667 44 42 60s26 24 38 24c9.33301 0 16.5 -3.5 21.5 -10.5s8.66699 -15.5 11 -25.5s3.66602 -20.167 3.99902 -30.5s0.5 -18.833 0.5 -25.5c0 -78 -2 -156.167 -6 -234.5s-8.5 -156.5 -13.5 -234.5s-9.5 -155.833 -13.5 -233.5s-6 -155.5 -6 -233.5
c0 -14 0.166992 -33.167 0.5 -57.5s1 -49.333 2 -75s2.66699 -50 5 -73s5.5 -40.5 9.5 -52.5c4 -13.333 11 -25.833 21 -37.5s22.667 -17.5 38 -17.5c6.66699 0 13.167 2.16699 19.5 6.5s12.333 9.5 18 15.5s10.5 12.333 14.5 19s7 12.667 9 18
c8 16.667 14.167 41.5 18.5 74.5s7.5 68.167 9.5 105.5s3.33301 73.5 4 108.5s1 62.5 1 82.5z" />
    <glyph glyph-name="z" unicode="z" horiz-adv-x="582" 
d="M582 422c0 26 -8.83301 48.165 -26.5 66.498s-39 33.333 -64 45s-51.5 20.167 -79.5 25.5s-52.667 8 -74 8s-45 -3.16699 -71 -9.5s-52.333 -15.166 -79 -26.499s-52.5 -25 -77.5 -41s-47.167 -33.833 -66.5 -53.5s-34.833 -41 -46.5 -64s-17.5 -46.833 -17.5 -71.5
c0 -14.667 2.83301 -29.167 8.5 -43.5s13.334 -27 23.001 -38s21.167 -20 34.5 -27s28 -10.5 44 -10.5c12 0 23.5 2.16699 34.5 6.5s21 10.333 30 18s16.167 16.834 21.5 27.501s8 22 8 34c0 19.333 -4 32.5 -12 39.5s-17 11.667 -27 14l-27 6.5c-8 2 -12 8 -12 18
c0 17.333 8.66699 33.833 26 49.5s37.833 29.167 61.5 40.5s48 20.333 73 27s44.833 10 59.5 10c10 0 20.833 -1.16699 32.5 -3.5s22.667 -6 33 -11s19 -11.833 26 -20.5s10.5 -19.334 10.5 -32.001c0 -18.667 -7.66699 -35.834 -23 -51.501
s-32.166 -30.834 -50.499 -45.501s-35.166 -29.834 -50.499 -45.501s-23 -33.167 -23 -52.5c0 -8 2.66699 -19.333 8 -34s11.666 -30.167 18.999 -46.5l22 -47.5c7.33301 -15.333 12.666 -28 15.999 -38c-43.333 -58.667 -82.5 -122.334 -117.5 -191.001
s-64.667 -139.834 -89 -213.501s-43.166 -148.5 -56.499 -224.5s-20 -151 -20 -225c0 -24.667 2 -51.5 6 -80.5s11.667 -56 23 -81s26.833 -46 46.5 -63s45.167 -25.5 76.5 -25.5c27.333 0 52.666 8.33301 75.999 25s44.833 39 64.5 67s37.5 60.5 53.5 97.5
s30.167 76 42.5 117s23.166 82.5 32.499 124.5s16.833 82.167 22.5 120.5s10 73.333 13 105s4.5 57.834 4.5 78.501c0 42.667 -2 83.834 -6 123.501s-10.5 78.334 -19.5 116.001s-20.667 75.167 -35 112.5s-31.5 75 -51.5 113c-3.33301 7.33301 -8.33301 17.333 -15 30
s-10 23.334 -10 32.001s4.83301 17.334 14.5 26.001s21.667 17.834 36 27.501l47 31c17 11 32.667 23.167 47 36.5s26.333 28 36 44s14.5 34 14.5 54zM401 -311.002c0 -13.333 -1.1709 -32.501 -3.50391 -57.501s-5.66602 -53.5 -9.99902 -85.5
s-9.66602 -66.167 -15.999 -102.5s-13.666 -72.333 -21.999 -108s-17.833 -69.834 -28.5 -102.501s-22.167 -61.5 -34.5 -86.5s-25.666 -44.667 -39.999 -59s-29.5 -20.833 -45.5 -19.5h-4c-6.66699 13.333 -10.5 27.5 -11.5 42.5s-1.5 29.5 -1.5 43.5
c0 58 4.83301 121.833 14.5 191.5s23.167 139.834 40.5 210.501s38 138.834 62 204.501s50 123.5 78 173.5c8 -40 13.667 -80.5 17 -121.5s5 -82.167 5 -123.5z" />
    <glyph glyph-name="braceleft" unicode="{" horiz-adv-x="856" 
d="M795 1370c0 8 -3.16797 18.1729 -9.50098 30.5059s-14 24.5 -23 36.5s-18.333 22.667 -28 32s-18.167 14.666 -25.5 15.999c-4.66699 1.33301 -9 2 -13 2h-12c-26 0 -53 -2.5 -81 -7.5s-56.167 -10.333 -84.5 -16l-83.5 -16c-27.333 -5 -53 -7.5 -77 -7.5
c-14 0 -26 3.33301 -36 10s-19.667 10 -29 10c-4 0 -7.83301 -2.66699 -11.5 -8s-6.83398 -11.333 -9.50098 -18s-4.66699 -13.334 -6 -20.001s-2 -11.667 -2 -15c0 -12.667 1.83301 -24.5 5.5 -35.5s8.83398 -21.833 15.501 -32.5
c-10.667 -57.333 -18.167 -114.166 -22.5 -170.499s-9.16602 -113.5 -14.499 -171.5c-1.33301 -15.333 -6.83301 -30.5 -16.5 -45.5s-21.5 -30 -35.5 -45s-28.833 -29.833 -44.5 -44.5s-30.167 -29.334 -43.5 -44.001s-24.5 -29.334 -33.5 -44.001s-13.5 -29 -13.5 -43
c0 -12 4.16699 -23.667 12.5 -35s19 -22.5 32 -33.5s26.833 -22 41.5 -33l41.5 -32c13 -10.333 23.667 -20.833 32 -31.5s12.5 -21.334 12.5 -32.001c0 -26.667 -0.166992 -55 -0.5 -85s0 -60.5 1 -91.5s2.83301 -61.5 5.5 -91.5s7 -58 13 -84
c2 -11.333 4.33301 -22.5 7 -33.5s5.66699 -21.5 9 -31.5c-7.33301 -7.33301 -13.166 -16.833 -17.499 -28.5s-6.5 -22.167 -6.5 -31.5c0 -7.33301 1.66699 -16.833 5 -28.5s7.66602 -23.334 12.999 -35.001s11.5 -22 18.5 -31s14.5 -14.167 22.5 -15.5
c6 -2.66699 12 -4.16699 18 -4.5s11.667 -0.5 17 -0.5c17.333 0 34.333 1.5 51 4.5s33.167 6.16699 49.5 9.5l49 10c16.333 3.33301 32.833 5.66602 49.5 6.99902c9.33301 0.666992 23.333 1 42 1h59c20.667 0 40 0.5 58 1.5s30.333 2.83301 37 5.5
c12.667 4.66699 22.667 10.5 30 17.5s11 17.833 11 32.5c0 7.33301 -3.16699 16.833 -9.5 28.5s-13.833 23.334 -22.5 35.001s-17.834 22.167 -27.501 31.5s-17.834 15 -24.501 17c-4 1.33301 -8.33301 2 -13 2h-13c-24.667 0 -49.334 -1.83301 -74.001 -5.5
s-49.167 -8 -73.5 -13l-73 -15.5c-24.333 -5.33301 -48.5 -9.66602 -72.5 -12.999c1.33301 11.333 2.33301 22.666 3 33.999s1 22.666 1 33.999c0 39.333 -1.5 78.666 -4.5 117.999s-5.83301 79 -8.5 119c-2 21.333 -3.66699 43.166 -5 65.499s-3 44.166 -5 65.499
c-0.666992 12 -5.5 23.5 -14.5 34.5s-19.833 22.167 -32.5 33.5s-26.167 22.333 -40.5 33s-27.666 21.334 -39.999 32.001s-22.5 21.334 -30.5 32.001s-12 21.334 -12 32.001c0 4 4 10.5 12 19.5s18.167 19.5 30.5 31.5l40 39c14.333 14 27.833 28 40.5 42
s23.334 27.667 32.001 41s13.667 25.333 15 36c2 23.333 3.33301 46.833 4 70.5s2 47.834 4 72.501l9.5 104.5c3 34.333 5.5 69.166 7.5 104.499c30 3.33301 59.5 8.83301 88.5 16.5s58.833 12.5 89.5 14.5c9.33301 0.666992 23.5 1 42.5 1h59c20.333 0 39.333 0.5 57 1.5
s29.834 2.83301 36.501 5.5c12 4 22.5 9.5 31.5 16.5s13.5 17.167 13.5 30.5z" />
    <glyph glyph-name="bar" unicode="|" horiz-adv-x="281" 
d="M219 1370l0.000976562 20.5029c0 9.66699 -0.666992 16.5 -2 20.5c-2.66699 6 -6.5 12 -11.5 18s-10.667 11.667 -17 17s-13.166 9.66602 -20.499 12.999s-14.333 5 -21 5c-13.333 0 -24.5 -7.5 -33.5 -22.5s-16.333 -34.167 -22 -57.5s-10.167 -49 -13.5 -77
s-5.83301 -54.833 -7.5 -80.5s-2.83398 -48.667 -3.50098 -69s-1 -34.166 -1 -41.499c-2.66699 -30 -4.16699 -59.333 -4.5 -88s-0.5 -57.334 -0.5 -86.001c0 -140 3.66699 -279.5 11 -418.5s18 -278.167 32 -417.5c0.666992 -3.33301 1.66699 -10.5 3 -21.5
s2.66602 -22.667 3.99902 -35s2.83301 -24 4.5 -35s2.83398 -17.833 3.50098 -20.5c4 -12.667 8.66699 -22.667 14 -30s15.666 -11 30.999 -11c11.333 0 19.833 3.16699 25.5 9.5s9.66699 14.166 12 23.499s3.5 19.166 3.5 29.499v27.5c0 112 -2.83301 223.5 -8.5 334.5
s-8.5 222.833 -8.5 335.5c0 68 1.83301 135.5 5.5 202.5l11.5 202.5c3.33301 42 6.5 84 9.5 126s4.5 84 4.5 126z" />
    <glyph glyph-name="braceright" unicode="}" horiz-adv-x="856" 
d="M795 723c0 14.667 -4.50098 29.1621 -13.501 43.4951s-20.167 28.833 -33.5 43.5s-27.833 29.334 -43.5 44.001s-30.5 29.5 -44.5 44.5s-25.833 30 -35.5 45s-15.167 30.167 -16.5 45.5c-5.33301 58 -10.166 115.167 -14.499 171.5s-11.833 113.166 -22.5 170.499
c6.66699 10.667 11.834 21.5 15.501 32.5s5.5 22.833 5.5 35.5c0 3.33301 -0.833008 8.33301 -2.5 15s-3.83398 13.334 -6.50098 20.001s-5.66699 12.667 -9 18s-7 8 -11 8c-9.33301 0 -19 -3.33301 -29 -10s-22 -10 -36 -10c-24 0 -49.667 2.5 -77 7.5l-83.5 16
c-28.333 5.66699 -56.5 11 -84.5 16s-55 7.5 -81 7.5h-12c-4 0 -8.33301 -0.666992 -13 -2c-6.66699 -1.33301 -15 -6.66602 -25 -15.999s-19.5 -20 -28.5 -32s-16.667 -24.167 -23 -36.5s-9.5 -22.5 -9.5 -30.5c0 -13.333 4.33301 -23.5 13 -30.5s18.667 -12.5 30 -16.5
c7.33301 -2.66699 20 -4.5 38 -5.5s37.167 -1.5 57.5 -1.5h59c19 0 33.167 -0.333008 42.5 -1c30 -2 59.5 -6.83301 88.5 -14.5s58.833 -13.167 89.5 -16.5c1.33301 -35.333 3.5 -70.166 6.5 -104.499s5.83301 -69.166 8.5 -104.499c2 -24.667 3.66699 -48.834 5 -72.501
s3 -47.167 5 -70.5c1.33301 -10.667 6.33301 -22.667 15 -36s19.334 -27 32.001 -41s26.167 -28 40.5 -42l40 -39c12.333 -12 22.5 -22.5 30.5 -31.5s12 -15.5 12 -19.5c0 -10.667 -4 -21.334 -12 -32.001s-18.167 -21.334 -30.5 -32.001s-25.833 -21.334 -40.5 -32.001
s-28.334 -21.667 -41.001 -33s-23.5 -22.5 -32.5 -33.5s-14.167 -22.5 -15.5 -34.5c-2 -21.333 -3.33301 -43.166 -4 -65.499s-2 -44.166 -4 -65.499c-3.33301 -40 -6.33301 -79.667 -9 -119s-4 -78.666 -4 -117.999v-34c0 -11.333 0.666992 -22.666 2 -33.999
c-23.333 3.33301 -47 7.66602 -71 12.999l-72.5 15.5c-24.333 5 -48.666 9.33301 -72.999 13s-48.833 5.5 -73.5 5.5h-14c-4.66699 0 -9 -0.666992 -13 -2c-7.33301 -2 -15.833 -7.66699 -25.5 -17s-18.834 -19.833 -27.501 -31.5s-16 -23.334 -22 -35.001
s-9 -21.167 -9 -28.5c0 -14.667 3.66699 -25.5 11 -32.5s17.333 -12.833 30 -17.5c6.66699 -2.66699 18.834 -4.5 36.501 -5.5s36.667 -1.5 57 -1.5h59c19 0 32.833 -0.333008 41.5 -1c17.333 -1.33301 34.333 -3.66602 51 -6.99902l49.5 -10
c16.333 -3.33301 32.833 -6.5 49.5 -9.5s33 -4.5 49 -4.5c6 0 12 0.166992 18 0.5s11.667 1.83301 17 4.5c8 1.33301 15.833 6.5 23.5 15.5s14.167 19.333 19.5 31s9.66602 23.334 12.999 35.001s5 21.167 5 28.5c0 9.33301 -2.5 19.833 -7.5 31.5s-10.5 21.167 -16.5 28.5
c3.33301 10 6.33301 20.5 9 31.5s5 22.167 7 33.5c6 26 10.333 54 13 84s4.5 60.5 5.5 91.5s1.33301 61.5 1 91.5s-0.5 58.333 -0.5 85c0 10.667 4.16699 21.334 12.5 32.001s19 21.167 32 31.5l41.5 32c14.667 11 28.5 22 41.5 33s23.667 22.167 32 33.5s12.5 23 12.5 35z
" />
    <glyph glyph-name="asciitilde" unicode="~" horiz-adv-x="993" 
d="M932 696c0 4 -1.83301 10.1689 -5.5 18.502s-8.33398 16.666 -14.001 24.999s-11.5 15.5 -17.5 21.5s-11.333 9 -16 9c-6 0 -15.833 -4.33301 -29.5 -13s-29.334 -18 -47.001 -28s-36 -19.333 -55 -28s-36.833 -13 -53.5 -13c-28.667 0 -57.5 5.5 -86.5 16.5
s-58.333 23.333 -88 37s-59.834 26 -90.501 37s-62.334 16.5 -95.001 16.5c-19.333 0 -38.666 -2.83301 -57.999 -8.5s-37.666 -12.5 -54.999 -20.5c-8 -3.33301 -20.833 -10.5 -38.5 -21.5s-35.5 -23.333 -53.5 -37s-33.833 -27.334 -47.5 -41.001
s-20.5 -24.834 -20.5 -33.501c0 -4 1.83301 -10.167 5.5 -18.5s8.33398 -16.666 14.001 -24.999s11.5 -15.5 17.5 -21.5s11 -9 15 -9c6 0 16.167 4.16699 30.5 12.5l47.5 27.5c17.333 10 35.333 19.167 54 27.5s35.334 12.5 50.001 12.5c25.333 0 51.5 -5.33301 78.5 -16
s55.167 -22.5 84.5 -35.5s60 -25 92 -36s65.667 -16.5 101 -16.5c21.333 0 42 2.33301 62 7s39.667 11.667 59 21c8 4 20.833 11.5 38.5 22.5s35.5 23.333 53.5 37s33.833 27.167 47.5 40.5s20.5 24.333 20.5 33z" />
    <glyph glyph-name="nonbreakingspace" unicode="&#xa0;" horiz-adv-x="430" 
 />
    <glyph glyph-name="exclamdown" unicode="&#xa1;" horiz-adv-x="387" 
d="M115 131c0 28 0.333008 62 1 102s1.66699 83 3 129s2.83301 94 4.5 144s3.5 99.167 5.5 147.5l6 139c2 44.333 4 83.833 6 118.5l5 85.5c1.33301 22.333 2.66602 36.166 3.99902 41.499c2 12.667 8.5 20.667 19.5 24s22.167 5 33.5 5c5.33301 0 10.833 -1.33301 16.5 -4
s10.167 -9.66699 13.5 -21c2.66699 -10 5.66699 -28.667 9 -56s6.66602 -60.666 9.99902 -99.999s6.83301 -83.333 10.5 -132s6.83398 -99.334 9.50098 -152.001s4.83398 -106 6.50098 -160s2.5 -105.667 2.5 -155c0 -31.333 -0.166992 -60.666 -0.5 -87.999
s-1.83301 -53.333 -4.5 -78c-2.66699 -40 -5 -71.833 -7 -95.5s-4.83301 -41.5 -8.5 -53.5s-8.16699 -19.833 -13.5 -23.5s-12.666 -5.5 -21.999 -5.5c-6.66699 0 -14.834 0.833008 -24.501 2.5s-19 4.16699 -28 7.5s-17.167 7.5 -24.5 12.5s-12.333 10.5 -15 16.5
c-8 18 -13 39.833 -15 65.5s-3 53.5 -3 83.5zM61 1309c0 13.333 3.50098 29.001 10.501 47.001s16.5 35.167 28.5 51.5s26.5 30.166 43.5 41.499s35.5 17 55.5 17c19.333 0 36.833 -4.66699 52.5 -14s29 -20.833 40 -34.5s19.5 -28 25.5 -43s9 -28.167 9 -39.5
c0 -12.667 -2.33301 -27 -7 -43s-12.834 -31 -24.501 -45s-27.5 -25.667 -47.5 -35s-45 -14 -75 -14c-20.667 0 -38 3.83301 -52 11.5s-25.333 17 -34 28s-15 23 -19 36s-6 24.833 -6 35.5z" />
    <glyph glyph-name="cent" unicode="&#xa2;" horiz-adv-x="862" 
d="M801 649c0 7.33301 -3.15234 14.335 -9.48535 21.002s-13.5 10 -21.5 10c-11.333 0 -20 -3.33301 -26 -10s-11.667 -14.334 -17 -23.001c-17.333 -24.667 -35.333 -46.834 -54 -66.501s-38.834 -36.5 -60.501 -50.5s-45.334 -24.667 -71.001 -32
s-54.5 -11.666 -86.5 -12.999c-1.33301 41.333 -2.33301 82.333 -3 123s-1 81 -1 121c0 60.667 1.33301 121.167 4 181.5s6 120.833 10 181.5c5.33301 1.33301 10.833 2.33301 16.5 3s11.834 1 18.501 1c10 0 20.167 -0.833008 30.5 -2.5s19.666 -4.66699 27.999 -9
s15 -10.5 20 -18.5s7.5 -18 7.5 -30c0 -10 -2.33301 -19 -7 -27s-9.83398 -16.333 -15.501 -25s-10.834 -18.334 -15.501 -29.001s-7 -24 -7 -40c0 -13.333 3.5 -24.166 10.5 -32.499s17.833 -12.5 32.5 -12.5c18 0 35 6.33301 51 19s30 28.334 42 47.001
s21.667 38.334 29 59.001s11 39.334 11 56.001c0 31.333 -8.83301 55.5 -26.5 72.5s-39.334 29.5 -65.001 37.5s-52.834 12.667 -81.501 14s-54.334 1.66602 -77.001 0.999023c3.33301 34 6.16602 67.667 8.49902 101s3.5 67 3.5 101
c0 7.33301 -0.166992 14.166 -0.5 20.499s-1.5 12.5 -3.5 18.5c-1.33301 5.33301 -4.16602 11 -8.49902 17s-9.33301 11.667 -15 17s-11.667 9.83301 -18 13.5s-12.166 5.5 -17.499 5.5c-10.667 0 -19.834 -6.83301 -27.501 -20.5s-14.167 -31.334 -19.5 -53.001
s-9.33301 -45.5 -12 -71.5s-4.83398 -51.167 -6.50098 -75.5s-2.83398 -46.333 -3.50098 -66s-1 -33.834 -1 -42.501c-39.333 -16.667 -76.333 -39 -111 -67s-64.834 -60 -90.501 -96s-46 -75 -61 -117s-22.5 -84.667 -22.5 -128c0 -44.667 7.33301 -86.334 22 -125.001
s35.167 -73 61.5 -103s57.666 -54.833 93.999 -74.5s76.166 -33.5 119.499 -41.5c2 -42 4.83301 -84.333 8.5 -127s7.16699 -85.667 10.5 -129c2 -21.333 3.5 -43.5 4.5 -66.5s4.16699 -45.167 9.5 -66.5c3.33301 -12.667 7.83301 -22.667 13.5 -30s15.5 -11 29.5 -11
c8 0 14.167 3.33301 18.5 10s7.5 14.5 9.5 23.5s3 18.5 3 28.5v24c0 56.667 -0.833008 113 -2.5 169s-3.5 113 -5.5 171c64 2 123.167 17.167 177.5 45.5s98.166 70.5 131.499 126.5l11.5 20.5c4.33301 7.66699 8.16602 15.834 11.499 24.501s6.16602 17 8.49902 25
s3.5 15.333 3.5 22zM352.015 494.002c-26 7.33301 -50.333 19 -73 35s-42.5 34.667 -59.5 56s-30.5 45 -40.5 71s-15 53 -15 81c0 66 16 124.667 48 176s75.333 95 130 131v-110c0 -74.667 0.833008 -148.167 2.5 -220.5s4.16699 -145.5 7.5 -219.5z" />
    <glyph glyph-name="sterling" unicode="&#xa3;" horiz-adv-x="848" 
d="M786 342c0 6 -3.32617 13.1709 -9.99316 21.5039s-14.5 16.166 -23.5 23.499s-18.5 13.5 -28.5 18.5s-18 7.83301 -24 8.5h-14c-76 0 -152 -4.33301 -228 -13s-152.333 -16.667 -229 -24c19.333 24.667 38 51.667 56 81s31.667 59 41 89c14 2 28.167 3.83301 42.5 5.5
s28.833 2.5 43.5 2.5c14 1.33301 31 2.16602 51 2.49902s40.5 0.833008 61.5 1.5s41.333 1.83398 61 3.50098s35.5 3.83398 47.5 6.50098c3.33301 0.666992 7.5 1.66699 12.5 3s10.167 3.16602 15.5 5.49902s9.83301 5.16602 13.5 8.49902s5.5 7.33301 5.5 12
c0 6 -3.83301 12.333 -11.5 19s-16.667 13 -27 19s-20.833 11.167 -31.5 15.5s-18.667 6.83301 -24 7.5c-18.667 2 -38.834 2.5 -60.501 1.5s-43.834 -3 -66.501 -6s-44.834 -6.16699 -66.501 -9.5s-41.834 -6 -60.501 -8c-4 25.333 -10.833 48.5 -20.5 69.5l-29.5 63
c-10 21 -18.833 43.167 -26.5 66.5s-11.5 49.666 -11.5 78.999c0 30 3.33301 58.667 10 86s17.5 51.333 32.5 72s34.5 37.167 58.5 49.5s53 18.5 87 18.5c23.333 0 46.166 -3.33301 68.499 -10s42.166 -16.667 59.499 -30s31.333 -29.833 42 -49.5s16 -42.5 16 -68.5
c0 -28 -5.33301 -50.167 -16 -66.5s-27.667 -29.5 -51 -39.5c-6 -2 -12.333 -6.5 -19 -13.5s-12.834 -14.833 -18.501 -23.5s-10.334 -17.334 -14.001 -26.001s-5.5 -15.667 -5.5 -21c0 -10.667 4.16699 -19.167 12.5 -25.5s17.833 -9.5 28.5 -9.5c24 0 47 6.83301 69 20.5
s41.333 30.667 58 51s30 42.833 40 67.5s15 48 15 70c0 40.667 -8.66699 76.5 -26 107.5s-40.166 56.833 -68.499 77.5s-60.333 36.167 -96 46.5s-71.834 15.5 -108.501 15.5c-43.333 0 -83.166 -7.16699 -119.499 -21.5s-67.5 -34.5 -93.5 -60.5s-46.167 -57 -60.5 -93
s-21.5 -75.667 -21.5 -119c0 -22 1.66699 -42.5 5 -61.5s8.16602 -37 14.499 -54s14 -33.833 23 -50.5s18.833 -34 29.5 -52c7.33301 -12 14.5 -24.667 21.5 -38s12.5 -27 16.5 -41c-9.33301 -1.33301 -18.833 -2 -28.5 -2h-28.5c-9.33301 0 -18.666 1.66699 -27.999 5
s-19 5 -29 5c-4 0 -8 -1.33301 -12 -4s-7.66699 -6 -11 -10s-6.16602 -8.33301 -8.49902 -13s-3.5 -8.66699 -3.5 -12c0 -10 3 -18.833 9 -26.5s13.333 -14.167 22 -19.5s18 -9.33301 28 -12s19 -4 27 -4h23.5c7.66699 0 15.5 0.666992 23.5 2
c-13.333 -22.667 -29 -43.834 -47 -63.501l-53 -58.5l-13.5 -13.5c-6.33301 -6.33301 -12.666 -13 -18.999 -20s-11.833 -13.833 -16.5 -20.5s-7 -12 -7 -16c0 -10.667 3.33301 -20.667 10 -30s15 -17.333 25 -24s20.667 -12 32 -16s22 -6 32 -6
c38.667 0 77.5 1.5 116.5 4.5s78 6.5 117 10.5l117.5 11.5c39.333 3.66699 78.666 5.83398 117.999 6.50098c8 0.666992 20.833 0.666992 38.5 0s35.167 0 52.5 2s32.666 6.16699 45.999 12.5s20 16.5 20 30.5z" />
    <glyph glyph-name="currency" unicode="&#xa4;" horiz-adv-x="1198" 
d="M1137 582c0 9.33301 -3.83594 16.6621 -11.5029 21.9951s-15.5 8 -23.5 8c-9.33301 0 -19 -5.83301 -29 -17.5s-21.5 -26.167 -34.5 -43.5s-28.667 -36.166 -47 -56.499s-40.833 -39.166 -67.5 -56.499s-58.5 -31.833 -95.5 -43.5s-80.5 -17.5 -130.5 -17.5
c-64.667 0 -123 14.333 -175 43s-92.667 73 -122 133c13.333 1.33301 30 2.33301 50 3s40.333 1.66699 61 3s40.5 3 59.5 5s34.5 4.33301 46.5 7c4 1.33301 8.83301 2.83301 14.5 4.5s11 3.66699 16 6s9.16699 5.5 12.5 9.5s5 8.33301 5 13c0 6 -4.16699 12.667 -12.5 20
s-18.166 14.166 -29.499 20.499s-22.833 11.5 -34.5 15.5s-20.5 6 -26.5 6c-32 0 -64.333 -3.16699 -97 -9.5s-65 -12.166 -97 -17.499c0 8 -0.333008 16.167 -1 24.5s-1 16.5 -1 24.5c0 27.333 2 53.333 6 78c36 3.33301 71.333 6.33301 106 9s69.667 5.66699 105 9
c16 1.33301 32.5 2.33301 49.5 3s33.167 2.66699 48.5 6c4 1.33301 9 2.66602 15 3.99902s11.833 3 17.5 5s10.5 4.83301 14.5 8.5s6 7.83398 6 12.501c0 6.66699 -4.83301 13.667 -14.5 21s-20.834 14 -33.501 20s-25.334 11 -38.001 15s-22 6 -28 6
c-36 0 -72.667 -2.83301 -110 -8.5l-110 -16.5c15.333 34 36.5 67 63.5 99s57.167 60.5 90.5 85.5s69 45.167 107 60.5s76 23 114 23c14 0 27.667 -1 41 -3s25.333 -6 36 -12s19.334 -14.167 26.001 -24.5s10 -23.5 10 -39.5c0 -12.667 -2.83301 -23.667 -8.5 -33l-18 -28.5
c-6.33301 -9.66699 -12.333 -20.834 -18 -33.501s-8.5 -29 -8.5 -49c0 -14 3 -25.667 9 -35s16.667 -14 32 -14s28.833 3.5 40.5 10.5s23.167 15.833 34.5 26.5c23.333 22.667 42.5 48.834 57.5 78.501s22.5 61.5 22.5 95.5c0 30.667 -8.16699 55.667 -24.5 75
s-36.666 34.333 -60.999 45s-50.833 17.834 -79.5 21.501s-55 5.5 -79 5.5c-54 0 -107.333 -9.83301 -160 -29.5s-101.5 -46.5 -146.5 -80.5s-84.667 -73.5 -119 -118.5s-60.166 -92.833 -77.499 -143.5c-19.333 -2 -38.666 -4.66699 -57.999 -8s-38.333 -5 -57 -5
c-12.667 0 -24.667 1.5 -36 4.5s-22.666 4.5 -33.999 4.5c-3.33301 0 -7.33301 -1.33301 -12 -4s-9 -5.66699 -13 -9s-7.33301 -7 -10 -11s-4 -7.66699 -4 -11c0 -9.33301 3.33301 -18 10 -26s14.834 -15 24.501 -21s19.834 -10.667 30.501 -14s20 -5 28 -5
c17.333 0 35 1.16699 53 3.5s35.667 4.83301 53 7.5c-2 -11.333 -3.16699 -22.333 -3.5 -33s-0.5 -21.667 -0.5 -33c0 -10 0.333008 -20.167 1 -30.5s1.66699 -20.5 3 -30.5l-48 -8.5c-16.667 -3 -33.334 -4.5 -50.001 -4.5c-11.333 0 -22.333 1.33301 -33 4
s-21.667 4 -33 4c-2.66699 0 -6.16699 -1.33301 -10.5 -4s-8.16602 -5.83398 -11.499 -9.50098s-6.33301 -7.5 -9 -11.5s-4 -7.66699 -4 -11c0 -8 2.83301 -15.833 8.5 -23.5s12.5 -14.5 20.5 -20.5s16.667 -10.833 26 -14.5s17.666 -5.5 24.999 -5.5c23.333 0 47 2 71 6
s47.667 8.33301 71 13c16 -46 38 -85.833 66 -119.5s60.167 -61.167 96.5 -82.5s76.166 -37.166 119.499 -47.499s88.333 -15.5 135 -15.5c40.667 0 80.167 4.16699 118.5 12.5s74.5 21 108.5 38s65.5 38.333 94.5 64s53.833 55.834 74.5 90.501
c3.33301 5.33301 7.16602 12.833 11.499 22.5l13.5 30.5c4.66699 10.667 8.5 20.834 11.5 30.501s4.5 17.5 4.5 23.5z" />
    <glyph glyph-name="yen" unicode="&#xa5;" horiz-adv-x="1206" 
d="M1147 700c0 6 -4.49121 12.5029 -13.4912 19.5029s-19.5 13.5 -31.5 19.5s-23.833 11 -35.5 15s-20.5 6 -26.5 6c-28 0 -56.667 -2 -86 -6c2 18.667 3.83301 37.167 5.5 55.5s3.5 37.166 5.5 56.499c7.33301 0.666992 20.833 1.5 40.5 2.5s40 3 61 6
s39.667 7.33301 56 13s24.5 13.5 24.5 23.5c0 6 -4.5 12.5 -13.5 19.5s-19.5 13.5 -31.5 19.5s-23.833 11 -35.5 15s-20.5 6 -26.5 6c-11.333 0 -23 -0.333008 -35 -1s-24 -1.66699 -36 -3c4 39.333 6 78 6 116c0 12.667 -0.5 27.334 -1.5 44.001s-3.83301 32.5 -8.5 47.5
s-12 27.833 -22 38.5s-24 16 -42 16c-20 0 -37 -5.33301 -51 -16s-25.833 -24.667 -35.5 -42s-17.334 -37 -23.001 -59s-10.334 -44 -14.001 -66s-6.33398 -43 -8.00098 -63s-3.5 -37 -5.5 -51c-22.667 -3.33301 -44.834 -7 -66.501 -11s-43.167 -6 -64.5 -6
c-10.667 0 -20.667 1.5 -30 4.5s-19.333 4.5 -30 4.5c-2.66699 0 -6 -1.5 -10 -4.5s-7.5 -6.5 -10.5 -10.5s-5.66699 -8 -8 -12s-3.5 -7.33301 -3.5 -10c0 -9.33301 2.83301 -17.833 8.5 -25.5s12.667 -14.334 21 -20.001s17.166 -10.167 26.499 -13.5s18 -5 26 -5
c21.333 0 42.666 1.66699 63.999 5l63 10c-2.66699 -20.667 -5.66699 -40.834 -9 -60.501s-6 -39.834 -8 -60.501c-16.667 -3.33301 -33 -6.16602 -49 -8.49902s-32.333 -3.5 -49 -3.5c-10.667 0 -21 1.33301 -31 4s-20.333 4 -31 4c-2.66699 0 -6 -1.33301 -10 -4
s-7.5 -6 -10.5 -10s-5.66699 -8 -8 -12s-3.5 -7.66699 -3.5 -11c0 -8.66699 2.66699 -16.834 8 -24.501s12.166 -14.5 20.499 -20.5s17.333 -10.667 27 -14s18.5 -5 26.5 -5c15.333 0 30.666 0.833008 45.999 2.5s30.666 3.83398 45.999 6.50098
c-4.66699 -22.667 -11.167 -50 -19.5 -82s-19.5 -62.833 -33.5 -92.5s-31.333 -54.834 -52 -75.501s-45.667 -31 -75 -31c-35.333 0 -65.333 9 -90 27s-45 41.5 -61 70.5s-28.333 61.667 -37 98s-15.167 73.166 -19.5 110.499s-6.83301 73.166 -7.5 107.499
s-1 63.833 -1 88.5c0 46 0.833008 92 2.5 138s2.5 92 2.5 138c0 36 -8.66699 64.5 -26 85.5s-45 31.5 -83 31.5c-10 0 -22.833 -1.66699 -38.5 -5s-31.5 -8.16602 -47.5 -14.499s-30.333 -13.833 -43 -22.5s-21 -18 -25 -28c2.66699 -8 7.33398 -13.333 14.001 -16
s13.667 -4 21 -4c21.333 0 41.833 3.66699 61.5 11s40.167 11 61.5 11c7.33301 0 15.333 -2 24 -6s13 -10.667 13 -20s-0.833008 -18.666 -2.5 -27.999s-3.5 -18.666 -5.5 -27.999c-12.667 -60.667 -22.667 -121.667 -30 -183s-11 -123 -11 -185
c0 -32.667 1.5 -66.334 4.5 -101.001s8.33301 -68.5 16 -101.5s18.334 -64.333 32.001 -94s31.167 -55.667 52.5 -78s47.166 -40 77.499 -53s65.833 -19.5 106.5 -19.5c33.333 0 63 5.33301 89 16s48.833 25.167 68.5 43.5s36.834 39.666 51.501 63.999
s27.5 50.166 38.5 77.499s20.167 55.166 27.5 83.499s14 55.833 20 82.5l40 4c-10 -62 -19.167 -124 -27.5 -186s-12.5 -125 -12.5 -189c0 -8.66699 0.5 -21.167 1.5 -37.5s2.5 -34.666 4.5 -54.999s4.66699 -41.166 8 -62.499s7.66602 -40.833 12.999 -58.5
s11.666 -32.667 18.999 -45s15.666 -19.5 24.999 -21.5h10c4 0 9.83301 0.5 17.5 1.5s15.334 2.66699 23.001 5s14.167 5.5 19.5 9.5s8 8.66699 8 14c0 7.33301 -0.333008 14.5 -1 21.5s-1.66699 13.5 -3 19.5c-8 97.333 -12 192.333 -12 285c0 52 3.66699 104.167 11 156.5
s11 104.5 11 156.5c8 0.666992 22.833 1.33398 44.5 2.00098s44.167 2.5 67.5 5.5s44 7.5 62 13.5s27 14 27 24zM903.009 1126c0 -30 -2.33398 -59.1689 -7.00098 -87.502s-9.66699 -57.166 -15 -86.499l-50 -8c2 9.33301 4.33301 25.333 7 48s6.33398 45.834 11.001 69.501
s10.834 44.5 18.501 62.5s17.5 27 29.5 27c3.33301 0 5.16602 -3.66699 5.49902 -11s0.5 -12 0.5 -14zM864.008 856.001c0 -20.667 -2.16797 -40.833 -6.50098 -60.5s-8.16602 -39.167 -11.499 -58.5l-39 -8c3.33301 20.667 6 41.167 8 61.5l6 61.5z" />
    <glyph glyph-name="brokenbar" unicode="&#xa6;" horiz-adv-x="281" 
d="M219 1364c0 10 -1.00195 20.834 -3.00195 32.501s-5.5 22.5 -10.5 32.5s-11.833 18.333 -20.5 25s-19.667 10 -33 10c-14 0 -26 -7.66699 -36 -23s-18 -35 -24 -59s-10.833 -50.167 -14.5 -78.5s-6.16699 -55.333 -7.5 -81s-2.16602 -48.334 -2.49902 -68.001
s-0.833008 -32.5 -1.5 -38.5c-1.33301 -16 -2.33301 -35.5 -3 -58.5s-1.16699 -46.833 -1.5 -71.5s-0.5 -49.334 -0.5 -74.001v-66c0 -9.33301 3.66699 -17.666 11 -24.999s16.5 -13.666 27.5 -18.999s22.833 -9.33301 35.5 -12s24.334 -4 35.001 -4
c8 0 13.833 4.16699 17.5 12.5s5.5 15.166 5.5 20.499c2 54 4.5 108 7.5 162l8.5 153.5c2.66699 48.333 5 92.5 7 132.5s3 72.333 3 97zM206.998 45.001c0 22 -0.333984 49.335 -1.00098 82.002s-1.5 67 -2.5 103l-3 108.5c-1 36.333 -2 69.166 -3 98.499
s-2 53.666 -3 72.999s-1.5 30.333 -1.5 33c-0.666992 4 -4 8.5 -10 13.5s-13.333 9.66699 -22 14s-18.167 8 -28.5 11s-20.5 4.5 -30.5 4.5c-7.33301 0 -13.833 -3.33301 -19.5 -10s-8.5 -13.667 -8.5 -21v-2c2 -62.667 5 -124.5 9 -185.5s8.33301 -117 13 -168
s9 -94.667 13 -131s7.33301 -61.166 10 -74.499c1.33301 -10 4 -17.667 8 -23s8.16699 -9.33301 12.5 -12s8.83301 -4.33398 13.5 -5.00098s8.33398 -1 11.001 -1c12 0 21.333 3.66699 28 11s11 17.333 13 30c1.33301 4 2 10.167 2 18.5v32.5z" />
    <glyph glyph-name="section" unicode="&#xa7;" horiz-adv-x="1169" 
d="M1108 201c0 41.333 -8.66211 76.6641 -25.9951 105.997s-39.666 54.666 -66.999 75.999s-58 39.166 -92 53.499s-68 26.5 -102 36.5c26.667 8 52.334 18.833 77.001 32.5s46.5 30.334 65.5 50.001s34.167 42 45.5 67s17 52.5 17 82.5c0 38.667 -7.66699 72.167 -23 100.5
s-36.166 52.833 -62.499 73.5s-57 38.334 -92 53.001s-72.167 27.5 -111.5 38.5s-79.833 20.833 -121.5 29.5s-82.167 18 -121.5 28s-76.5 21.167 -111.5 33.5s-65.667 27 -92 44s-47.166 37.5 -62.499 61.5s-23 52.667 -23 86c0 30 6 58 18 84s28.167 49.5 48.5 70.5
s43.666 39.667 69.999 56s54 30 83 41s58.167 19.333 87.5 25s56.666 8.5 81.999 8.5c16 0 35.833 -0.666992 59.5 -2s48.5 -3.83301 74.5 -7.5s52 -8.83398 78 -15.501s49.333 -15.667 70 -27s37.5 -25.166 50.5 -41.499s19.5 -35.833 19.5 -58.5
c0 -21.333 -3.16699 -39.166 -9.5 -53.499s-15 -26.833 -26 -37.5s-23.667 -20 -38 -28l-45.5 -26c-8 -4.66699 -17.5 -11.334 -28.5 -20.001s-21.5 -18.5 -31.5 -29.5s-18.5 -22.167 -25.5 -33.5s-10.5 -22 -10.5 -32c0 -6.66699 2 -12.5 6 -17.5
s8.83301 -9.16699 14.5 -12.5s11.834 -5.66602 18.501 -6.99902s12.667 -2 18 -2c13.333 0 28.5 2.83301 45.5 8.5s34 12.5 51 20.5s33.333 16.667 49 26s28.834 17.666 39.501 24.999c17.333 12.667 34.166 26.5 50.499 41.5s30.666 31.333 42.999 49
s22.333 36.834 30 57.501s11.5 42.334 11.5 65.001c0 33.333 -8.66699 62.666 -26 87.999s-40 47.166 -68 65.499s-59.667 33.666 -95 45.999s-71.166 22 -107.499 29s-71.5 12 -105.5 15s-63.333 4.5 -88 4.5c-33.333 0 -70.333 -3.66699 -111 -11s-81.667 -18 -123 -32
s-81.333 -31.667 -120 -53s-73.167 -46 -103.5 -74s-54.5 -59.167 -72.5 -93.5s-27 -72.166 -27 -113.499c0 -40.667 8.66699 -75.834 26 -105.501s39.666 -55 66.999 -76s58 -38.5 92 -52.5s68 -26 102 -36c-26.667 -8 -52.334 -19 -77.001 -33s-46.5 -30.833 -65.5 -50.5
s-34.167 -41.834 -45.5 -66.501s-17 -51.667 -17 -81c0 -48.667 11.833 -89.334 35.5 -122.001s54.667 -60.167 93 -82.5s82.166 -40.666 131.499 -54.999s99.666 -27.5 150.999 -39.5l151 -36.5c49.333 -12.333 93.166 -27.666 131.499 -45.999s69.333 -41 93 -68
s35.5 -60.833 35.5 -101.5c0 -30 -6 -57.833 -18 -83.5s-28.167 -49 -48.5 -70s-43.833 -39.667 -70.5 -56s-54.5 -30.166 -83.5 -41.499s-58 -19.833 -87 -25.5s-56.5 -8.5 -82.5 -8.5c-16 0 -35.833 0.666992 -59.5 2s-48.5 3.83301 -74.5 7.5s-52 8.83398 -78 15.501
s-49.333 15.667 -70 27s-37.5 25.166 -50.5 41.499s-19.5 35.833 -19.5 58.5c0 21.333 3.16699 39.166 9.5 53.499s15 26.833 26 37.5s23.667 20 38 28l45.5 26c8 4.66699 17.5 11.334 28.5 20.001s21.5 18.5 31.5 29.5s18.5 22.167 25.5 33.5s10.5 22 10.5 32
c0 7.33301 -2 13.5 -6 18.5s-8.83301 9 -14.5 12s-11.834 5.16699 -18.501 6.5s-12.667 2 -18 2c-13.333 0 -28.333 -2.66699 -45 -8s-33.5 -12 -50.5 -20s-33.333 -16.5 -49 -25.5s-28.834 -17.167 -39.501 -24.5c-18 -12 -35.167 -25.667 -51.5 -41s-30.833 -32 -43.5 -50
s-22.667 -37.167 -30 -57.5s-11 -41.833 -11 -64.5c0 -34 8.66699 -63.667 26 -89s40 -47.166 68 -65.499s59.667 -33.5 95 -45.5s71.166 -21.5 107.499 -28.5s71.5 -12 105.5 -15s63.333 -4.5 88 -4.5c34 0 71.333 3.5 112 10.5s81.667 17.667 123 32s81.333 32 120 53
s73 45.333 103 73s54 58.834 72 93.501s27 72.334 27 113.001zM885.005 697.998c0 -26 -8.00195 -47.667 -24.002 -65s-35.667 -31.166 -59 -41.499s-48.166 -17.666 -74.499 -21.999s-49.833 -6.5 -70.5 -6.5c-18.667 0 -41 1.16699 -67 3.5s-52.667 6.33301 -80 12
s-54.5 13.167 -81.5 22.5s-51.167 21 -72.5 35s-38.5 30.833 -51.5 50.5s-19.5 42.167 -19.5 67.5c0 26 8 47.667 24 65s35.667 31.166 59 41.499s48 17.666 74 21.999s49.333 6.5 70 6.5c19.333 0 41.833 -1.16699 67.5 -3.5s52.334 -6.33301 80.001 -12
s55 -13.167 82 -22.5s51.167 -21 72.5 -35s38.5 -30.833 51.5 -50.5s19.5 -42.167 19.5 -67.5z" />
    <glyph glyph-name="dieresis" unicode="&#xa8;" horiz-adv-x="1376" 
d="M950 1327c0 10 -1.83398 20.833 -5.50098 32.5s-9.5 22.5 -17.5 32.5s-18.333 18.333 -31 25s-28 10 -46 10c-27.333 0 -49.833 -4.16699 -67.5 -12.5s-31.667 -18.833 -42 -31.5s-17.5 -26 -21.5 -40s-6 -26.667 -6 -38c0 -10 2.66699 -21.833 8 -35.5
s12.833 -26.667 22.5 -39s21.334 -22.833 35.001 -31.5s29.167 -13 46.5 -13c18 0 34.667 5.16699 50 15.5s28.5 22.833 39.5 37.5s19.667 30 26 46s9.5 30 9.5 42zM663.999 1327c0 10 -1.83008 20.833 -5.49707 32.5s-9.66699 22.5 -18 32.5s-18.833 18.333 -31.5 25
s-28 10 -46 10c-26.667 0 -48.834 -4.16699 -66.501 -12.5s-31.834 -18.833 -42.501 -31.5s-18 -26 -22 -40s-6 -26.667 -6 -38c0 -10 2.66699 -21.833 8 -35.5s12.833 -26.667 22.5 -39s21.5 -22.833 35.5 -31.5s29.667 -13 47 -13c18 0 34.5 5.16699 49.5 15.5
s28.167 22.833 39.5 37.5s20.166 30 26.499 46s9.5 30 9.5 42z" />
    <glyph glyph-name="copyright" unicode="&#xa9;" horiz-adv-x="848" 
d="M623 850c0 7.33301 -3.00781 12.8311 -9.00781 16.498s-12.667 5.5 -20 5.5c-8 0 -15.5 -4.83301 -22.5 -14.5s-15.833 -20.5 -26.5 -32.5s-24.667 -22.833 -42 -32.5s-41 -14.5 -71 -14.5c-16 0 -31.333 2.83301 -46 8.5s-27.667 13.5 -39 23.5s-20.5 21.833 -27.5 35.5
s-10.5 28.834 -10.5 45.501c0 20 4.16699 39.833 12.5 59.5s19.5 37.5 33.5 53.5s30.333 28.833 49 38.5s38.334 14.5 59.001 14.5c8 0 15.5 -0.833008 22.5 -2.5s10.5 -7.83398 10.5 -18.501c0 -2.66699 -1.16699 -5.66699 -3.5 -9s-4.66602 -7.16602 -6.99902 -11.499
s-4.66602 -9.16602 -6.99902 -14.499s-3.5 -12 -3.5 -20c0 -10 2.83301 -18.333 8.5 -25s13.834 -10 24.501 -10c10 0 19.5 3.66699 28.5 11s16.833 16.166 23.5 26.499s12 21.333 16 33s6 21.834 6 30.501c0 14.667 -3.66699 26.667 -11 36s-16.666 16.5 -27.999 21.5
s-23.5 8.5 -36.5 10.5s-25.5 3 -37.5 3c-30 0 -58.833 -6.33301 -86.5 -19s-52 -29.667 -73 -51s-37.833 -45.666 -50.5 -72.999s-19 -56 -19 -86c0 -28 5 -53.333 15 -76s23.833 -41.834 41.5 -57.501s38.334 -27.667 62.001 -36s48.834 -12.5 75.501 -12.5
c35.333 0 67.833 7.5 97.5 22.5s53.834 38.167 72.501 69.5c3.33301 6 7.33301 14 12 24s7 19 7 27zM785.992 894.998c0 19.333 -1.33496 40.0029 -4.00195 62.0029s-6.83398 44 -12.501 66s-12.5 43.333 -20.5 64s-17.333 38.667 -28 54c-6 8 -13.5 16.5 -22.5 25.5
s-19.167 13.5 -30.5 13.5c-5.33301 0 -10.5 -1.16699 -15.5 -3.5s-7.5 -6.16602 -7.5 -11.499c0 -0.666992 1.83301 -5.5 5.5 -14.5l12.5 -30l13.5 -31.5c4.33301 -10 6.83301 -16.667 7.5 -20c7.33301 -24.667 13 -50 17 -76s6 -52 6 -78v-20
c0 -40.667 -7 -78.5 -21 -113.5s-33.667 -65.333 -59 -91s-55.166 -45.834 -89.499 -60.501s-72.166 -22 -113.499 -22c-40 0 -76.833 6.16699 -110.5 18.5s-62.5 29.833 -86.5 52.5s-42.833 50.334 -56.5 83.001s-20.5 69.334 -20.5 110.001
c0 41.333 7.33301 83.666 22 126.999s35.5 82.666 62.5 117.999s59.333 64.166 97 86.499s79.5 33.5 125.5 33.5c16 0 29 -2 39 -6s19 -8.16699 27 -12.5l24 -12.5c8 -4 18.333 -6 31 -6c12 0 24.5 3 37.5 9s19.5 16.667 19.5 32c0 13.333 -6 24.833 -18 34.5
s-26.167 17.5 -42.5 23.5s-33.166 10.5 -50.499 13.5s-31 4.5 -41 4.5c-56.667 0 -110.5 -13.667 -161.5 -41s-95.833 -62.833 -134.5 -106.5s-69.334 -92.834 -92.001 -147.501s-34 -109.334 -34 -164.001c0 -50 9 -95.833 27 -137.5s42.667 -77.5 74 -107.5
s68.333 -53.333 111 -70s89 -25 139 -25c52 0 100.833 9.66699 146.5 29s85.334 46 119.001 80s60.167 74 79.5 120s29 95.333 29 148z" />
    <glyph glyph-name="ordfeminine" unicode="&#xaa;" horiz-adv-x="944" 
d="M915 961c0 4 -0.667969 8.99805 -2.00098 14.998s-3.5 11.833 -6.5 17.5s-6.33301 10.5 -10 14.5s-8.16699 6 -13.5 6c-7.33301 0 -13.166 -4.5 -17.499 -13.5s-7.5 -16.167 -9.5 -21.5c-8 -19.333 -16.333 -36.666 -25 -51.999s-18.834 -28.166 -30.501 -38.499
s-25.667 -18.333 -42 -24s-35.833 -8.5 -58.5 -8.5c-25.333 0 -46.833 7.33301 -64.5 22s-31.5 33.334 -41.5 56.001c11.333 22.667 21.333 47.334 30 74.001s13 52.334 13 77.001c0 10.667 -0.5 24.334 -1.5 41.001s-3.66699 32.667 -8 48s-10.666 28.666 -18.999 39.999
s-20.166 17 -35.499 17c-20 0 -35.333 -5.83301 -46 -17.5s-18.5 -25.834 -23.5 -42.501s-7.83301 -34.334 -8.5 -53.001s-1 -35 -1 -49c0 -21.333 1.33301 -42.5 4 -63.5s6 -42.167 10 -63.5c-11.333 -14 -23.833 -27.167 -37.5 -39.5s-28.334 -23.333 -44.001 -33
s-32.334 -17.334 -50.001 -23.001s-35.834 -8.5 -54.501 -8.5c-21.333 0 -41.5 3.5 -60.5 10.5s-35.5 17 -49.5 30s-25.167 28.5 -33.5 46.5s-12.5 38 -12.5 60c0 41.333 8.16699 77.333 24.5 108s37.666 56.667 63.999 78s56.666 38.833 90.999 52.5
s69.5 24.167 105.5 31.5c4.66699 1.33301 10.667 2.83301 18 4.5s14.5 4 21.5 7s13 6.5 18 10.5s7.5 9 7.5 15c0 7.33301 -1.83301 13 -5.5 17s-8.16699 7 -13.5 9s-11 3.33301 -17 4s-11.667 1 -17 1c-32 0 -65 -3.5 -99 -10.5s-67 -17.333 -99 -31
s-62.167 -30.5 -90.5 -50.5s-53.166 -42.833 -74.499 -68.5s-38.166 -54 -50.499 -85s-18.5 -64.5 -18.5 -100.5c0 -36.667 5.83301 -70.667 17.5 -102s28.334 -58.166 50.001 -80.499s47.834 -39.833 78.501 -52.5s64.667 -19 102 -19c53.333 0 102.333 11.5 147 34.5
s83.667 55.167 117 96.5c10.667 -14.667 21.667 -28.667 33 -42s23.5 -25 36.5 -35s27.333 -17.833 43 -23.5s33.5 -8.5 53.5 -8.5c22.667 0 43.667 3.83301 63 11.5s37 18.167 53 31.5s30.333 28.833 43 46.5s23 36.5 31 56.5c4 11.333 7.66699 22.666 11 33.999
s5 23.333 5 36z" />
    <glyph glyph-name="guillemotleft" unicode="&#xab;" horiz-adv-x="727" 
d="M666 840c0 6 -1.00586 14.0068 -3.00586 24.0068s-5.16699 20 -9.5 30s-9.66602 18.5 -15.999 25.5s-13.5 10.5 -21.5 10.5c-1.33301 0 -5 -1.83301 -11 -5.5l-20 -12.5c-7.33301 -4.66699 -14.166 -9.33398 -20.499 -14.001s-10.833 -7.66699 -13.5 -9l-73.5 -46.5
c-26.333 -17 -50.5 -36.333 -72.5 -58s-40.333 -45.334 -55 -71.001s-22 -53.834 -22 -84.501c0 -11.333 4.33301 -24.5 13 -39.5s19.834 -30.5 33.501 -46.5s29 -32.167 46 -48.5s34 -31.833 51 -46.5l47.5 -39.5c14.667 -11.667 26.667 -20.834 36 -27.501
c1.33301 -0.666992 4.5 -2.83398 9.5 -6.50098l15.5 -11.5c5.33301 -4 10.5 -7.5 15.5 -10.5s8.5 -4.5 10.5 -4.5c6.66699 0 13.167 1.83301 19.5 5.5s12 8.16699 17 13.5s9 11.5 12 18.5s4.5 13.833 4.5 20.5c0 10 -5.83301 20.833 -17.5 32.5s-26.167 23.667 -43.5 36
s-36.166 25 -56.499 38s-39.166 25.667 -56.499 38s-31.833 24 -43.5 35s-17.5 21.167 -17.5 30.5c0 5.33301 4.66699 12.666 14 21.999s21.333 19.666 36 30.999s30.834 23 48.501 35l51 35l44.5 30.5c13.333 9 23 16.167 29 21.5c7.33301 7.33301 12.333 15 15 23
s4 16.667 4 26zM392.994 406.007c0 10 -4.83594 21.3389 -14.5029 34.0059s-21.667 26.167 -36 40.5s-29.833 28.833 -46.5 43.5s-32.167 29 -46.5 43s-26.333 27.167 -36 39.5s-14.5 23.166 -14.5 32.499c0 8.66699 3.5 18.667 10.5 30s16 23 27 35
s23.167 24.167 36.5 36.5l39 34.5l35 29.5l24 20.5c13.333 14 20 30.333 20 49c0 6 -0.666992 12.333 -2 19s-3.5 12.834 -6.5 18.501s-7.16699 10.167 -12.5 13.5s-12 5 -20 5c-1.33301 0 -5 -1.83301 -11 -5.5l-20 -12.5
c-7.33301 -4.66699 -14.166 -9.33398 -20.499 -14.001s-10.833 -7.66699 -13.5 -9l-73.5 -46.5c-26.333 -17 -50.666 -36.333 -72.999 -58s-40.833 -45.334 -55.5 -71.001s-22 -53.834 -22 -84.501c0 -11.333 4.33301 -24.5 13 -39.5s19.834 -30.5 33.501 -46.5
s29.167 -32.167 46.5 -48.5l51 -46.5c16.667 -14.667 32.5 -27.834 47.5 -39.501s27.167 -20.834 36.5 -27.501c1.33301 -0.666992 4.5 -2.83398 9.5 -6.50098l15.5 -11.5c5.33301 -4 10.5 -7.5 15.5 -10.5s8.5 -4.5 10.5 -4.5c6.66699 0 13.167 1.83301 19.5 5.5
s12 8.16699 17 13.5s9 11.5 12 18.5s4.5 13.833 4.5 20.5z" />
    <glyph glyph-name="logicalnot" unicode="&#xac;" 
 />
    <glyph glyph-name="registered" unicode="&#xae;" horiz-adv-x="846" 
d="M618 997c0 20 -3.83496 37.167 -11.502 51.5s-17.667 26.333 -30 36s-26.833 16.667 -43.5 21s-34 6.5 -52 6.5c-16 0 -31.167 -2.66699 -45.5 -8s-27.666 -12.5 -39.999 -21.5s-23.666 -19.5 -33.999 -31.5s-19.5 -24.333 -27.5 -37
c-1.33301 6 -2.66602 13.5 -3.99902 22.5s-3.33301 17.833 -6 26.5s-6.5 16 -11.5 22s-12.167 9 -21.5 9c-6 0 -12 -1.66699 -18 -5s-9 -8.66602 -9 -15.999c0 -22.667 1.66699 -45.334 5 -68.001s5.66602 -45.667 6.99902 -69
c1.33301 -20.667 2.16602 -41.334 2.49902 -62.001s0.5 -41.667 0.5 -63c0 -8 -0.5 -16 -1.5 -24s-1.5 -15.667 -1.5 -23c0 -27.333 13.667 -41 41 -41c5.33301 0 11.166 1.5 17.499 4.5s9.5 8.16699 9.5 15.5c0 14.667 0.333008 32.5 1 53.5s2.33398 43.167 5.00098 66.5
s6.83398 46.666 12.501 69.999s13.167 44.333 22.5 63s21.166 33.834 35.499 45.501s31.833 17.5 52.5 17.5c21.333 0 38.333 -7 51 -21s19 -31.667 19 -53c0 -16 -4 -30 -12 -42s-18.167 -22 -30.5 -30s-25.833 -14.5 -40.5 -19.5s-28.667 -9.16699 -42 -12.5
c-7.33301 -2 -14.5 -3.33301 -21.5 -4s-13.5 -2.33398 -19.5 -5.00098c-8 -2 -12 -8 -12 -18c0 -6.66699 2.66699 -12.667 8 -18c4.66699 -4.66699 12 -11.167 22 -19.5s21.667 -17.5 35 -27.5l42 -30.5c14.667 -10.333 28.834 -19.666 42.501 -27.999
s25.667 -15.166 36 -20.499s17.833 -8 22.5 -8c10.667 0 18.167 4.5 22.5 13.5s6.5 17.5 6.5 25.5c0 6 -6.83301 13.833 -20.5 23.5s-29.167 19.667 -46.5 30s-34.333 19.833 -51 28.5s-27.667 15 -33 19c20 5.33301 39.833 11.833 59.5 19.5s37.5 17.5 53.5 29.5
s29 26.667 39 44s15 38 15 62zM785.998 895c0 19.333 -1.33301 40 -4 62s-6.83398 44 -12.501 66s-12.667 43.333 -21 64s-18.166 38.667 -29.499 54c-6 8 -13.5 16.5 -22.5 25.5s-19.167 13.5 -30.5 13.5c-5.33301 0 -10.166 -1.16699 -14.499 -3.5
s-6.5 -6.16602 -6.5 -11.499l26.5 -69.5c7.66699 -21 14.167 -41.667 19.5 -62s9.33301 -41.5 12 -63.5s4 -47 4 -75c0 -40 -7.16699 -77.5 -21.5 -112.5s-34.333 -65.333 -60 -91s-55.667 -46 -90 -61s-71.5 -22.5 -111.5 -22.5c-40.667 0 -77.834 6 -111.501 18
s-62.5 29.333 -86.5 52s-42.667 50.334 -56 83.001s-20 69.667 -20 111s7.33301 83.666 22 126.999s35.167 82.666 61.5 117.999s58.166 64.166 95.499 86.499s78.666 33.5 123.999 33.5c16 0 29.167 -2 39.5 -6s19.666 -8.16699 27.999 -12.5s16.833 -8.5 25.5 -12.5
s19.334 -6 32.001 -6c5.33301 0 11.333 0.666992 18 2s12.834 3.5 18.501 6.5s10.5 6.83301 14.5 11.5s6 10.334 6 17.001c0 14 -5.83301 26.167 -17.5 36.5s-25.5 18.666 -41.5 24.999s-32.667 11 -50 14s-31.666 4.5 -42.999 4.5c-57.333 0 -111.5 -13.333 -162.5 -40
s-95.833 -61.5 -134.5 -104.5s-69.167 -91.667 -91.5 -146s-33.5 -109.166 -33.5 -164.499c0 -50 8.83301 -96 26.5 -138s42.167 -78.333 73.5 -109s68.166 -54.5 110.499 -71.5s88.5 -25.5 138.5 -25.5c52.667 0 101.834 9.66699 147.501 29s85.5 46 119.5 80
s60.667 74 80 120s29 95.333 29 148z" />
    <glyph glyph-name="macron" unicode="&#xaf;" horiz-adv-x="1376" 
d="M893 1335c0 6 -2.83691 12.667 -8.50391 20s-12.5 14.166 -20.5 20.499s-16.333 11.5 -25 15.5s-16 6 -22 6c-22 0 -43.833 -2 -65.5 -6s-43.167 -8.5 -64.5 -13.5s-42.666 -9.5 -63.999 -13.5s-42.666 -6 -63.999 -6c-8 0 -15.833 1.66699 -23.5 5s-15.5 5 -23.5 5
c-2.66699 0 -5.66699 -3 -9 -9s-6.5 -12.833 -9.5 -20.5s-5.5 -15 -7.5 -22s-3 -11.5 -3 -13.5c0 -6 1.5 -12.333 4.5 -19s6.66699 -13 11 -19s9.33301 -11.167 15 -15.5s11.167 -7.16602 16.5 -8.49902c4.66699 -1.33301 8.83398 -2 12.501 -2h10.5
c26.667 0 52.834 3.66699 78.501 11s52.167 12 79.5 14c7.33301 0.666992 18 1.16699 32 1.5s28.5 1 43.5 2s29.167 2.16699 42.5 3.5s22.333 3 27 5c9.33301 4 17.833 12.333 25.5 25s11.5 24 11.5 34z" />
    <glyph glyph-name="degree" unicode="&#xb0;" horiz-adv-x="520" 
d="M459 1260c0 26.667 -4.99805 51.166 -14.998 73.499s-23.667 41.5 -41 57.5s-37.333 28.5 -60 37.5s-47 13.5 -73 13.5c-29.333 0 -56.833 -5.16699 -82.5 -15.5s-47.834 -24.666 -66.501 -42.999s-33.334 -40.166 -44.001 -65.499s-16 -53 -16 -83
c0 -26 5 -49.667 15 -71s23.5 -39.5 40.5 -54.5s36.833 -26.5 59.5 -34.5s46.667 -12 72 -12c27.333 0 53.833 5 79.5 15s48.167 23.667 67.5 41s34.833 38.166 46.5 62.499s17.5 50.5 17.5 78.5zM371.002 1262c0 -15.333 -3.33496 -29.001 -10.002 -41.001
s-15.5 -22 -26.5 -30s-23.333 -14 -37 -18s-27.5 -6 -41.5 -6c-11.333 0 -22.666 1.83301 -33.999 5.5s-21.666 8.83398 -30.999 15.501s-16.833 15 -22.5 25s-8.5 21.333 -8.5 34c0 14.667 2.66699 28.5 8 41.5s12.666 24.5 21.999 34.5s20.333 18 33 24s26.334 9 41.001 9
c30 0 55.333 -7.66699 76 -23s31 -39 31 -71z" />
    <glyph glyph-name="plusminus" unicode="&#xb1;" 
 />
    <glyph glyph-name="twosuperior" unicode="&#xb2;" horiz-adv-x="535" 
d="M473 705c0 14.667 -3.3252 26.168 -9.99219 34.501s-15 14.666 -25 18.999s-20.833 7 -32.5 8s-22.5 1.5 -32.5 1.5c-16.667 0 -37.334 -0.666992 -62.001 -2s-48.334 -2 -71.001 -2c-10.667 0 -20.5 0.166992 -29.5 0.5s-17.167 1.5 -24.5 3.5
c29.333 27.333 60.666 59.166 93.999 95.499s64.166 75 92.499 116s51.833 83 70.5 126s28 84.833 28 125.5c0 30.667 -5.5 59.167 -16.5 85.5s-26 49.333 -45 69s-41.667 35 -68 46s-54.833 16.5 -85.5 16.5c-26 0 -50.833 -3.5 -74.5 -10.5s-44.334 -17.5 -62.001 -31.5
s-31.834 -31.5 -42.501 -52.5s-16 -45.5 -16 -73.5c0 -16 3.66699 -33 11 -51s17.166 -34.5 29.499 -49.5s26.666 -27.5 42.999 -37.5s33.166 -14.667 50.499 -14c9.33301 0 17.333 3 24 9s10 14 10 24c0 16.667 -4.33301 29.334 -13 38.001s-18 16.834 -28 24.501
s-19.333 16 -28 25s-13 22.167 -13 39.5c0 30 10.167 52.5 30.5 67.5s43.833 22.5 70.5 22.5c23.333 0 42.5 -4.5 57.5 -13.5s27.167 -20.833 36.5 -35.5s16 -31.334 20 -50.001s6.33301 -37.334 7 -56.001c0 -32 -8.33301 -66.333 -25 -103s-37 -72.834 -61 -108.501
s-49.333 -69.5 -76 -101.5l-70 -83c-13.333 -14.667 -24.166 -27 -32.499 -37l-20 -24.5c-5 -6.33301 -8.33301 -11.666 -10 -15.999s-2.5 -8.5 -2.5 -12.5c0 -15.333 2.66699 -27.5 8 -36.5s12.333 -15.667 21 -20s18.5 -7.16602 29.5 -8.49902s22.167 -2 33.5 -2h25.5h52
h65c23 0 44.167 0.166992 63.5 0.5s35.5 0.5 48.5 0.5s19.5 0.333008 19.5 1c9.33301 1.33301 17.5 4.83301 24.5 10.5s10.5 13.167 10.5 22.5z" />
    <glyph glyph-name="threesuperior" unicode="&#xb3;" horiz-adv-x="494" 
d="M434 903c0 30 -5.66895 55.8301 -17.002 77.4971s-25.5 40 -42.5 55s-35.667 27.333 -56 37s-39.833 17.5 -58.5 23.5c18 4.66699 34.667 12.834 50 24.501s28.5 25.5 39.5 41.5s19.667 33.167 26 51.5s9.5 36.5 9.5 54.5c0 28.667 -5.33301 54 -16 76s-25 40.5 -43 55.5
s-39.167 26.5 -63.5 34.5s-50.5 12 -78.5 12c-7.33301 0 -14.833 -0.333008 -22.5 -1s-15.834 -1.66699 -24.501 -3c-10 -2 -20 -6.83301 -30 -14.5s-15 -18.5 -15 -32.5c0 -14.667 4.5 -25.5 13.5 -32.5s19.5 -10.5 31.5 -10.5c6.66699 0 13 0.666992 19 2s12 2 18 2
c13.333 0 27.166 -2 41.499 -6s27.333 -9.66699 39 -17s21.334 -16.666 29.001 -27.999s11.5 -24.333 11.5 -39c0 -21.333 -3.5 -39.333 -10.5 -54s-16 -27 -27 -37s-23 -18.167 -36 -24.5l-37.5 -17.5c-15.333 -6.66699 -28 -13.5 -38 -20.5s-15 -16.167 -15 -27.5
c0 -4.66699 2 -8.83398 6 -12.501s8.83301 -6.83398 14.5 -9.50098s11.5 -4.66699 17.5 -6s11 -2.66602 15 -3.99902c15.333 -4 31.833 -8.66699 49.5 -14s34 -13.333 49 -24s27.667 -25 38 -43s15.5 -41.667 15.5 -71c0 -20.667 -4 -39.5 -12 -56.5s-19 -31.833 -33 -44.5
s-30.833 -22.5 -50.5 -29.5s-41.167 -10.5 -64.5 -10.5c-11.333 0 -22.5 1.33301 -33.5 4s-22.167 4 -33.5 4c-13.333 0 -24.666 -4.16699 -33.999 -12.5s-14 -19.166 -14 -32.499c0 -2.66699 0.833008 -7 2.5 -13s5.83398 -11.667 12.501 -17s16.167 -10.166 28.5 -14.499
s28.833 -6.5 49.5 -6.5c36.667 0 71.834 4.5 105.501 13.5s63.5 22.833 89.5 41.5s46.667 42.5 62 71.5s23 63.833 23 104.5z" />
    <glyph glyph-name="acute" unicode="&#xb4;" horiz-adv-x="1376" 
d="M852 1350l-0.00292969 -8.49805c0 -2.33301 -0.666992 -5.16602 -2 -8.49902c-2.66699 -6 -10.667 -14.833 -24 -26.5s-29.666 -24.334 -48.999 -38.001s-40.166 -27.5 -62.499 -41.5l-64 -38.5c-20.333 -11.667 -38.333 -21.167 -54 -28.5s-26.167 -11 -31.5 -11
c-9.33301 0 -18.5 4.16699 -27.5 12.5s-13.5 17.166 -13.5 26.499c0 6 5.5 16.333 16.5 31s24.833 31.167 41.5 49.5s35.334 37.333 56.001 57s40.5 37.667 59.5 54s36.333 29.833 52 40.5s27.167 16 34.5 16s15 -3.33301 23 -10s15.333 -14.5 22 -23.5
s12.167 -18.333 16.5 -28s6.5 -17.834 6.5 -24.501z" />
    <glyph glyph-name="mu" unicode="&#xb5;" horiz-adv-x="567" 
d="M659 172c0 7.33301 -2.6582 14.9951 -7.99121 22.9951s-12 12 -20 12c-4 0 -11 -3.83301 -21 -11.5l-37 -28l-51 -36.5c-19.333 -13.333 -40.5 -25.5 -63.5 -36.5s-47.833 -20.333 -74.5 -28s-54.334 -11.5 -83.001 -11.5c-10 0 -21.333 1 -34 3s-24.667 5.33301 -36 10
s-21 11 -29 19s-12 18 -12 30c0 13.333 4 25 12 35s18 19.333 30 28s25 17.334 39 26.001s27 18 39 28s22 21.333 30 34s12 27.667 12 45c0 15.333 -4.83301 27.333 -14.5 36s-21.834 15.834 -36.501 21.501s-30.334 10.167 -47.001 13.5s-32.334 7 -47.001 11
s-26.834 8.83301 -36.501 14.5s-14.5 13.834 -14.5 24.501c0 12 8.5 25 25.5 39s36.833 27 59.5 39s45.167 21.833 67.5 29.5s38.833 11.5 49.5 11.5c4 0 8.83301 -0.166992 14.5 -0.5s11 -1.33301 16 -3s9.16699 -4.16699 12.5 -7.5s5 -8 5 -14
c0 -7.33301 -2.83301 -15.166 -8.5 -23.499s-8.5 -16.166 -8.5 -23.499c0 -13.333 6.16699 -24.5 18.5 -33.5s24.5 -13.5 36.5 -13.5c26 0 47.667 8.83301 65 26.5s26 38.834 26 63.501c0 20.667 -3.83301 38 -11.5 52s-17.834 25.333 -30.501 34s-27.334 15 -44.001 19
s-34 6 -52 6c-16 0 -36.833 -2.5 -62.5 -7.5s-53.334 -12.167 -83.001 -21.5s-59.334 -20.333 -89.001 -33s-56.667 -27 -81 -43s-44 -33 -59 -51s-22.5 -37 -22.5 -57c-0 -16.667 5.33301 -30.167 16 -40.5s23.834 -18.833 39.501 -25.5s32.667 -11.834 51 -15.501
s35.333 -7.5 51 -11.5s28.834 -8.33301 39.501 -13s16 -11 16 -19c0 -7.33301 -4.16699 -14.666 -12.5 -21.999s-19 -15 -32 -23l-41.5 -26c-14.667 -9.33301 -28.5 -20 -41.5 -32s-23.667 -25.5 -32 -40.5s-12.5 -32.167 -12.5 -51.5c0 -29.333 7.16699 -53.5 21.5 -72.5
s32.5 -33.833 54.5 -44.5s46.167 -18 72.5 -22s51.166 -6 74.499 -6c52 0 102.5 9 151.5 27s94.167 42.333 135.5 73c5.33301 4 13.833 11.167 25.5 21.5l36 33.5c12.333 12 23.166 23.667 32.499 35s14 19.666 14 24.999z" />
    <glyph glyph-name="paragraph" unicode="&#xb6;" horiz-adv-x="1550" 
d="M1489 1124c0 44 -12.4961 82.6641 -37.4961 115.997s-57.667 62.333 -98 87s-85.666 45.334 -135.999 62.001s-101 30.167 -152 40.5s-99.833 17.666 -146.5 21.999s-86 6.5 -118 6.5c-43.333 0 -91.666 -3 -144.999 -9s-107.5 -16 -162.5 -30s-108.333 -32 -160 -54
s-97.667 -49.333 -138 -82s-72.833 -70.667 -97.5 -114s-37 -93 -37 -149c0 -55.333 9.33301 -105.166 28 -149.499s44 -83.5 76 -117.5s69.167 -63.5 111.5 -88.5s87.166 -46.333 134.499 -64s95.666 -32.167 144.999 -43.5s96.666 -20.333 141.999 -27
c0.666992 -13.333 1.66699 -34.666 3 -63.999s3.33301 -62.666 6 -99.999s5.66699 -76.333 9 -117s6.83301 -78.667 10.5 -114s7.33398 -65.833 11.001 -91.5s7.16699 -42.167 10.5 -49.5c5.33301 -11.333 10 -19.666 14 -24.999s12.667 -8 26 -8
c21.333 0 35.666 5 42.999 15s11 24.667 11 44c0 36.667 -1 73.167 -3 109.5s-4.33301 72.666 -7 108.999s-5 72.666 -7 108.999s-2.66699 72.833 -2 109.5v59c41.333 -4 81.666 -6 120.999 -6c8.66699 0 16.5 0.5 23.5 1.5s14.167 4.5 21.5 10.5
c0.666992 -13.333 1.83398 -34.666 3.50098 -63.999s3.83398 -62.166 6.50098 -98.499l8.5 -114.5c3 -40 6.16699 -77.333 9.5 -112s6.83301 -64.667 10.5 -90s7.16699 -41.666 10.5 -48.999c5.33301 -11.333 10.166 -19.666 14.499 -24.999s13.166 -8 26.499 -8
c21.333 0 35.666 5 42.999 15s11 24.667 11 44c0 28 -1 55.667 -3 83l-6 81c-2 48 -4.16699 95.667 -6.5 143s-3.5 94.666 -3.5 141.999c0 53.333 1.33301 106.5 4 159.5s6.66699 105.5 12 157.5c24.667 7.33301 50.5 16.666 77.5 27.999s53.833 24.833 80.5 40.5
s52.167 33.167 76.5 52.5s45.666 40.166 63.999 62.499s33 46.5 44 72.5s16.5 53.333 16.5 82zM1315 1139c0 -25.333 -4.66406 -48.833 -13.9971 -70.5s-22 -41.167 -38 -58.5s-34.167 -32.333 -54.5 -45s-41.5 -23 -63.5 -31c3.33301 30.667 6.16602 61.334 8.49902 92.001
s3.5 61.334 3.5 92.001c0 4 -0.166992 10.167 -0.5 18.5s-1.5 14.5 -3.5 18.5c-5.33301 10.667 -14.333 20.167 -27 28.5s-24.667 12.5 -36 12.5c-18 0 -33 -9.33301 -45 -28s-22 -42.334 -30 -71.001s-14.167 -60.5 -18.5 -95.5s-7.5 -69.167 -9.5 -102.5
s-3.16699 -63.333 -3.5 -90s-0.5 -46.334 -0.5 -59.001c0 -72 2 -143.667 6 -215c-6 4.66699 -16.333 9 -31 13s-30.334 7.5 -47.001 10.5l-49 8.5c-16 2.66699 -28.333 4.66699 -37 6c2 56.667 5.33301 113 10 169s9.66699 111.667 15 167l9.5 106.5
c3 35 4.5 69.833 4.5 104.5c0 4 0.166992 10 0.5 18s-0.5 13.667 -2.5 17c-6 10.667 -15.333 20.167 -28 28.5s-25 12.5 -37 12.5c-18 0 -33 -9.5 -45 -28.5s-21.833 -43.167 -29.5 -72.5s-13.667 -62 -18 -98s-7.33301 -70.833 -9 -104.5s-2.66699 -64.167 -3 -91.5
s-0.5 -47.333 -0.5 -60v-70.5c0 -23.667 0.666992 -47.167 2 -70.5c-55.333 12.667 -110.333 29 -165 49s-103.667 46 -147 78s-78.5 71.333 -105.5 118s-40.5 103 -40.5 169c0 46.667 9.33301 88 28 124s43.5 67.833 74.5 95.5s66.667 51 107 70s82.333 34.5 126 46.5
s87.167 20.667 130.5 26s83.666 8 120.999 8c24 0 52.667 -1.66699 86 -5s68.166 -8.83301 104.499 -16.5s72.5 -17.667 108.5 -30s68.333 -27.5 97 -45.5s51.834 -39.167 69.501 -63.5s26.5 -52.5 26.5 -84.5z" />
    <glyph glyph-name="periodcentered" unicode="&#xb7;" horiz-adv-x="387" 
d="M326 715c0 10.667 -1.99805 22.5 -5.99805 35.5s-10.5 25 -19.5 36s-20.5 20.167 -34.5 27.5s-31 11 -51 11c-30 0 -55 -4.66699 -75 -14s-35.833 -21 -47.5 -35s-19.834 -29 -24.501 -45s-7 -30.333 -7 -43c0 -11.333 2.83301 -24.5 8.5 -39.5s14 -29.333 25 -43
s24.167 -25.167 39.5 -34.5s32.666 -14 51.999 -14c20.667 0 39.5 5.66699 56.5 17s31.667 25.333 44 42s22 34 29 52s10.5 33.667 10.5 47z" />
    </font>
</defs>
</svg>
